<svg xmlns="http://www.w3.org/2000/svg" width="100" height="19.659" viewBox="0 0 100 19.659"><g transform="translate(-2.07 -1.668)"><path d="M19.854,13.087a2.7,2.7,0,0,0-.771,2.159l-.013-.013a3.2,3.2,0,0,1-3.46,3.46l.013.013a2.711,2.711,0,1,0,2.448,2.446l.014.013a3.2,3.2,0,0,1,3.46-3.46l-.014-.013a2.706,2.706,0,1,0-1.675-4.605Z" transform="translate(-2.783 -2.792)" fill="#394149"/><path d="M11.875,14.425l-.014-.013a2.677,2.677,0,0,0,2.932-2.93l.014.013a3.2,3.2,0,0,1,3.46-3.46l-.014-.013a2.711,2.711,0,1,0-2.446-2.446l-.013-.014a3.2,3.2,0,0,1-3.46,3.46l.013.014a2.677,2.677,0,0,0-2.932,2.93L9.4,11.952a3.2,3.2,0,0,1-3.46,3.46l.013.013A2.711,2.711,0,1,0,8.4,17.872l.014.013a3.2,3.2,0,0,1,3.46-3.46Z" transform="translate(-0.242 -0.248)" fill="#394149"/><path d="M6.692,12.7a2.692,2.692,0,0,0,.77-2.159l.014.013a3.2,3.2,0,0,1,3.462-3.46l-.014-.013A2.711,2.711,0,1,0,8.479,4.632l-.013-.013A3.2,3.2,0,0,1,5,8.079l.013.013A2.706,2.706,0,1,0,6.694,12.7Z" transform="translate(0 0)" fill="#394149"/><path d="M39.317,6.655h2.19V17.31h-2.19Z" transform="translate(-9.788 -1.311)" fill="#394149"/><path d="M43.969,14.775a3.868,3.868,0,1,1,3.868,3.853,3.825,3.825,0,0,1-3.868-3.853Zm5.547,0A1.679,1.679,0,1,0,47.837,16.5a1.637,1.637,0,0,0,1.679-1.726Z" transform="translate(-11.01 -2.424)" fill="#394149"/><path d="M63.5,11.135v6.93c0,2.452-1.912,3.488-3.853,3.488a3.732,3.732,0,0,1-3.459-1.769l1.868-1.08a1.668,1.668,0,0,0,1.664.919,1.454,1.454,0,0,0,1.649-1.561v-.667a2.592,2.592,0,0,1-2.131.949,3.709,3.709,0,0,1,0-7.414,2.592,2.592,0,0,1,2.131.949v-.745Zm-2.131,3.5a1.769,1.769,0,1,0-1.766,1.7,1.651,1.651,0,0,0,1.766-1.7Z" transform="translate(-14.079 -2.433)" fill="#394149"/><path d="M67.982,14.775a3.868,3.868,0,1,1,3.868,3.853,3.825,3.825,0,0,1-3.868-3.853Zm5.547,0A1.679,1.679,0,1,0,71.85,16.5a1.637,1.637,0,0,0,1.679-1.726Z" transform="translate(-17.321 -2.424)" fill="#394149"/><path d="M79.861,8.088A1.314,1.314,0,1,1,81.175,9.4a1.327,1.327,0,0,1-1.314-1.314Zm.221,1.956h2.19v7.3H80.079Z" transform="translate(-20.442 -1.342)" fill="#394149"/><path d="M93.157,14.784a3.665,3.665,0,0,1-3.488,3.853,2.739,2.739,0,0,1-2.174-.891v3.606h-2.19V11.135h2.19v.686a2.74,2.74,0,0,1,2.174-.89,3.664,3.664,0,0,1,3.488,3.853Zm-2.19,0a1.737,1.737,0,1,0-1.736,1.78,1.666,1.666,0,0,0,1.736-1.78Z" transform="translate(-21.873 -2.433)" fill="#394149"/><path d="M102.92,16.244c0,1.679-1.459,2.394-3.035,2.394A3.2,3.2,0,0,1,96.747,16.9l1.9-1.08a1.2,1.2,0,0,0,1.239.861c.525,0,.788-.161.788-.452,0-.8-3.591-.38-3.591-2.9,0-1.592,1.343-2.394,2.861-2.394a3.192,3.192,0,0,1,2.846,1.561L100.918,13.5a1.059,1.059,0,0,0-.978-.642c-.38,0-.613.147-.613.408C99.33,14.1,102.92,13.543,102.92,16.244Z" transform="translate(-24.88 -2.434)" fill="#394149"/><path d="M113.474,11.209v7.3h-2.19v-.686a2.494,2.494,0,0,1-2.086.891,2.728,2.728,0,0,1-2.728-3.023v-4.48h2.19v4.159a1.2,1.2,0,0,0,1.269,1.327c.8,0,1.357-.467,1.357-1.5V11.211Z" transform="translate(-27.435 -2.507)" fill="#394149"/><path d="M129.1,13.95v4.481h-2.19V14.14c0-.73-.35-1.2-1.051-1.2-.73,0-1.139.511-1.139,1.372v4.116H122.53V14.14c0-.73-.35-1.2-1.051-1.2-.73,0-1.138.511-1.138,1.372v4.116h-2.19v-7.3h2.19V11.8a2.24,2.24,0,0,1,1.956-.875,2.17,2.17,0,0,1,1.912.963,2.4,2.4,0,0,1,2.117-.963A2.733,2.733,0,0,1,129.1,13.95Z" transform="translate(-30.504 -2.432)" fill="#394149"/><path d="M134.933,9.99a1.625,1.625,0,1,0-1.625-1.625A1.625,1.625,0,0,0,134.933,9.99Z" transform="translate(-34.488 -1.333)" fill="#394149"/></g></svg>