<svg xmlns="http://www.w3.org/2000/svg" width="100" height="35" viewBox="0 0 100 35"><g transform="translate(-2.885 -2.885)"><path d="M30.57,27.822a2.193,2.193,0,1,1,4.356,0,2.193,2.193,0,1,1-4.356,0Z" transform="translate(-8.49 -6.897)" fill="#152c4f"/><path d="M45.7,25.281a2.115,2.115,0,0,0-2.1,2.3,2.158,2.158,0,0,0,2.1,2.351,2.229,2.229,0,0,0,2.275-2.351A2.2,2.2,0,0,0,45.7,25.281Z" transform="translate(-12.487 -6.868)" fill="#152c4f"/><path d="M57.091,27.822a2.193,2.193,0,1,1,4.356,0,2.193,2.193,0,1,1-4.356,0Z" transform="translate(-16.623 -6.897)" fill="#152c4f"/><path d="M76.193,27.845A2.228,2.228,0,0,1,78.452,25.4a2.2,2.2,0,0,1,2.21,2.448,2.187,2.187,0,0,1-2.21,2.432A2.214,2.214,0,0,1,76.193,27.845Z" transform="translate(-22.481 -6.904)" fill="#152c4f"/><path d="M52.885,37.885c27.614,0,50-7.835,50-17.5s-22.386-17.5-50-17.5-50,7.835-50,17.5S25.27,37.885,52.885,37.885ZM18.867,24.945V12.885H16.885V24.945Zm1.214-4.02a3.992,3.992,0,0,0,4.177,4.215,3.991,3.991,0,0,0,4.177-4.215,3.991,3.991,0,0,0-4.177-4.215A3.991,3.991,0,0,0,20.081,20.925Zm12.791,3.858a3.728,3.728,0,0,1-3.771-4.02,3.806,3.806,0,0,1,3.836-4.085,3,3,0,0,1,2.682,1.346l.114-1.086h1.755v7.6a4.023,4.023,0,0,1-4.258,4.344,3.868,3.868,0,0,1-4.079-3.453h2c.114,1.054.959,1.654,2.194,1.654a2.05,2.05,0,0,0,2.21-2.189V23.535A3.128,3.128,0,0,1,32.872,24.783Zm5.6-3.858a4.177,4.177,0,1,0,8.354,0,4.177,4.177,0,1,0-8.354,0Zm11.686-6.808A1.181,1.181,0,0,1,48.968,15.3a1.175,1.175,0,0,1,0-2.351A1.178,1.178,0,0,1,50.155,14.117Zm-.2,2.821v8.008H47.977V16.937ZM51.7,28.658h1.934V23.843a3.225,3.225,0,0,0,2.8,1.313c2.373,0,3.787-1.816,3.754-4.312-.049-2.513-1.5-4.15-3.77-4.15A3.1,3.1,0,0,0,53.6,18.153l-.114-1.216H51.7Zm12.205-3.5c-1.918,0-3.153-1.021-3.218-2.61h1.8c0,.7.5,1.1,1.381,1.1.731,0,1.333-.292,1.333-.924,0-.454-.325-.7-.845-.843l-1.4-.357c-1.544-.405-2.145-1.264-2.145-2.3,0-1.524,1.284-2.529,3.007-2.529a2.7,2.7,0,0,1,2.99,2.594h-1.8a1.1,1.1,0,0,0-1.235-1.119c-.715,0-1.154.389-1.154.94,0,.519.406.729,1.008.892l1.414.34a2.284,2.284,0,0,1,2.031,2.253C67.071,24.151,65.787,25.156,63.9,25.156Zm7.282,0a3.118,3.118,0,0,0,2.6-1.248l.13,1.038h1.853V16.937H73.784v4.2c0,1.443-.553,2.253-1.853,2.253-1.007,0-1.706-.486-1.706-2.14V16.937H68.242v5.009C68.242,23.859,69.282,25.156,71.184,25.156ZM79.5,20.342v4.6H77.517V16.937h1.82l.1.908a2.938,2.938,0,0,1,4.908.373,2.638,2.638,0,0,1,2.568-1.524,2.729,2.729,0,0,1,2.974,3.015v5.236H87.967V20.163a1.516,1.516,0,0,0-1.576-1.735c-.943,0-1.69.616-1.69,1.929v4.588H82.766V20.163c0-1.135-.617-1.735-1.56-1.735A1.683,1.683,0,0,0,79.5,20.342Z" transform="translate(0 0)" fill="#152c4f" fill-rule="evenodd"/></g></svg>