<svg xmlns="http://www.w3.org/2000/svg" width="100" height="27.261" viewBox="0 0 100 27.261"><g transform="translate(-2.907 -2.907)"><path d="M53.867,15.744a2.462,2.462,0,0,0-.224-1.2.934.934,0,0,0-.895-.4h-.32v-.32h1.438a1.87,1.87,0,0,1,.879.16.845.845,0,0,1,.431.543,4.274,4.274,0,0,1,.128,1.214v7.988h5.671v.639H53.867Z" transform="translate(-18.589 -4.099)" fill="#4845d2"/><path d="M69.83,26.258a3.421,3.421,0,0,1-1.885-.511,3.363,3.363,0,0,1-1.214-1.422,4.931,4.931,0,0,1,0-3.962,3.258,3.258,0,0,1,1.214-1.406,3.634,3.634,0,0,1,3.77,0,3.257,3.257,0,0,1,1.214,1.406,4.931,4.931,0,0,1,0,3.962,3.363,3.363,0,0,1-1.214,1.422A3.421,3.421,0,0,1,69.83,26.258Zm0-.639a1.45,1.45,0,0,0,1.038-.431,2.7,2.7,0,0,0,.7-1.182,5.528,5.528,0,0,0,0-3.323,2.7,2.7,0,0,0-.7-1.182,1.45,1.45,0,0,0-1.038-.431,1.505,1.505,0,0,0-1.054.431,2.912,2.912,0,0,0-.7,1.182,5.88,5.88,0,0,0,0,3.323,2.913,2.913,0,0,0,.7,1.182A1.505,1.505,0,0,0,69.83,25.619Z" transform="translate(-23.801 -5.827)" fill="#4845d2"/><path d="M82.139,29.294a4.866,4.866,0,0,1-2.572-.591,2.06,2.06,0,0,1-.943-1.885,1.835,1.835,0,0,1,.5-1.278,2.919,2.919,0,0,1,1.262-.8,1.066,1.066,0,0,1-.639-.959.762.762,0,0,1,.144-.5A2.507,2.507,0,0,1,80.3,22.9a2.2,2.2,0,0,1-.863-.8,2.382,2.382,0,0,1-.335-1.278q0-2.4,3.035-2.4h2.955v.4l-1.038.16v.08a2.078,2.078,0,0,1,.8.719,1.74,1.74,0,0,1,.319,1.038q0,2.4-3.035,2.4-1.677,0-1.677.559t1.677.559a4.616,4.616,0,0,1,2.524.623,2.025,2.025,0,0,1,.99,1.853,2.05,2.05,0,0,1-.959,1.885A4.779,4.779,0,0,1,82.139,29.294Zm0-6.63a1.555,1.555,0,0,0,1.15-.431,1.92,1.92,0,0,0,.447-1.406,1.905,1.905,0,0,0-.447-1.374,1.5,1.5,0,0,0-1.15-.463,1.577,1.577,0,0,0-1.166.447,1.906,1.906,0,0,0-.431,1.39,1.966,1.966,0,0,0,.431,1.406A1.61,1.61,0,0,0,82.139,22.664Zm0,5.991a2.307,2.307,0,0,0,1.518-.463,1.653,1.653,0,0,0,.559-1.374q0-1.6-1.917-1.837l-.879-.08a2.252,2.252,0,0,0-1.006.719,1.929,1.929,0,0,0-.351,1.2,1.653,1.653,0,0,0,.559,1.374A2.307,2.307,0,0,0,82.139,28.655Z" transform="translate(-28.421 -5.827)" fill="#4845d2"/><path d="M94.445,26.258a3.421,3.421,0,0,1-1.885-.511,3.364,3.364,0,0,1-1.214-1.422,4.932,4.932,0,0,1,0-3.962,3.258,3.258,0,0,1,1.214-1.406,3.634,3.634,0,0,1,3.77,0,3.255,3.255,0,0,1,1.214,1.406,4.931,4.931,0,0,1,0,3.962,3.36,3.36,0,0,1-1.214,1.422A3.421,3.421,0,0,1,94.445,26.258Zm0-.639a1.45,1.45,0,0,0,1.038-.431,2.7,2.7,0,0,0,.7-1.182,5.526,5.526,0,0,0,0-3.323,2.7,2.7,0,0,0-.7-1.182,1.45,1.45,0,0,0-1.038-.431,1.505,1.505,0,0,0-1.054.431,2.912,2.912,0,0,0-.7,1.182,5.88,5.88,0,0,0,0,3.323,2.913,2.913,0,0,0,.7,1.182A1.505,1.505,0,0,0,94.445,25.619Z" transform="translate(-33.041 -5.827)" fill="#4845d2"/><path d="M104.543,16.105a.833.833,0,0,1-.64-.3,1.083,1.083,0,0,1-.255-.719.714.714,0,0,1,.192-.527.77.77,0,0,1,.543-.192.786.786,0,0,1,.623.3,1.042,1.042,0,0,1,.272.719.681.681,0,0,1-.208.527A.71.71,0,0,1,104.543,16.105Zm-.607,2.876a2.467,2.467,0,0,0-.224-1.2.935.935,0,0,0-.9-.4H102.5v-.32h1.438a1.87,1.87,0,0,1,.878.16.846.846,0,0,1,.432.543,4.286,4.286,0,0,1,.127,1.214v5.591h-1.437Z" transform="translate(-37.383 -4.3)" fill="#4845d2"/><path d="M109.462,20.507a2.46,2.46,0,0,0-.224-1.2.933.933,0,0,0-.894-.4h-.319v-.32h1.437a1.861,1.861,0,0,1,.911.176.888.888,0,0,1,.447.543h.08a2.266,2.266,0,0,1,.815-.623,3.073,3.073,0,0,1,1.342-.256,2.412,2.412,0,0,1,2.124,1.118,4.857,4.857,0,0,1,.751,2.8,4.739,4.739,0,0,1-.783,2.812,2.568,2.568,0,0,1-2.252,1.1,4.036,4.036,0,0,1-1.07-.128,5.492,5.492,0,0,1-.927-.351v3.355h-1.438Zm2.956,5.112a1.591,1.591,0,0,0,1.5-.895,4.917,4.917,0,0,0,.5-2.38,5.153,5.153,0,0,0-.463-2.364,1.474,1.474,0,0,0-1.374-.911,1.89,1.89,0,0,0-1.678.959V25.14q.48.224.831.351A2,2,0,0,0,112.418,25.619Z" transform="translate(-39.457 -5.827)" fill="#4845d2"/><path d="M125.225,26.258a3.55,3.55,0,0,1-2.477-.639,1.163,1.163,0,0,1-.335-.607,6.547,6.547,0,0,1-.064-1.07h.32a2.011,2.011,0,0,0,.686,1.246,2.483,2.483,0,0,0,1.55.431,2.287,2.287,0,0,0,1.31-.3.938.938,0,0,0,.447-.815,1.067,1.067,0,0,0-.351-.8,3.308,3.308,0,0,0-1.086-.639l-.959-.4a3.974,3.974,0,0,1-1.438-.895,1.92,1.92,0,0,1,.256-2.78,3.052,3.052,0,0,1,1.9-.559,3.4,3.4,0,0,1,2.4.639,1.155,1.155,0,0,1,.335.607,6.288,6.288,0,0,1,.064,1.07h-.32a1.878,1.878,0,0,0-.671-1.23,2.268,2.268,0,0,0-1.485-.447,1.947,1.947,0,0,0-1.182.32.944.944,0,0,0-.415.8q0,.831,1.278,1.358l.959.4a4.712,4.712,0,0,1,1.582.959,1.73,1.73,0,0,1,.495,1.278,1.783,1.783,0,0,1-.783,1.534A3.454,3.454,0,0,1,125.225,26.258Z" transform="translate(-44.834 -5.827)" fill="#4845d2"/><path d="M135.558,26.354a2.966,2.966,0,0,1-1.965-.639,2.812,2.812,0,0,1-.751-2.237V20.6a2.467,2.467,0,0,0-.224-1.2.934.934,0,0,0-.9-.4h-.159v-.32h1.278a1.868,1.868,0,0,1,.878.16.846.846,0,0,1,.432.543,4.286,4.286,0,0,1,.127,1.214v2.876a2.34,2.34,0,0,0,.5,1.645,1.715,1.715,0,0,0,1.262.511,2.146,2.146,0,0,0,1.6-.847v-6.1h1.438v7.508h-.8l-.559-.639h-.08a2.862,2.862,0,0,1-.878.575A3.043,3.043,0,0,1,135.558,26.354Z" transform="translate(-48.293 -5.923)" fill="#4845d2"/><path d="M146.023,20.507a2.46,2.46,0,0,0-.224-1.2.933.933,0,0,0-.894-.4h-.319v-.32h1.437a1.977,1.977,0,0,1,.9.16.964.964,0,0,1,.463.479h.08a2.689,2.689,0,0,1,.863-.559,2.979,2.979,0,0,1,1.214-.24,2.412,2.412,0,0,1,1.15.256,1.715,1.715,0,0,1,.767.863,2.759,2.759,0,0,1,1.054-.815,3.16,3.16,0,0,1,1.342-.3,2.141,2.141,0,0,1,1.63.639,3.231,3.231,0,0,1,.607,2.237V26.1H154.65V21.306a3.166,3.166,0,0,0-.319-1.645,1.056,1.056,0,0,0-.959-.511,1.7,1.7,0,0,0-.943.335,2.335,2.335,0,0,0-.735.7,4.646,4.646,0,0,1,.08,1.118V26.1h-1.438V21.306a3.165,3.165,0,0,0-.32-1.645,1.055,1.055,0,0,0-.958-.511,2.147,2.147,0,0,0-1.6.847v6.1h-1.438Z" transform="translate(-53.181 -5.827)" fill="#4845d2"/><path d="M18.234,3.292a4.034,4.034,0,0,1,2.233,2.817l.9,4.223a11.634,11.634,0,0,1,.094,4.347q.09.014.181.023a11.517,11.517,0,0,0,.231-3.793l-.451-4.294a3.925,3.925,0,0,0-2.7-3.327q-.106-.006-.213-.006Q18.368,3.283,18.234,3.292ZM18,3.315a3.92,3.92,0,0,1,2.355,2.818l.9,4.223a11.518,11.518,0,0,1,.093,4.3q-.074-.014-.148-.031a11.634,11.634,0,0,0-.508-4.794L19.354,5.728a4.027,4.027,0,0,0-1.911-2.3A3.9,3.9,0,0,1,18,3.315Zm.016-.119q.127-.015.256-.023a3.9,3.9,0,0,0-.494-.064Q17.9,3.149,18.014,3.2Zm-.7-.09a3.916,3.916,0,0,1,.459.126,4.012,4.012,0,0,0-.483.119,4.064,4.064,0,0,0-.456-.191q.132-.023.267-.037Q17.213,3.111,17.319,3.106Zm.009-.117a4.019,4.019,0,0,1,1.411.184,4.041,4.041,0,0,1,3.806,4.034v4.318a11.634,11.634,0,0,1-.448,3.2h3.512a4.043,4.043,0,0,1,3.7,5.659,4.019,4.019,0,0,1-.473,1.341,4.019,4.019,0,0,1-.611,1.285,4.019,4.019,0,0,1-.741,1.213,4.018,4.018,0,0,1-.865,1.13,4.02,4.02,0,0,1-.978,1.033,4.019,4.019,0,0,1-1.081.925,4.019,4.019,0,0,1-1.171.807,4.02,4.02,0,0,1-1.249.68,4.02,4.02,0,0,1-1.313.546,4.02,4.02,0,0,1-1.363.406,4.02,4.02,0,0,1-1.4.261,4.019,4.019,0,0,1-1.418.113,4.019,4.019,0,0,1-1.422-.035,4.018,4.018,0,0,1-1.41-.184,4.041,4.041,0,0,1-3.806-4.034v-3.6a11.634,11.634,0,0,1,.678-3.915H6.948a4.043,4.043,0,0,1-3.7-5.658,4.019,4.019,0,0,1,.473-1.342,4.019,4.019,0,0,1,.611-1.284A4.018,4.018,0,0,1,5.07,8.854a4.018,4.018,0,0,1,.864-1.129,4.019,4.019,0,0,1,.977-1.032,4.019,4.019,0,0,1,1.08-.925A4.019,4.019,0,0,1,9.163,4.96a4.018,4.018,0,0,1,1.25-.68,4.019,4.019,0,0,1,1.313-.546,4.019,4.019,0,0,1,1.363-.406,4.019,4.019,0,0,1,1.4-.261,4.019,4.019,0,0,1,1.418-.113A4.019,4.019,0,0,1,17.328,2.989Zm-.963.037a3.9,3.9,0,0,1,.5.012q-.128.021-.252.049Q16.488,3.053,16.364,3.026Zm-.916.025a3.9,3.9,0,0,0-.5.04q.126.014.251.035Q15.323,3.085,15.448,3.051Zm-.011.123q.129-.037.262-.065.1-.022.21-.039a3.912,3.912,0,0,1,.469.077,4.012,4.012,0,0,0-.467.169A4.062,4.062,0,0,0,15.437,3.175Zm-.46.036a3.912,3.912,0,0,0-.475-.028q-.1.027-.2.06-.129.042-.253.092a4.062,4.062,0,0,1,.486.092A4.012,4.012,0,0,1,14.978,3.211Zm-.286.261a3.9,3.9,0,0,1,.52-.226,3.946,3.946,0,0,1,.547.14,4.017,4.017,0,0,0-.512.3A4.062,4.062,0,0,0,14.692,3.472Zm-.305.041a3.942,3.942,0,0,0-.558-.082,3.9,3.9,0,0,0-.494.279,4.061,4.061,0,0,1,.574.151A4.019,4.019,0,0,1,14.387,3.513Zm-.352.393a3.9,3.9,0,0,1,.513-.354,3.946,3.946,0,0,1,.589.208,4.053,4.053,0,0,0-.5.434A4.033,4.033,0,0,0,14.035,3.906Zm-.1.086a3.931,3.931,0,0,0-.472.491,4.012,4.012,0,0,1,.637.388,4.066,4.066,0,0,1,.454-.591A3.916,3.916,0,0,0,13.933,3.992Zm-.126-.043a4.05,4.05,0,0,0-.454.484,4.033,4.033,0,0,0-.627-.223A3.9,3.9,0,0,1,13.2,3.8,3.944,3.944,0,0,1,13.807,3.949Zm-.637-.267a4.006,4.006,0,0,1,.422-.262,3.913,3.913,0,0,0-.475.022q-.1.038-.2.082-.124.055-.242.118A4.061,4.061,0,0,1,13.17,3.682Zm-.7.076a3.942,3.942,0,0,1,.564.023,4.022,4.022,0,0,0-.439.4,4.059,4.059,0,0,0-.586-.09A3.907,3.907,0,0,1,12.472,3.758Zm-.034-.115q.11-.066.225-.125a3.9,3.9,0,0,0-.477.142Q12.311,3.648,12.437,3.643Zm-.672.2a3.912,3.912,0,0,1,.47-.072,4.008,4.008,0,0,0-.392.3,4.063,4.063,0,0,0-.494.011q.111-.075.229-.142Q11.671,3.892,11.765,3.844Zm-.444.124a3.9,3.9,0,0,0-.46.191q.124-.026.249-.044Q11.213,4.039,11.321,3.968Zm-.4.3a4.018,4.018,0,0,0-.358.344,4.063,4.063,0,0,0-.49.063q.1-.086.212-.166.087-.063.176-.121A3.912,3.912,0,0,1,10.923,4.265Zm.233-.039a3.908,3.908,0,0,0-.425.375,4.06,4.06,0,0,1,.592.028,4.021,4.021,0,0,1,.4-.439A3.942,3.942,0,0,0,11.157,4.226Zm.728-.031a3.9,3.9,0,0,0-.428.453A4.032,4.032,0,0,1,12.1,4.8a4.048,4.048,0,0,1,.4-.528A3.945,3.945,0,0,0,11.885,4.2Zm.749.11a3.933,3.933,0,0,0-.418.538,4.011,4.011,0,0,1,.674.319,4.064,4.064,0,0,1,.39-.636A3.918,3.918,0,0,0,12.634,4.306Zm.754.271a3.947,3.947,0,0,0-.4.647,4.068,4.068,0,0,1,.547.415l.14.126a4.04,4.04,0,0,1,.361-.794A3.9,3.9,0,0,0,13.388,4.577Zm.742.465a3.922,3.922,0,0,0-.359.808l.75.675a4.011,4.011,0,0,1,.246-.856l-.162-.18A3.947,3.947,0,0,0,14.13,5.042Zm.723.723a3.9,3.9,0,0,0-.23.852l2.122,1.911a11.637,11.637,0,0,1,3.474,5.712l.032.018A11.521,11.521,0,0,0,17.494,8.7Zm5.529,8.564a11.637,11.637,0,0,0-2.8-5.708L14.9,5.646a3.923,3.923,0,0,1,.441-.766,3.95,3.95,0,0,1,.426.495l2.538,3.493a11.52,11.52,0,0,1,2.129,5.487Zm-.1.076-.019-.01q.02.08.038.161l.007.006Q20.291,14.483,20.278,14.4Zm.16.259q-.015-.1-.031-.193l.043.02q.01.1.018.194Zm-.362-.513a11.521,11.521,0,0,0-3.408-5.537L14.6,6.756a3.969,3.969,0,0,0-.026.451v.351l1.326.964a11.637,11.637,0,0,1,4.162,5.623Zm-.238-.3a11.521,11.521,0,0,0-4-5.233L14.579,7.7v.62l.491.283A11.637,11.637,0,0,1,19.837,13.85ZM14.463,8.255V7.618l-.872-.633a3.974,3.974,0,0,0,.022.451l.037.349Zm-.8-.327.8.461v.485l-.216-.1-.518-.23Zm-.139-.214L13.5,7.448a4.076,4.076,0,0,1-.021-.547L12.644,6.3a3.9,3.9,0,0,0-.047.881Zm-.918-.4.933.539.067.634-.858-.382-.073-.344A3.979,3.979,0,0,1,12.607,7.318Zm-.13-.209a4.01,4.01,0,0,1,.063-.888l-.2-.142a3.949,3.949,0,0,0-.558-.339A3.921,3.921,0,0,0,11.6,6.6Zm-.884-.376.892.515a4.075,4.075,0,0,0,.078.542l.056.261-.98-.436A3.9,3.9,0,0,1,11.593,6.732Zm-.1-.192a4.038,4.038,0,0,1,.188-.852,3.894,3.894,0,0,0-.717-.25,3.948,3.948,0,0,0-.255.715,4.067,4.067,0,0,1,.622.292Zm-.811-.272a3.951,3.951,0,0,1,.59.279l.209.121a4.009,4.009,0,0,0,.031.89l-.921-.41A3.92,3.92,0,0,1,10.682,6.268ZM10.6,6.115a4.067,4.067,0,0,1,.249-.7,3.918,3.918,0,0,0-.678-.082,3.935,3.935,0,0,0-.3.613A4.009,4.009,0,0,1,10.6,6.115Zm-.766-.06a3.894,3.894,0,0,1,.739.174,4.041,4.041,0,0,0-.1.867L10.3,7.019a4.067,4.067,0,0,0-.649-.226A3.947,3.947,0,0,1,9.833,6.055Zm-.078-.126a4.048,4.048,0,0,1,.282-.6,3.945,3.945,0,0,0-.623.05,3.906,3.906,0,0,0-.324.532A4.031,4.031,0,0,1,9.756,5.929Zm-.723.1a3.918,3.918,0,0,1,.683.011,4.067,4.067,0,0,0-.175.725,4.009,4.009,0,0,0-.739-.1A3.937,3.937,0,0,1,9.033,6.03Zm-.076-.11a4.019,4.019,0,0,1,.3-.512,3.941,3.941,0,0,0-.544.152,3.907,3.907,0,0,0-.337.455A4.06,4.06,0,0,1,8.956,5.92Zm-.671.237A3.947,3.947,0,0,1,8.9,6.042a4.054,4.054,0,0,0-.218.626,4.031,4.031,0,0,0-.663.052A3.893,3.893,0,0,1,8.286,6.157Zm-.076-.1a4.009,4.009,0,0,1,.279-.411,3.905,3.905,0,0,0-.425.214q-.075.075-.147.154-.091.1-.174.206A4.063,4.063,0,0,1,8.209,6.058ZM7.6,6.412A3.945,3.945,0,0,1,8.127,6.2a4.014,4.014,0,0,0-.24.54,4.062,4.062,0,0,0-.572.156A3.914,3.914,0,0,1,7.6,6.412Zm-.078-.091q.073-.1.154-.205a3.9,3.9,0,0,0-.378.324Q7.411,6.376,7.524,6.321Zm-.532.457a3.913,3.913,0,0,1,.4-.257,4.014,4.014,0,0,0-.234.438,4.062,4.062,0,0,0-.446.211q.071-.113.151-.223Q6.925,6.86,6.992,6.778Zm-.356.294a3.9,3.9,0,0,0-.342.361q.1-.074.21-.141Q6.567,7.18,6.636,7.071ZM6.394,7.5a3.912,3.912,0,0,0-.371.3q-.058.089-.112.182-.068.117-.127.237a4.052,4.052,0,0,1,.422-.256A4.011,4.011,0,0,1,6.394,7.5Zm-.237.619a3.951,3.951,0,0,0-.47.312,3.907,3.907,0,0,0-.18.538A4.059,4.059,0,0,1,6.034,8.7,4.019,4.019,0,0,1,6.157,8.124Zm0,.528A3.9,3.9,0,0,1,6.3,8.045a3.953,3.953,0,0,1,.577-.24,4.051,4.051,0,0,0-.083.658A4.033,4.033,0,0,0,6.158,8.652Zm-.141.184a3.948,3.948,0,0,0-.548.3,3.9,3.9,0,0,0-.08.618A4.028,4.028,0,0,1,6,9.5,4.05,4.05,0,0,1,6.018,8.836Zm.1.628a3.932,3.932,0,0,1,.022-.681,3.912,3.912,0,0,1,.652-.2,4.065,4.065,0,0,0,.058.743A4.008,4.008,0,0,0,6.118,9.464Zm-.105.154a3.921,3.921,0,0,0-.628.268,3.932,3.932,0,0,0,.049.679,4.007,4.007,0,0,1,.714-.214A4.066,4.066,0,0,1,6.013,9.618Zm.25.712a3.947,3.947,0,0,1-.137-.747,3.892,3.892,0,0,1,.745-.142,4.038,4.038,0,0,0,.263.831H6.948A4.073,4.073,0,0,0,6.263,10.33Zm-.081.133a3.9,3.9,0,0,0-.726.219,3.916,3.916,0,0,0,1.893,2.663L11.087,15.5a3.669,3.669,0,0,1,.725.549q.065-.1.131-.2a3.555,3.555,0,0,0-.788-.789L7.662,12.522A4.023,4.023,0,0,1,6.182,10.463Zm5.83,5.283a3.67,3.67,0,0,0-.789-.78L7.731,12.428A3.907,3.907,0,0,1,6.3,10.442a3.949,3.949,0,0,1,.651-.054h.241a4.028,4.028,0,0,0,.941,1.256l3.209,2.889a3.555,3.555,0,0,1,.795,1.039Q12.072,15.659,12.012,15.746Zm0,.2q-.06.092-.119.185l.057.06q.05-.093.1-.186Zm.1-.054-.034-.05.106-.155.021.046Q12.164,15.817,12.119,15.9Zm.006.227q-.045.082-.089.165l.039.046q.037-.084.075-.168Zm.085-.084-.02-.033.078-.135.01.027Zm.01.255-.063.143.023.03q.026-.074.053-.147Zm.068-.12-.007-.013.052-.111v0Zm.016.292-.04.116.008.012.034-.124Zm-.071.278-.016-.024q-.024.074-.048.149l.026.028Q12.213,16.82,12.232,16.744Zm.057.257q.014-.06.028-.119l0,0q-.011.064-.021.127Zm-.126.032L12.129,17q-.027.09-.053.18l.048.037Q12.143,17.123,12.163,17.034Zm.062.263q.016-.077.032-.153l.018.022q-.011.078-.021.156Zm-.127.045-.056-.044q-.029.106-.056.213l.072.04Q12.077,17.445,12.1,17.341Zm.068.271q.016-.092.034-.185l.038.034q-.011.091-.02.183Zm-.128.059-.08-.045q-.03.124-.057.249l.1.035Q12.018,17.791,12.038,17.671Zm.074.282q.016-.109.033-.217l.06.038q-.009.106-.017.211Zm-.127.075-.108-.039q-.03.145-.056.29l.13.022Q11.966,18.165,11.984,18.028Zm.08.3q.014-.127.031-.253l.084.036q-.007.121-.012.242Zm-.126.092-.138-.024a11.52,11.52,0,0,0,.4,5.494l1.112,3.424A3.913,3.913,0,0,0,15.272,29.6a3.9,3.9,0,0,0,.575-.24,4.022,4.022,0,0,1-1.5-1.75l-1.464-3.289A11.637,11.637,0,0,1,11.938,18.417ZM15.964,29.3a3.906,3.906,0,0,1-1.509-1.734l-1.464-3.289a11.52,11.52,0,0,1-.939-5.832l.111.027a11.637,11.637,0,0,0,1.554,6.164l1.8,3.118a4.03,4.03,0,0,0,1.01,1.164A3.932,3.932,0,0,1,15.964,29.3Zm0,.134a4.026,4.026,0,0,1-.54.24,3.954,3.954,0,0,0,.529.2,3.9,3.9,0,0,0,.541-.17A4.058,4.058,0,0,1,15.961,29.431Zm.682.2a3.946,3.946,0,0,1-.564-.268,4.052,4.052,0,0,0,.544-.379,4.031,4.031,0,0,0,.567.348A3.905,3.905,0,0,1,16.643,29.633Zm0,.125a4.025,4.025,0,0,1-.467.169,3.918,3.918,0,0,0,.469.077q.1-.016.21-.039.133-.028.261-.065A4.075,4.075,0,0,1,16.646,29.759Zm.7.07a3.941,3.941,0,0,1-.547-.14,4.025,4.025,0,0,0,.512-.3,4.059,4.059,0,0,0,.554.21A3.9,3.9,0,0,1,17.345,29.829Zm.009.119q-.121.041-.245.075a3.909,3.909,0,0,0,.5-.04Q17.479,29.97,17.355,29.948Zm.7-.057a3.91,3.91,0,0,1-.475-.028,4.006,4.006,0,0,0,.447-.216,4.066,4.066,0,0,0,.485.092q-.124.05-.253.092Q18.156,29.864,18.054,29.892Zm.46-.029A3.893,3.893,0,0,0,19,29.771q-.127,0-.253-.009Q18.635,29.816,18.514,29.863Zm.451-.208a3.9,3.9,0,0,0,.475-.022q.1-.038.2-.082.124-.055.242-.118a4.078,4.078,0,0,1-.492-.041A4.025,4.025,0,0,1,18.965,29.655Zm.556-.362a3.94,3.94,0,0,0,.564.023,3.908,3.908,0,0,0,.462-.329,4.064,4.064,0,0,1-.586-.09A4.019,4.019,0,0,1,19.521,29.293Zm.309-.428a3.908,3.908,0,0,1-.473.406,3.945,3.945,0,0,1-.608-.145,4.051,4.051,0,0,0,.454-.483A4.03,4.03,0,0,0,19.83,28.866Zm.222-.066a3.95,3.95,0,0,0,.62.081,3.9,3.9,0,0,0,.428-.453,4.033,4.033,0,0,1-.646-.156A4.045,4.045,0,0,1,20.052,28.8Zm.288-.567a3.933,3.933,0,0,1-.418.538,3.918,3.918,0,0,1-.646-.221,4.066,4.066,0,0,0,.39-.635A4,4,0,0,0,20.34,28.232Zm.175-.062a3.923,3.923,0,0,0,.665.152,3.935,3.935,0,0,0,.359-.578,4.014,4.014,0,0,1-.7-.247A4.064,4.064,0,0,1,20.515,28.169Zm.216-.723a3.949,3.949,0,0,1-.329.685,3.9,3.9,0,0,1-.686-.323,4.033,4.033,0,0,0,.276-.827l.151.11A4.074,4.074,0,0,0,20.732,27.446Zm.144-.06a3.9,3.9,0,0,0,.717.25,3.953,3.953,0,0,0,.255-.715,4.068,4.068,0,0,1-.622-.292l-.162-.094A4.034,4.034,0,0,1,20.876,27.387Zm.078-.915a3.919,3.919,0,0,1-.183.865A3.957,3.957,0,0,1,20.212,27l-.194-.141a4.011,4.011,0,0,0,.063-.888Zm.122-.064.208.12a3.947,3.947,0,0,0,.591.279,3.915,3.915,0,0,0,.092-.879l-.921-.41A4.013,4.013,0,0,1,21.075,26.408Zm-.157-.946a3.9,3.9,0,0,1,.045.881l-.891-.515a4.074,4.074,0,0,0-.078-.542l-.055-.26Zm.1-.081.94.419a3.9,3.9,0,0,0-.137-.872l-1.02-.331.082.253A4.086,4.086,0,0,1,21.022,25.381Zm-.353-.829.108.333a3.959,3.959,0,0,1,.115.438l-.984-.438-.132-.623.015,0Zm.092-.092,1.025.333a3.96,3.96,0,0,0-.16-.423l-.143-.32-.9-.192-.016,0Zm-.328-.635.192.591-.8-.259-.079-.026-.109-.515Q20.031,23.734,20.433,23.825Zm.09-.1.081.018.821.174-.253-.567q-.409-.048-.812-.125ZM20.23,23.2l.161.5q-.395-.092-.78-.21l-.1-.454Q19.869,23.127,20.23,23.2Zm.089-.1q.4.078.8.128l-.212-.477q-.367-.035-.729-.093Zm-.272-.463.142.437q-.354-.074-.7-.169l-.084-.4Q19.723,22.581,20.047,22.637Zm.089-.1q.355.058.715.095l-.689-1.548a3.672,3.672,0,0,1-.252-2.182l-.017.021a3.555,3.555,0,0,0-.116,2.506Zm-.061-3.841a3.556,3.556,0,0,0,.193,2.341l.716,1.607q.4.036.807.044L20.615,20.65a3.672,3.672,0,0,1-.487-2.027Zm.183-.241a3.556,3.556,0,0,0,.458,2.14l1.209,2.094h.922l-1.826-2.513a3.672,3.672,0,0,1-.686-1.828Zm.183-.254a3.556,3.556,0,0,0,.674,1.908l1.875,2.581h1.077a3.965,3.965,0,0,0-.283-.353l-2.409-2.675a3.672,3.672,0,0,1-.841-1.6Zm.183-.269a3.555,3.555,0,0,0,.838,1.652l2.409,2.675a4.081,4.081,0,0,1,.338.431h1.029a3.916,3.916,0,0,0-.889-1.169l-2.675-2.409a3.671,3.671,0,0,1-.944-1.344Zm.054-.3-.085.134v-.009l.079-.145Zm.128.013a3.556,3.556,0,0,0,.945,1.38l2.675,2.409a4.028,4.028,0,0,1,.941,1.256h.241a3.955,3.955,0,0,0,.651-.054,3.907,3.907,0,0,0-1.434-1.987l-2.912-2.116a3.67,3.67,0,0,1-.99-1.081Q20.866,17.547,20.806,17.643Zm.05-.308q-.049.084-.1.168l-.011-.035q.045-.087.089-.175Zm.134,0a3.554,3.554,0,0,0,.991,1.1l2.912,2.116a4.023,4.023,0,0,1,1.481,2.059,3.894,3.894,0,0,0,.727-.219,3.916,3.916,0,0,0-1.893-2.662l-3.118-1.8a3.671,3.671,0,0,1-.976-.818Q21.054,17.224,20.99,17.335Zm.046-.32q-.055.1-.111.2l-.027-.053q.049-.1.1-.2ZM21.174,17a3.555,3.555,0,0,0,.974.828l3.118,1.8a4.031,4.031,0,0,1,1.944,2.716,3.912,3.912,0,0,0,.6-.332,3.923,3.923,0,0,0-2.313-3.234L22.2,17.316a3.669,3.669,0,0,1-.9-.568Q21.242,16.876,21.174,17Zm.042-.335q-.059.118-.121.235l-.048-.065q.052-.117.1-.234Zm.143-.028a3.556,3.556,0,0,0,.892.569l3.289,1.464a4.039,4.039,0,0,1,2.375,3.264,3.944,3.944,0,0,0,.474-.406A3.926,3.926,0,0,0,25.677,17.8l-3.424-1.112a3.674,3.674,0,0,1-.755-.344Q21.431,16.495,21.36,16.64Zm.039-.354q-.062.137-.128.273l-.074-.071q.054-.133.1-.267Zm.147-.045a3.552,3.552,0,0,0,.743.34l3.424,1.112A4.042,4.042,0,0,1,28.5,21.412a3.941,3.941,0,0,0,.35-.442,3.925,3.925,0,0,0-3.1-4.155l-3.521-.749a3.661,3.661,0,0,1-.548-.162Q21.62,16.074,21.545,16.241Zm.035-.38q-.065.16-.135.317l-.1-.07q.055-.152.107-.305Q21.514,15.834,21.581,15.862Zm.151-.065a3.561,3.561,0,0,0,.529.156l3.521.749a4.042,4.042,0,0,1,3.2,4.069,3.92,3.92,0,0,0,.218-.422q.017-.1.028-.212a3.925,3.925,0,0,0-3.493-4.313l-3.58-.376q-.14-.015-.277-.04Q21.808,15.6,21.732,15.8Zm.031-.413q-.066.186-.139.37-.07-.029-.138-.061.056-.174.107-.35Q21.677,15.365,21.763,15.384Zm.154-.088q.124.022.25.035l3.58.376a4.041,4.041,0,0,1,3.614,4.208,3.928,3.928,0,0,0-3.752-5.078H22.063Q21.994,15.068,21.916,15.3Zm.025-.458q-.066.219-.14.436-.089-.019-.177-.042.056-.2.1-.4Q21.835,14.835,21.942,14.837Zm.034-.115a11.519,11.519,0,0,0,.452-3.2V7.207a3.926,3.926,0,0,0-3.256-3.868A4.039,4.039,0,0,1,21.535,6.6l.451,4.294a11.633,11.633,0,0,1-.23,3.815Q21.865,14.721,21.976,14.722Zm-.364.095q-.087-.009-.173-.023-.032.18-.07.359.071.025.144.047Q21.566,15.009,21.612,14.817Zm-.131.494q-.069-.021-.137-.044-.035.158-.074.315l.111.059Q21.433,15.477,21.481,15.311Zm-.137.441-.1-.055q-.036.139-.076.277l.081.063Q21.3,15.9,21.344,15.752Zm-.141.4-.074-.057q-.037.122-.076.243l.055.06Q21.157,16.275,21.2,16.151Zm-.143.364-.049-.051q-.036.107-.074.213l.033.05Q21.016,16.621,21.06,16.515Zm-.145.336-.027-.039q-.034.092-.07.183l.015.033Q20.874,16.94,20.915,16.851Zm-.147.313-.009-.02-.064.153,0,.009Zm-.014-.324q.028-.074.055-.149l-.012-.019q-.023.079-.047.159Zm.087-.322.018.032q.032-.092.063-.185l-.031-.036Q20.867,16.424,20.841,16.518Zm-.041-.3q-.019.077-.039.154l0-.009q.016-.081.03-.162Zm.126-.027.038.046q.035-.109.067-.219l-.054-.046Q20.953,16.079,20.926,16.189Zm-.048-.308q-.021.1-.043.19l-.021-.03q.016-.1.03-.193Zm.127-.04.061.054q.036-.127.069-.255l-.08-.049Q21.032,15.715,21.006,15.84Zm-.055-.318q-.021.113-.044.225l-.042-.042q.015-.112.028-.223Zm.128-.055.087.054q.036-.147.069-.294l-.109-.044Q21.1,15.325,21.078,15.467Zm-.063-.331q-.02.131-.042.261l-.066-.047q.013-.127.024-.254Zm.127-.07.116.047q.035-.169.066-.338l-.141-.03Q21.165,14.9,21.142,15.065Zm-.073-.349q-.017.15-.038.3l-.092-.045q.01-.143.017-.287Zm.012-.117a11.519,11.519,0,0,0-.5-4.729L19.244,5.764a3.912,3.912,0,0,0-1.959-2.288,3.9,3.9,0,0,0-.575.24,4.022,4.022,0,0,1,1.5,1.75L19.963,9.41a11.636,11.636,0,0,1,1,5.155Zm-.235-.072a11.52,11.52,0,0,0-.99-5.07L18.1,5.513a3.907,3.907,0,0,0-1.508-1.734,3.933,3.933,0,0,0-.563.382,4.029,4.029,0,0,1,1.01,1.164L19.2,9.064a11.636,11.636,0,0,1,1.553,5.428Zm0,.121-.088-.031q0,.127,0,.255l.071.04Q20.837,14.78,20.842,14.648Zm-.024.391-.062-.034q0,.113,0,.225l.047.037Q20.81,15.153,20.819,15.039Zm-.034.364-.038-.029q0,.1-.01.2l.024.027Q20.774,15.5,20.784,15.4Zm-.043.342-.015-.016q-.006.082-.013.164l.005.008Q20.73,15.824,20.741,15.745Zm-.114-.3q0-.079.007-.159l-.017-.014q0,.083,0,.165Zm-.017-.333.027.025q0-.1,0-.2l-.041-.025Q20.607,15.011,20.611,15.109Zm-.132-.274q.006.079.01.158l-.007-.007q-.01-.082-.021-.164Zm.112-.065.05.032q0-.115,0-.23l-.065-.027Q20.582,14.657,20.59,14.769Zm-.032-.357.075.032A11.52,11.52,0,0,0,19.1,9.122L16.939,5.382a3.913,3.913,0,0,0-1-1.145,3.947,3.947,0,0,0-.524.55,4.069,4.069,0,0,1,.449.519L18.4,8.8A11.636,11.636,0,0,1,20.558,14.413ZM15.329,4.707a4.062,4.062,0,0,1,.514-.541,3.92,3.92,0,0,0-.586-.35,3.926,3.926,0,0,0-.521.439A4.01,4.01,0,0,1,15.329,4.707Zm-.071.093a3.9,3.9,0,0,0-.6-.459,3.949,3.949,0,0,0-.464.6,4.072,4.072,0,0,1,.5.47l.126.14A4.039,4.039,0,0,1,15.259,4.8Zm.109-1.059a4.036,4.036,0,0,1,.567.348,4.05,4.05,0,0,1,.544-.379,3.943,3.943,0,0,0-.564-.268A3.9,3.9,0,0,0,15.368,3.741Zm.7-.363a4.058,4.058,0,0,1,.53.267,4.017,4.017,0,0,1,.54-.241,3.944,3.944,0,0,0-.529-.2A3.907,3.907,0,0,0,16.066,3.378Zm3.472,10.117a11.522,11.522,0,0,0-4.526-4.789l-.433-.25v.473A11.637,11.637,0,0,1,19.538,13.495Zm-.335-.322a11.521,11.521,0,0,0-4.624-4.115v.406A11.638,11.638,0,0,1,19.2,13.173Zm-4.74-3.759V9q-.131-.062-.263-.121l-.456-.2.049.471Q14.133,9.271,14.463,9.413Zm-.656-.137q.333.122.656.263V9.9q-.3-.118-.614-.218Zm-.135-.171-.051-.482-.842-.375.129.606.539.175Zm-.736-.12.475.154q.138.045.275.093l.043.409q-.343-.107-.694-.193Zm-.155-.172-.133-.623-.984-.438a3.95,3.95,0,0,0,.115.437l.108.334Zm-.849-.154.877.285.1.474-.232-.052-.554-.118Zm-.181-.181-.083-.254a4.078,4.078,0,0,1-.134-.531l-.941-.419a3.9,3.9,0,0,0,.137.872Zm-.98-.2,1.025.333.2.606-.919-.2-.143-.321A3.964,3.964,0,0,1,10.77,8.282ZM10.6,8.1a4.012,4.012,0,0,1-.123-.882l-.22-.1a3.952,3.952,0,0,0-.616-.216,3.922,3.922,0,0,0,0,.884ZM9.657,7.92l.979.318a4.08,4.08,0,0,0,.189.514L10.933,9,9.884,8.773A3.892,3.892,0,0,1,9.657,7.92Zm-.138-.167a4.04,4.04,0,0,1,.007-.872,3.9,3.9,0,0,0-.753-.1,3.955,3.955,0,0,0-.1.753A4.068,4.068,0,0,1,9.34,7.7Zm-.85-.1a3.947,3.947,0,0,1,.635.15l.23.075a4.012,4.012,0,0,0,.215.864l-.987-.21A3.922,3.922,0,0,1,8.669,7.656Zm-.113-.132a4.064,4.064,0,0,1,.1-.739,3.917,3.917,0,0,0-.68.061,3.935,3.935,0,0,0-.163.661A4.01,4.01,0,0,1,8.556,7.524Zm-.762.1a3.891,3.891,0,0,1,.759.016,4.039,4.039,0,0,0,.085.868l-.184-.039a4.065,4.065,0,0,0-.682-.086A3.95,3.95,0,0,1,7.794,7.624Zm-.1-.107a4.045,4.045,0,0,1,.151-.646,3.946,3.946,0,0,0-.6.178,3.9,3.9,0,0,0-.206.588A4.034,4.034,0,0,1,7.692,7.517Zm-.686.25a3.926,3.926,0,0,1,.67-.132,4.066,4.066,0,0,0-.02.745,4.012,4.012,0,0,0-.743.061A3.932,3.932,0,0,1,7.006,7.766Zm-.1.793a3.949,3.949,0,0,0,.058.757,4.072,4.072,0,0,1,.687.014l.186.02A4.041,4.041,0,0,1,7.665,8.5,3.892,3.892,0,0,0,6.909,8.56Zm.873-.06a3.923,3.923,0,0,0,.184.864l1,.105a4.011,4.011,0,0,1-.3-.837l-.236-.05A3.956,3.956,0,0,0,7.782,8.5Zm1.01.16a3.9,3.9,0,0,0,.315.824l1.067.112-.133-.231A4.071,4.071,0,0,1,9.8,8.874ZM9.938,8.9a3.969,3.969,0,0,0,.2.4l.176.3.934.1-.259-.582Zm1.194.254.252.566.564.059.236.027-.15-.461Zm1.033.219.146.45q.358.049.711.12l-.086-.4q-.141-.034-.283-.064Zm.9.2.084.4q.32.068.634.153l-.038-.357Q13.405,9.661,13.061,9.575Zm.8.232.037.351q.284.08.564.175v-.31Q14.166,9.907,13.862,9.807Zm.717.263v.3a11.638,11.638,0,0,1,3.858,2.262A11.523,11.523,0,0,0,14.579,10.07Zm3.438,2.361A11.522,11.522,0,0,0,14.579,10.5v.258A11.638,11.638,0,0,1,18.017,12.431ZM14.463,10.72v-.264q-.273-.093-.551-.173l.032.3Q14.205,10.646,14.463,10.72Zm-.506-.013q.255.061.506.134v.684a3.556,3.556,0,0,1-.732,2.161,3.672,3.672,0,0,0,.333-1.956Zm-.132-.15-.032-.308q-.307-.085-.62-.153l.073.346Q13.537,10.492,13.824,10.557Zm-.553.007q.285.05.566.115l.112,1.063a3.556,3.556,0,0,1-.5,2.226,3.671,3.671,0,0,0,.127-1.981Zm-.149-.143-.075-.351q-.346-.071-.7-.121l.125.386Q12.8,10.369,13.122,10.421Zm-.607.035q.318.035.633.087l.312,1.469a3.556,3.556,0,0,1-.263,2.257l0,0a3.672,3.672,0,0,0-.082-1.977Zm-.165-.133-.127-.391q-.143-.019-.287-.034l-.5-.052.192.432Q11.992,10.289,12.35,10.323Zm-.667.073q.354.013.706.047L13,12.331a3.556,3.556,0,0,1,.023,2.124l-.039.043a3.672,3.672,0,0,0-.3-1.848Zm-.181-.121-.2-.443-.917-.1.31.537h.567Zm-.737.114h.5q.145,0,.289,0L12.581,12.7a3.556,3.556,0,0,1,.271,1.955l-.063.074a3.671,3.671,0,0,0-.489-1.679Zm-.2-.116-.319-.552L9.174,9.608a3.963,3.963,0,0,0,.245.381l.206.284Zm-.855.116h.922L12.2,13.1a3.556,3.556,0,0,1,.476,1.755l-.082.1a3.671,3.671,0,0,0-.638-1.478Zm-.228-.116-.157-.216a4.073,4.073,0,0,1-.292-.464L8.009,9.485a3.9,3.9,0,0,0,.4.787Zm-.993.116H9.566l2.3,3.161a3.555,3.555,0,0,1,.635,1.531l-.1.124a3.671,3.671,0,0,0-.741-1.255L8.772,10.741A3.973,3.973,0,0,1,8.488,10.388Zm-.218-.116a4.011,4.011,0,0,1-.39-.8l-.239-.025a3.955,3.955,0,0,0-.653-.015,3.921,3.921,0,0,0,.274.84Zm-.953.116h1.03a4.087,4.087,0,0,0,.338.431l2.889,3.209a3.554,3.554,0,0,1,.742,1.29l-.109.148a3.672,3.672,0,0,0-.793-1.019L8.207,11.557A3.913,3.913,0,0,1,7.317,10.388Zm4.95,5.195.016.035.083-.133-.008-.028Zm.178-.243,0,.014.071-.108v0Zm-.041.3-.064.1.006.013.059-.114Zm-.03,1.652q-.008.061-.016.122l.01.01q0-.064.007-.129Zm-.012.287-.02-.02q-.009.078-.016.155l.031.022Q12.36,17.659,12.363,17.581Zm.109.24q0-.061,0-.122l0,0q0,.064.006.128Zm-.117.058-.041-.029q-.008.094-.014.187l.054.026Q12.355,17.97,12.356,17.878Zm.116.244q0-.078,0-.156l.022.018q.005.078.012.157Zm-.115.071-.063-.032q-.006.11-.01.22l.079.024Q12.358,18.3,12.356,18.193Zm.123.251q0-.094-.005-.188l.044.025q.009.092.018.183Zm-.113.084-.088-.027a11.521,11.521,0,0,0,1.539,6.074l1.8,3.118a3.913,3.913,0,0,0,1,1.146,3.947,3.947,0,0,0,.524-.55,4.065,4.065,0,0,1-.449-.52l-2.116-2.912A11.637,11.637,0,0,1,12.366,18.528ZM17.214,28.2a3.949,3.949,0,0,1-.426-.5l-2.116-2.912a11.521,11.521,0,0,1-2.187-6.22l.066.025a11.637,11.637,0,0,0,2.906,6.395l2.2,2.442A3.923,3.923,0,0,1,17.214,28.2Zm.014.173a4.068,4.068,0,0,1-.514.54,3.916,3.916,0,0,0,.586.35,3.93,3.93,0,0,0,.52-.439A4.009,4.009,0,0,1,17.227,28.369Zm.675.366a3.9,3.9,0,0,1-.6-.459,4.039,4.039,0,0,0,.442-.752l.125.139a4.067,4.067,0,0,0,.5.47A3.946,3.946,0,0,1,17.9,28.735Zm.02.147a4.056,4.056,0,0,1-.5.433,3.949,3.949,0,0,0,.589.208,3.9,3.9,0,0,0,.512-.354A4.033,4.033,0,0,1,17.922,28.883Zm.7.2A3.927,3.927,0,0,1,18,28.8a4.065,4.065,0,0,0,.454-.591,4.01,4.01,0,0,0,.637.387A3.934,3.934,0,0,1,18.624,29.083Zm.545-.584a3.946,3.946,0,0,0,.4-.647,4.063,4.063,0,0,1-.548-.415l-.139-.125a4.037,4.037,0,0,1-.361.794A3.891,3.891,0,0,0,19.169,28.5Zm-.742-.465a3.922,3.922,0,0,0,.359-.807l-.749-.675a4.009,4.009,0,0,1-.246.856l.161.178A3.954,3.954,0,0,0,18.427,28.034Zm-.723-.722a3.9,3.9,0,0,0,.23-.852l-1.59-1.432a11.637,11.637,0,0,1-3.624-6.364l-.046-.02a11.521,11.521,0,0,0,2.869,6.267Zm-5.046-8.8.035.015q-.014-.077-.028-.154l-.024-.016Q12.649,18.434,12.658,18.511Zm-.03-.3.012.007q-.01-.063-.02-.127l0,0Q12.622,18.15,12.627,18.211Zm.172.252q.011.06.023.12l.013.006q-.017-.062-.033-.124Zm.077.276-.026-.013a11.521,11.521,0,0,0,3.571,6.216l1.531,1.379a3.964,3.964,0,0,0,.026-.452v-.35l-.747-.543A11.637,11.637,0,0,1,12.877,18.739Zm5.1,6.635-.679-.493a11.521,11.521,0,0,1-4.28-6.065l0,0a11.637,11.637,0,0,0,4.955,5.935Zm.116.228v.266a4.075,4.075,0,0,1-.037.547l.765.689a3.9,3.9,0,0,0,.139-.871Zm.872.49-.872-.633v-.637l.014.008.8.462.037.349A3.963,3.963,0,0,1,18.966,26.092Zm.108.222a4.009,4.009,0,0,1-.155.877l.178.161a3.959,3.959,0,0,0,.52.4,3.92,3.92,0,0,0,.273-.841Zm.839.466-.833-.605a4.073,4.073,0,0,0-.021-.548l-.028-.265.929.536A3.9,3.9,0,0,1,19.913,26.78Zm.037-1.022a3.96,3.96,0,0,0-.069-.448l-.073-.343-.844-.376-.014-.006.067.634Zm-1.057-.61-.065-.618q-.374-.172-.733-.37v.526l.072.042Zm-.914-.53V24.1a11.638,11.638,0,0,1-4.715-4.983A11.521,11.521,0,0,0,17.978,24.618Zm-4.429-5.2a11.522,11.522,0,0,0,4.429,4.547V23.5A11.638,11.638,0,0,1,13.55,19.415Zm4.545,4.148v.465q.352.2.719.368l-.055-.519Q18.421,23.73,18.094,23.563Zm.651.181q-.331-.146-.651-.311v-.405q.3.138.6.26Zm.136.185.055.523.076.034.767.341-.129-.608Q19.259,24.087,18.881,23.929Zm.74.159q-.383-.132-.754-.291l-.049-.462q.342.132.694.242Zm-.136-.641-.1-.449q-.316-.089-.627-.2l.042.4Q19.14,23.336,19.485,23.447Zm-.8-.29-.042-.4q-.276-.1-.547-.21v.35Q18.385,23.036,18.683,23.157Zm-.705-.313V22.5A11.636,11.636,0,0,1,14.2,19.917,11.522,11.522,0,0,0,17.978,22.844Zm-3.409-2.729a11.523,11.523,0,0,0,3.409,2.26v-.107q0-.092,0-.183A11.638,11.638,0,0,1,14.569,20.115ZM18.1,22.126q0,.071,0,.142v.156q.264.11.534.208l-.036-.341Q18.343,22.214,18.1,22.126Zm.482.039q-.239-.075-.475-.16a3.556,3.556,0,0,1,.914-2.129,3.672,3.672,0,0,0-.45,2.182Zm.134.162.037.348q.3.106.613.194l-.083-.391Q18.994,22.41,18.713,22.327Zm.539.026q-.278-.069-.553-.151l-.016-.155a3.556,3.556,0,0,1,.669-2.474,3.672,3.672,0,0,0-.22,2.217Zm.125.03q.312.073.629.129l-.341-1.05a3.672,3.672,0,0,1-.013-2.227,3.556,3.556,0,0,0-.406,2.53Zm-.094-8.747a11.52,11.52,0,0,0-4.7-2.761v.65a3.672,3.672,0,0,1-1.076,2.6l-.049.05q-.088.13-.188.254l-.044.055q-.074.139-.16.271l-.039.06q-.059.145-.131.286l-.032.063q-.043.151-.1.3l-.025.066q-.027.155-.068.308l-.018.069q-.011.156-.036.312l-.011.07q.005.157,0,.314c0,.023,0,.047,0,.07q.022.156.03.314c0,.023,0,.046,0,.069q.038.153.063.31l.011.069q.054.148.095.3l.018.068q.069.141.125.289l.026.067q.083.133.154.274l.032.062q.1.124.183.257l.038.059q.109.113.209.237l.044.054q.121.1.233.214a11.519,11.519,0,0,0,4.129,2.651,3.672,3.672,0,0,1,1.063-2.292q.219-.219.424-.448.135-.172.263-.348t.224-.372q.1-.2.186-.4t.142-.413q.053-.212.1-.424t.054-.434q.008-.22.008-.44t-.038-.438q-.038-.216-.083-.429t-.127-.415q-.081-.2-.17-.4t-.214-.387q-.122-.182-.25-.358T19.283,13.636Zm-5.42,6.046a11.522,11.522,0,0,0,4.115,3.69v-.4A11.639,11.639,0,0,1,13.863,19.681Zm4.97-6.8a11.522,11.522,0,0,0-4.254-3.291v.353A11.639,11.639,0,0,1,18.833,12.882Zm-.184,16.333a4.055,4.055,0,0,0,.573.151,3.9,3.9,0,0,1-.493.279,3.936,3.936,0,0,1-.558-.082A4.013,4.013,0,0,0,18.649,29.215ZM6.909,7.674a4.066,4.066,0,0,0-.552.215,3.907,3.907,0,0,1,.235-.515,3.939,3.939,0,0,1,.5-.262A4.018,4.018,0,0,0,6.909,7.674ZM29.1,20.795q-.064.11-.134.215-.011.127-.031.255A3.894,3.894,0,0,0,29.1,20.795Zm-.371.882q.028-.1.05-.208.028-.133.047-.265a4.053,4.053,0,0,1-.322.374,4.023,4.023,0,0,1-.036.5A3.926,3.926,0,0,0,28.731,21.677Zm-.409.582a3.9,3.9,0,0,0,.064-.563,4.063,4.063,0,0,1-.459.375,4.016,4.016,0,0,1,0,.591A3.933,3.933,0,0,0,28.322,22.26Zm-.41.57a4.057,4.057,0,0,0,.359-.338q-.033.13-.074.259-.033.1-.071.2a3.91,3.91,0,0,1-.3.367A4.011,4.011,0,0,0,27.912,22.829Zm-.11-.06a3.9,3.9,0,0,0,.015-.623,4.031,4.031,0,0,1-.585.317,4.053,4.053,0,0,1,.056.661A3.943,3.943,0,0,0,27.8,22.77Zm-.516.489a4.059,4.059,0,0,0,.5-.325,3.916,3.916,0,0,1-.123.553,3.946,3.946,0,0,1-.435.36A4.019,4.019,0,0,0,27.285,23.259Zm-.114-.07a3.932,3.932,0,0,0-.049-.679,4.01,4.01,0,0,1-.714.214,4.066,4.066,0,0,1,.135.733A3.916,3.916,0,0,0,27.171,23.189Zm-.619.387a4.039,4.039,0,0,0,.615-.254,3.908,3.908,0,0,1-.08.618,3.946,3.946,0,0,1-.549.3A4.046,4.046,0,0,0,26.552,23.576Zm-.122-.084a3.946,3.946,0,0,0-.137-.747,4.065,4.065,0,0,1-.684.058h-.188a4.04,4.04,0,0,1,.263.831A3.9,3.9,0,0,0,26.429,23.493Zm-.724.256a4,4,0,0,0,.733-.138,3.937,3.937,0,0,1-.022.681,3.917,3.917,0,0,1-.653.2A4.063,4.063,0,0,0,25.705,23.749Zm-.138-.106a3.919,3.919,0,0,0-.274-.84H24.285a4.008,4.008,0,0,1,.39.8l.24.025A3.952,3.952,0,0,0,25.567,23.643Zm-.852.081.187.02a4.069,4.069,0,0,0,.687.014,3.952,3.952,0,0,1,.058.757,3.9,3.9,0,0,1-.756.063A4.033,4.033,0,0,0,24.716,23.724Zm-.169-.134a3.9,3.9,0,0,0-.4-.787H23.074l.157.216a4.077,4.077,0,0,1,.292.464Zm-.96.016,1,.105a3.919,3.919,0,0,1,.184.864,3.956,3.956,0,0,1-.648-.083l-.235-.05A4.007,4.007,0,0,0,23.586,23.606Zm-.2-.138a3.974,3.974,0,0,0-.245-.381l-.206-.284h-.939l.319.552Zm-1,.012,1.067.112a3.9,3.9,0,0,1,.315.824L22.757,24.2a4.073,4.073,0,0,0-.242-.492Zm-.214-.139-.311-.538q-.412-.005-.82-.04l.214.481.083.009Zm-.862.026.016,0,.918.1.175.3a3.956,3.956,0,0,1,.2.4l-1.054-.224Zm.318.713.108.243a4.072,4.072,0,0,1,.189.514l.979.318a3.894,3.894,0,0,0-.227-.853Zm1.184.252a4.009,4.009,0,0,1,.215.864l.229.074a3.953,3.953,0,0,0,.636.15,3.918,3.918,0,0,0-.093-.879Zm1.111.236a4.039,4.039,0,0,1,.084.868,3.9,3.9,0,0,0,.759.016,3.954,3.954,0,0,0,.022-.759,4.063,4.063,0,0,1-.682-.086Zm.981.128a4.066,4.066,0,0,1-.02.745,3.925,3.925,0,0,0,.67-.132,3.937,3.937,0,0,0,.093-.674A4.011,4.011,0,0,1,24.9,24.695Zm.86-.083a4.051,4.051,0,0,1-.083.658,3.942,3.942,0,0,0,.577-.24,3.906,3.906,0,0,0,.144-.606A4.038,4.038,0,0,1,25.76,24.612Zm.763-.239a4.021,4.021,0,0,1-.123.578,3.946,3.946,0,0,0,.47-.313,3.908,3.908,0,0,0,.18-.537A4.064,4.064,0,0,1,26.522,24.373Zm.668-.362a4.007,4.007,0,0,1-.138.477,3.921,3.921,0,0,0,.338-.335q.048-.094.092-.192.055-.124.1-.25A4.054,4.054,0,0,1,27.19,24.011Zm.57-.461q-.037.122-.083.242a3.888,3.888,0,0,0,.259-.424Q27.851,23.462,27.76,23.549Zm-.6,1q-.095.085-.194.163-.05.118-.108.233A3.9,3.9,0,0,0,27.159,24.548Zm-.626.725q.058-.089.111-.182.068-.118.127-.238a4.061,4.061,0,0,1-.422.257,4.012,4.012,0,0,1-.188.46A3.909,3.909,0,0,0,26.533,25.274Zm-.569.428a3.9,3.9,0,0,0,.235-.516,4.066,4.066,0,0,1-.553.215,4.026,4.026,0,0,1-.183.562A3.953,3.953,0,0,0,25.964,25.7Zm-.567.415a4.053,4.053,0,0,0,.447-.211q-.071.113-.151.223-.063.087-.13.169a3.913,3.913,0,0,1-.4.257A4.012,4.012,0,0,0,25.4,26.117Zm-.086-.091a3.9,3.9,0,0,0,.206-.588,4.04,4.04,0,0,1-.654.121,4.056,4.056,0,0,1-.151.646A3.951,3.951,0,0,0,25.311,26.026Zm-.642.306a4.06,4.06,0,0,0,.572-.156,3.9,3.9,0,0,1-.288.488,3.943,3.943,0,0,1-.524.208A4.026,4.026,0,0,0,24.669,26.332Zm-.087-.1a3.93,3.93,0,0,0,.163-.661A4.006,4.006,0,0,1,24,25.551a4.063,4.063,0,0,1-.1.739A3.916,3.916,0,0,0,24.582,26.23Zm-.708.177a4.035,4.035,0,0,0,.663-.051,3.9,3.9,0,0,1-.267.563,3.944,3.944,0,0,1-.614.115A4.047,4.047,0,0,0,23.874,26.407Zm-.091-.118a3.95,3.95,0,0,0,.1-.753,4.065,4.065,0,0,1-.669-.157l-.178-.058a4.035,4.035,0,0,1-.007.872A3.9,3.9,0,0,0,23.783,26.289Zm-.768.02a4.012,4.012,0,0,0,.739.1,3.931,3.931,0,0,1-.231.64,3.919,3.919,0,0,1-.682-.011A4.065,4.065,0,0,0,23.016,26.309Zm-.1-.143a3.921,3.921,0,0,0,0-.884l-.959-.312a4.012,4.012,0,0,1,.123.882l.22.1A3.954,3.954,0,0,0,22.917,26.166Zm-.835-.186.171.076a4.067,4.067,0,0,0,.649.226,3.948,3.948,0,0,1-.179.738,3.9,3.9,0,0,1-.739-.174A4.036,4.036,0,0,0,22.082,25.98Zm-.125.98a4.066,4.066,0,0,1-.249.7,3.921,3.921,0,0,0,.678.082,3.929,3.929,0,0,0,.3-.613A4.01,4.01,0,0,1,21.957,26.96Zm.844.187a4.053,4.053,0,0,1-.282.6,3.947,3.947,0,0,0,.623-.05,3.9,3.9,0,0,0,.324-.532A4.036,4.036,0,0,1,22.8,27.147Zm.8.008a4.024,4.024,0,0,1-.3.512,3.939,3.939,0,0,0,.543-.152,3.9,3.9,0,0,0,.337-.455A4.058,4.058,0,0,1,23.6,27.155Zm.747-.138a4.02,4.02,0,0,1-.279.411,3.905,3.905,0,0,0,.425-.213q.075-.075.147-.155.091-.1.173-.206A4.067,4.067,0,0,1,24.346,27.017Zm.684-.262q-.073.1-.154.205a3.9,3.9,0,0,0,.378-.324Q25.145,26.7,25.031,26.755Zm-.881.764q-.116.051-.235.095-.084.1-.175.188A3.91,3.91,0,0,0,24.15,27.519Zm-.819.5q.083-.067.162-.139.1-.091.194-.187a4.074,4.074,0,0,1-.48.113,4.007,4.007,0,0,1-.32.38A3.906,3.906,0,0,0,23.331,28.015Zm-.673.231a3.9,3.9,0,0,0,.383-.418,4.06,4.06,0,0,1-.592.034,4.018,4.018,0,0,1-.347.478A3.953,3.953,0,0,0,22.659,28.246Zm-.667.22a4.072,4.072,0,0,0,.49-.063q-.1.086-.213.166-.087.063-.176.121a3.911,3.911,0,0,1-.46.12A4.017,4.017,0,0,0,21.992,28.466Zm-.054-.113a3.9,3.9,0,0,0,.378-.5,4.029,4.029,0,0,1-.659-.087,4.05,4.05,0,0,1-.343.567A3.952,3.952,0,0,0,21.938,28.353Zm-.705.092a4.056,4.056,0,0,0,.592.028,3.9,3.9,0,0,1-.425.375,3.945,3.945,0,0,1-.563.036A4.015,4.015,0,0,0,21.232,28.445ZM20.714,29a4.01,4.01,0,0,1-.392.3,3.915,3.915,0,0,0,.47-.072q.095-.048.187-.1.118-.068.229-.142A4.061,4.061,0,0,1,20.714,29Zm.732-.038q-.1.077-.21.148a3.9,3.9,0,0,0,.46-.191Q21.571,28.941,21.446,28.959Zm-1.074.455q-.126.013-.253.018-.11.065-.224.125A3.907,3.907,0,0,0,20.372,29.414Zm2.151-.894q.1-.082.193-.169.122-.031.243-.07A3.892,3.892,0,0,1,22.522,28.52ZM25.919,26q.07-.109.132-.221.107-.067.21-.142A3.894,3.894,0,0,1,25.919,26Zm2.453-3.443q.033-.125.058-.25.081-.1.156-.2A3.9,3.9,0,0,1,28.372,22.562Zm-12.18,7.487q-.124-.027-.246-.061-.124.028-.252.049A3.9,3.9,0,0,0,16.192,30.049Zm-.954-.08q.106-.005.213-.017.135-.014.267-.037a4.064,4.064,0,0,1-.456-.191,4.016,4.016,0,0,1-.482.119A3.917,3.917,0,0,0,15.239,29.969Zm-.68-.209a3.9,3.9,0,0,0,.555-.113,4.027,4.027,0,0,1-1.911-2.3L12.09,23.924a11.636,11.636,0,0,1-.405-5.546q-.085-.01-.17-.016a11.519,11.519,0,0,0-.06,5.059l.749,3.521A3.92,3.92,0,0,0,14.558,29.76ZM11.4,18.356a11.634,11.634,0,0,0-.056,5.09l.748,3.521a4.034,4.034,0,0,0,2.233,2.817q-.133.009-.269.009-.107,0-.213-.006a3.926,3.926,0,0,1-2.7-3.327l-.376-3.58a11.52,11.52,0,0,1,.426-4.526h.077Zm.145-.108q.081.006.162.016.028-.155.06-.31l-.135-.038Q11.585,18.081,11.543,18.248Zm-.025-.36q-.049.176-.093.353-.08,0-.16,0h-.042q.06-.193.127-.383Q11.435,17.869,11.518,17.888Zm.145-.084.127.036q.029-.135.062-.269l-.1-.05Q11.7,17.662,11.663,17.8Zm-.02-.33q-.048.15-.092.3-.079-.018-.16-.033.059-.161.122-.321Zm.143-.064.1.045q.03-.117.062-.234l-.075-.053Q11.825,17.289,11.785,17.41Zm-.017-.308q-.047.13-.09.261l-.123-.049q.056-.137.115-.272Zm.14-.047.068.047q.029-.1.061-.2l-.05-.05Q11.947,16.953,11.909,17.056Zm-.013-.291q-.044.113-.086.226l-.09-.055q.052-.116.108-.232Zm.137-.031.044.042q.028-.088.058-.175l-.03-.041Q12.067,16.647,12.032,16.734Zm-.01-.279q-.042.1-.081.2l-.063-.054q.048-.1.1-.2Zm-.127-.149-.062-.068q-.067.109-.131.219l.084.064Q11.84,16.413,11.9,16.306Zm-.161.323-.091-.07q-.073.128-.143.259l.117.062Q11.674,16.753,11.734,16.628Zm-.164.356q-.061-.034-.124-.065-.08.152-.155.307.078.023.156.049Q11.506,17.129,11.57,16.984Zm-.167.4q-.081-.027-.163-.051-.086.182-.166.368l.042,0q.08.008.159.02Q11.336,17.553,11.4,17.383Zm-.169.453-.131-.016-.077-.008q-.089.211-.169.426H11.1Q11.165,18.035,11.234,17.836Zm-.167.518h-.252a11.519,11.519,0,0,0-.685,3.915v3.6a3.926,3.926,0,0,0,3.256,3.868,4.039,4.039,0,0,1-2.363-3.264l-.376-3.58A11.634,11.634,0,0,1,11.067,18.353Zm-.333-.116q.082-.221.172-.439l-4.1-.431A4.041,4.041,0,0,1,3.2,13.16a3.928,3.928,0,0,0,3.753,5.077ZM3.356,12.728q-.017.1-.028.211a3.925,3.925,0,0,0,3.493,4.313l4.132.434q.083-.194.173-.386L11,17.271l-4.223-.9a4.042,4.042,0,0,1-3.2-4.068A3.908,3.908,0,0,0,3.356,12.728Zm.346-.622A3.925,3.925,0,0,0,6.8,16.26l4.223.9q.079.017.156.037.079-.164.164-.326a3.545,3.545,0,0,0-.392-.154L6.843,15.381a4.042,4.042,0,0,1-2.791-3.717A3.938,3.938,0,0,0,3.7,12.106Zm.349-.61a4.068,4.068,0,0,0-.322.374q.019-.132.047-.265.022-.1.05-.207a3.92,3.92,0,0,1,.261-.4A4.015,4.015,0,0,0,4.05,11.5Zm.116.048a3.926,3.926,0,0,0,2.713,3.727l4.106,1.334a3.664,3.664,0,0,1,.41.161q.075-.139.153-.276a3.556,3.556,0,0,0-.589-.332L7.016,14.4a4.039,4.039,0,0,1-2.375-3.264A3.952,3.952,0,0,0,4.166,11.544ZM4.629,11a4.06,4.06,0,0,0-.459.375,3.906,3.906,0,0,1,.064-.563,3.942,3.942,0,0,1,.395-.4A4.018,4.018,0,0,0,4.629,11Zm.121.057A3.924,3.924,0,0,0,7.063,14.3l3.944,1.756a3.676,3.676,0,0,1,.6.338q.07-.119.142-.236a3.554,3.554,0,0,0-.72-.549L7.29,13.445a4.031,4.031,0,0,1-1.944-2.716A3.914,3.914,0,0,0,4.75,11.061Zm.575-.45a4.032,4.032,0,0,0-.585.317,3.9,3.9,0,0,1,.015-.623,3.946,3.946,0,0,1,.514-.355A4.051,4.051,0,0,0,5.325,10.611Zm-.054-.8a4.019,4.019,0,0,1,.062-.588,3.939,3.939,0,0,0-.435.36,3.9,3.9,0,0,0-.123.553A4.061,4.061,0,0,1,5.271,9.816Zm-.627.43a4.013,4.013,0,0,1,.088-.489,3.918,3.918,0,0,0-.3.368q-.038.1-.071.2-.042.129-.075.259A4.063,4.063,0,0,1,4.644,10.246Zm-.519.519q.025-.125.057-.25a3.9,3.9,0,0,0-.213.45Q4.045,10.861,4.126,10.764Zm.494-1.057q.085-.094.177-.183.038-.122.084-.244A3.9,3.9,0,0,0,4.619,9.708Zm.547-.787q-.048.095-.092.193-.055.124-.1.249a4.062,4.062,0,0,1,.393-.3A4.011,4.011,0,0,1,5.5,8.586,3.9,3.9,0,0,0,5.166,8.92Zm.426-.557q.05-.117.108-.233a3.9,3.9,0,0,0-.3.4Q5.493,8.441,5.592,8.363ZM3.62,11.811q-.02.128-.031.255-.07.105-.134.215A3.9,3.9,0,0,1,3.62,11.811ZM14.287,29.9q.129-.007.256-.023.117.047.238.087A3.894,3.894,0,0,1,14.287,29.9ZM8.405,5.556q.116-.051.235-.095.084-.1.175-.188A3.9,3.9,0,0,0,8.405,5.556Zm.819-.5q-.082.067-.162.138-.1.091-.194.187a4.062,4.062,0,0,1,.481-.114,4.01,4.01,0,0,1,.321-.38A3.91,3.91,0,0,0,9.224,5.06Zm.616-.336q.094-.087.194-.169a3.894,3.894,0,0,0-.438.239Q9.717,4.755,9.84,4.724Zm.057.105a3.908,3.908,0,0,0-.383.418,4.06,4.06,0,0,1,.592-.034,4.018,4.018,0,0,1,.348-.478A3.941,3.941,0,0,0,9.9,4.829Zm.721-.107a3.9,3.9,0,0,0-.378.5A4.03,4.03,0,0,1,10.9,5.3a4.05,4.05,0,0,1,.343-.567A3.946,3.946,0,0,0,10.619,4.722Zm.757.032a3.936,3.936,0,0,0-.359.578,4.01,4.01,0,0,1,.7.247,4.063,4.063,0,0,1,.321-.673A3.917,3.917,0,0,0,11.376,4.754Zm.778.191a3.949,3.949,0,0,0-.329.685,4.07,4.07,0,0,1,.587.355l.152.111a4.034,4.034,0,0,1,.276-.827A3.9,3.9,0,0,0,12.154,4.944Zm.786.385a3.916,3.916,0,0,0-.272.841l.816.593a4.011,4.011,0,0,1,.155-.877l-.18-.162A3.954,3.954,0,0,0,12.94,5.329Zm.795.643a3.9,3.9,0,0,0-.139.871l.868.63V7.207a4.075,4.075,0,0,1,.037-.546ZM13.553,3.3q.127,0,.253.009.116-.054.236-.1A3.9,3.9,0,0,0,13.553,3.3Z" transform="translate(0)" fill="#4845d2" fill-rule="evenodd"/></g></svg>