<svg xmlns="http://www.w3.org/2000/svg" width="100" height="24.024" viewBox="0 0 100 24.024"><g transform="translate(-0.101 -0.294)"><path d="M48.631,21.94h7.178V19.778H51.182V11.634H48.631Z" transform="translate(-19.382 -4.529)" fill="#2f234f"/><path d="M65.047,22.31c-1.023,0-1.557-.894-1.557-2.234s.533-2.249,1.557-2.249,1.571.908,1.571,2.249S66.07,22.31,65.047,22.31Zm.014,1.672A3.761,3.761,0,0,0,69,20.076a3.943,3.943,0,0,0-7.885,0A3.781,3.781,0,0,0,65.061,23.982Z" transform="translate(-24.367 -6.341)" fill="#2f234f"/><path d="M78.592,26.293a4.033,4.033,0,0,0,2.71-.822,3.164,3.164,0,0,0,.98-2.45V16.362H80.034v.793h-.029a2.367,2.367,0,0,0-2.076-1.009c-1.831,0-3.1,1.528-3.1,3.69a3.23,3.23,0,0,0,3.2,3.5,2.353,2.353,0,0,0,1.888-.85h.058v.735a1.246,1.246,0,0,1-1.413,1.413c-.778,0-1.168-.332-1.3-.721H74.989C75.219,25.457,76.56,26.293,78.592,26.293Zm-.014-4.7c-.879,0-1.456-.721-1.456-1.831s.577-1.845,1.456-1.845c.98,0,1.5.836,1.5,1.831C80.077,20.787,79.6,21.594,78.578,21.594Z" transform="translate(-29.847 -6.331)" fill="#2f234f"/><path d="M92.32,22.31c-1.023,0-1.557-.894-1.557-2.234s.533-2.249,1.557-2.249,1.571.908,1.571,2.249S93.343,22.31,92.32,22.31Zm.014,1.672a3.761,3.761,0,0,0,3.935-3.906,3.943,3.943,0,0,0-7.885,0A3.781,3.781,0,0,0,92.334,23.982Z" transform="translate(-35.26 -6.341)" fill="#2f234f"/><path d="M102.655,21.94H105V14.56h-2.35Zm0-8.4H105v-1.9h-2.35Z" transform="translate(-40.96 -4.529)" fill="#2f234f"/><path d="M108.264,26.178h2.35v-3.2h.029a2.456,2.456,0,0,0,2.09.995c1.932,0,3.214-1.528,3.214-3.921,0-2.22-1.2-3.906-3.157-3.906a2.684,2.684,0,0,0-2.234,1.11h-.043v-.894h-2.249Zm3.863-4.022c-1.009,0-1.586-.822-1.586-2.018s.519-2.1,1.542-2.1,1.485.836,1.485,2.1S113.021,22.156,112.127,22.156Z" transform="translate(-43.2 -6.331)" fill="#2f234f"/><path d="M125.039,23.973c1.932,0,3.359-.836,3.359-2.45,0-1.888-1.528-2.22-2.825-2.436-.937-.173-1.773-.245-1.773-.764,0-.461.447-.677,1.023-.677.649,0,1.1.2,1.182.865h2.162c-.115-1.456-1.24-2.364-3.33-2.364-1.744,0-3.186.807-3.186,2.364,0,1.73,1.369,2.076,2.652,2.292.98.173,1.874.245,1.874.908,0,.476-.447.735-1.153.735a1.193,1.193,0,0,1-1.355-1.1h-2.22C121.522,22.978,122.877,23.973,125.039,23.973Z" transform="translate(-48.466 -6.331)" fill="#2f234f"/><path d="M136.606,24.1a2.522,2.522,0,0,0,2.205-1.124h.043v.908H141.1v-7.38h-2.35v4.123a1.313,1.313,0,0,1-1.3,1.485c-.75,0-1.11-.447-1.11-1.254V16.506h-2.335v4.843A2.461,2.461,0,0,0,136.606,24.1Z" transform="translate(-53.483 -6.475)" fill="#2f234f"/><path d="M147.521,23.742h2.35V19.605c0-.879.432-1.5,1.168-1.5.706,0,1.038.461,1.038,1.254v4.382h2.35V19.605c0-.879.418-1.5,1.168-1.5.706,0,1.038.461,1.038,1.254v4.382h2.35v-4.8c0-1.658-.836-2.8-2.508-2.8a2.625,2.625,0,0,0-2.321,1.3h-.029a2.21,2.21,0,0,0-2.076-1.3,2.461,2.461,0,0,0-2.234,1.268h-.043V16.362h-2.249Z" transform="translate(-58.879 -6.331)" fill="#2f234f"/><path d="M5.238,2.455A12.081,12.081,0,0,0,2.927,4.565,18.969,18.969,0,0,1,13.251,6.76,15.91,15.91,0,0,0,23.522,8.535a11.944,11.944,0,0,0-.828-1.922A18.878,18.878,0,0,1,12.177,4.438,17.87,17.87,0,0,0,5.238,2.455ZM21.067,4.3A12.033,12.033,0,0,0,9.089.678a22.63,22.63,0,0,1,4.163,1.611A17.31,17.31,0,0,0,21.067,4.3Zm2.975,6.583A18.265,18.265,0,0,1,12.177,8.909c-4.55-2.275-8.171-2.246-10.614-1.7q-.189.042-.369.088A11.922,11.922,0,0,0,.436,9.48q.293-.078.606-.148c2.963-.658,7.15-.63,12.209,1.9,4.55,2.275,8.171,2.246,10.614,1.7l.247-.058q.013-.284.013-.572A12.139,12.139,0,0,0,24.042,10.881Zm-.322,4.531A18.407,18.407,0,0,1,12.177,13.38c-4.55-2.275-8.171-2.246-10.614-1.7A11.977,11.977,0,0,0,.1,12.1q0,.1,0,.207A12.014,12.014,0,0,0,23.72,15.412Z" fill="#7f57f1" fill-rule="evenodd"/></g></svg>