<svg xmlns="http://www.w3.org/2000/svg" width="57" height="55.862" viewBox="0 0 57 55.862"><g transform="translate(0 0)"><g transform="translate(19.214 20.431)"><path d="M42.3,988.148l-5.714-6.428a1.071,1.071,0,1,0-1.6,1.429l4.129,4.643H25.071a1.071,1.071,0,0,0,0,2.143h14.05l-4.129,4.643a1.1,1.1,0,0,0,.085,1.523A1.083,1.083,0,0,0,36.588,996l5.714-6.429A1.083,1.083,0,0,0,42.3,988.148Z" transform="translate(-24 -981.362)" fill="#3091d9"/></g><path d="M36.5,55.862h0V54.3c.843-.262,1.687-.57,2.509-.918a26.978,26.978,0,1,0-21.019,0c.82.347,1.664.656,2.509.918V55.86a28.3,28.3,0,0,1-8.2-3.91,28.474,28.474,0,1,1,24.2,3.911Z" transform="translate(0 0)" fill="#e96500"/></g></svg>