<svg xmlns="http://www.w3.org/2000/svg" width="40" height="40" viewBox="0 0 40 40"><defs><style>.a{fill:#fff;}.b{fill:#e96500;}</style></defs><g transform="translate(-357 251)"><circle class="a" cx="20" cy="20" r="20" transform="translate(357 -251)"/><path class="b" d="M15,0A15,15,0,1,1,0,15,15,15,0,0,1,15,0Z" transform="translate(362 -246)"/><g transform="translate(-600.51 357.5)"><path class="a" d="M91.358,11.377l-8.749,8.749h0a.577.577,0,0,0-.119.175c-.008.017-.014.034-.022.053a.348.348,0,0,0-.023.061l-1.25,5a.625.625,0,0,0,.762.759l5-1.25c.022,0,.041-.017.061-.023l.053-.022h0a.577.577,0,0,0,.175-.119L96,16.011h0a.625.625,0,0,0,.18-.442A4.375,4.375,0,0,0,91.8,11.194a.625.625,0,0,0-.442.183Zm-7.83,9.865a3.114,3.114,0,0,1,2.6,2.608l-3.467.859Zm3.7,1.769a4.348,4.348,0,0,0-.687-1.322.7.7,0,0,0,.08-.053L94.4,13.85a3.1,3.1,0,0,1,.514,1.469Zm6.293-10.043-7.785,7.784a.7.7,0,0,0-.053.08,4.348,4.348,0,0,0-1.322-.687l7.69-7.69a3.1,3.1,0,0,1,1.47.514Z" transform="translate(888.834 -607.194)"/></g></g></svg>