<svg xmlns="http://www.w3.org/2000/svg" width="15" height="15" viewBox="0 0 15 15">
  <path id="noun-calendar-4619829" d="M118.393,36.072H116.25v-.536a.536.536,0,1,0-1.071,0v.536h-5.357v-.536a.536.536,0,1,0-1.071,0v.536h-2.143A1.607,1.607,0,0,0,105,37.679V48.393A1.607,1.607,0,0,0,106.607,50h11.786A1.607,1.607,0,0,0,120,48.393V37.679a1.607,1.607,0,0,0-1.607-1.607Zm-11.786,1.071h2.143v.536a.536.536,0,1,0,1.071,0v-.536h5.357v.536a.536.536,0,1,0,1.071,0v-.536h2.143a.536.536,0,0,1,.536.536v2.679H106.071V37.679a.536.536,0,0,1,.536-.536Zm11.786,11.786H106.607a.536.536,0,0,1-.536-.536V41.429h12.857v6.964a.536.536,0,0,1-.536.536Z" transform="translate(-105 -35)" fill="#e96500"/>
</svg>
