<svg xmlns="http://www.w3.org/2000/svg" width="40" height="39.903" viewBox="0 0 40 39.903">
  <g id="Group_1902" data-name="Group 1902" transform="translate(-768 -333.097)">
    <path id="Path_5543" data-name="Path 5543" d="M20,.1A19.951,19.951,0,1,1,0,20,19.917,19.917,0,0,1,20,.1Z" transform="translate(768 333)" fill="#fff"/>
    <path id="Path_5532" data-name="Path 5532" d="M15,0A15,15,0,1,1,0,15,15,15,0,0,1,15,0Z" transform="translate(773 338)" fill="#e96500"/>
    <path id="noun-calendar-4619829" d="M119.286,36.143H117v-.571a.571.571,0,1,0-1.143,0v.571h-5.714v-.571a.571.571,0,1,0-1.143,0v.571h-2.286A1.714,1.714,0,0,0,105,37.857V49.286A1.714,1.714,0,0,0,106.714,51h12.571A1.714,1.714,0,0,0,121,49.286V37.857a1.714,1.714,0,0,0-1.714-1.714Zm-12.571,1.143H109v.571a.571.571,0,1,0,1.143,0v-.571h5.714v.571a.571.571,0,1,0,1.143,0v-.571h2.286a.571.571,0,0,1,.571.571v2.857H106.143V37.857a.571.571,0,0,1,.571-.571Zm12.571,12.571H106.714a.571.571,0,0,1-.571-.571V41.857h13.714v7.429a.571.571,0,0,1-.571.571Z" transform="translate(675 310)" fill="#fff"/>
  </g>
</svg>
