<svg xmlns="http://www.w3.org/2000/svg" width="75" height="75" viewBox="0 0 75 75"><circle cx="25" cy="25" r="25" transform="translate(0 12.5)" fill="#3091d9" opacity="0.2"/><g transform="translate(-1260.826 -2037)"><path d="M178.658,48.393H165.506l-35.936-13.31A1.358,1.358,0,0,0,129.1,35h-4.018a1.331,1.331,0,0,0-.446.083,1.261,1.261,0,0,0-.136.068,1.327,1.327,0,0,0-.2.1l-18.75,13.393c-.031.022-.045.055-.074.079a1.359,1.359,0,0,0-.188.2,1.271,1.271,0,0,0-.136.2,1.642,1.642,0,0,0-.142.5c0,.036-.022.068-.022.106v5.357a1.339,1.339,0,0,0,1.339,1.339h10.714v1.339a1.339,1.339,0,0,0,1.339,1.339h3.977l-1.257,41.518h-8.076a1.339,1.339,0,0,0-1.339,1.339v6.7A1.339,1.339,0,0,0,113.033,110h28.125a1.339,1.339,0,0,0,1.339-1.339v-6.7a1.339,1.339,0,0,0-1.339-1.339h-8.075l-1.257-41.518H135.8a1.339,1.339,0,0,0,1.339-1.339V56.429h26.786V85.893a1.34,1.34,0,0,0,.741,1.2l1.938.968v1.851a1.339,1.339,0,1,1-2.679,0V88.572a1.339,1.339,0,1,0-2.679,0v1.339a4.018,4.018,0,1,0,8.036,0V87.232a1.34,1.34,0,0,0-.741-1.2l-1.938-.968V56.429h12.054A1.339,1.339,0,0,0,180,55.09V49.733a1.339,1.339,0,0,0-1.339-1.339ZM135.8,45.714h-4.174l-.919-7.353,27.084,10.031H137.139V47.054a1.339,1.339,0,0,0-1.339-1.339Zm-7.879-8.036,1,8.036h-3.662l1-8.036Zm-9.532,8.036a1.339,1.339,0,0,0-1.339,1.339v1.339h-6.534l12.863-9.187-.814,6.509ZM107.676,53.75V51.071h9.375V53.75Zm32.143,53.571H114.373V103.3h25.446Zm-9.415-6.7h-6.616l1.257-41.518h4.1Zm4.058-44.2H119.73V48.393h14.732Zm42.857-2.679H137.14V51.071h40.178Z" transform="translate(1155.829 2002)" fill="#e96500"/></g></svg>