<svg xmlns="http://www.w3.org/2000/svg" width="30.237" height="35" viewBox="0 0 30.237 35"><g transform="translate(-980.763 -2067)"><path d="M49.5,35a17.45,17.45,0,0,1-12.737-5.5h2.153a16,16,0,0,0,21.9-23.314,15.971,15.971,0,0,0-21.9-.687H36.763A17.5,17.5,0,1,1,49.5,35Z" transform="translate(944 2067)" fill="#e96500"/><g transform="translate(7852.164 276.652)"><path d="M214.484,68.068a.706.706,0,0,0,.2.138.5.5,0,0,0,.236.039.983.983,0,0,0,.236-.039.705.705,0,0,0,.2-.138l4.308-4.308a.612.612,0,0,0-.866-.866l-3.265,3.265V57.171a.61.61,0,1,0-1.219,0V66.14l-3.265-3.246a.612.612,0,1,0-.866.866Z" transform="translate(-7073.58 1743.439)" fill="#3091d9"/><path d="M141.126,354.48a.613.613,0,0,0-.61.61,3.383,3.383,0,0,1-3.383,3.383h-6.511a3.383,3.383,0,0,1-3.383-3.383.613.613,0,0,0-.61-.61.63.63,0,0,0-.63.61,4.63,4.63,0,0,0,4.622,4.622h6.511a4.613,4.613,0,0,0,4.6-4.622.613.613,0,0,0-.61-.61Z" transform="translate(-6992.531 1455.984)" fill="#3091d9"/></g></g></svg>