<svg xmlns="http://www.w3.org/2000/svg" xmlns:xlink="http://www.w3.org/1999/xlink" width="398" height="114" viewBox="0 0 398 114"><defs><clipPath id="a"><rect width="398" height="114" transform="translate(0 -0.143)" fill="none"/></clipPath></defs><g transform="translate(0 0.144)"><rect width="272.819" height="113.714" transform="translate(113.714 -0.001)" fill="#fff"/><g transform="translate(0 -0.001)"><g clip-path="url(#a)"><path d="M1326.013,733.311a5.8,5.8,0,0,1,2.315.455,5.87,5.87,0,0,1,1.852,1.249,5.673,5.673,0,0,1,1.232,1.844,5.944,5.944,0,0,1,0,4.483,5.667,5.667,0,0,1-1.232,1.844,5.861,5.861,0,0,1-1.852,1.249,5.907,5.907,0,0,1-6.484-1.249,5.652,5.652,0,0,1-1.232-1.844,5.948,5.948,0,0,1,0-4.483,5.659,5.659,0,0,1,1.232-1.844,5.866,5.866,0,0,1,1.853-1.249,5.8,5.8,0,0,1,2.316-.455m0,1.456a4.36,4.36,0,0,0-2.217.562,4.1,4.1,0,0,0-1.538,1.547,4.4,4.4,0,0,0-.562,2.225,4.358,4.358,0,0,0,.562,2.216,4.18,4.18,0,0,0,1.538,1.547,4.592,4.592,0,0,0,4.433,0,4.173,4.173,0,0,0,1.537-1.547,4.359,4.359,0,0,0,.563-2.216,4.406,4.406,0,0,0-.562-2.225,4.1,4.1,0,0,0-1.537-1.547,4.363,4.363,0,0,0-2.216-.562" transform="translate(-1159.737 -644.194)" fill="#e96500"/><path d="M1445.056,735.352v11.082h-.562l-7.2-7.923v7.923h-1.489V735.352h.562l7.2,8.022v-8.022Z" transform="translate(-1261.32 -645.987)" fill="#e96500"/><path d="M1576.447,735.352v1.406h-3.82v9.626h-1.49v-9.626h-3.821v-1.406Z" transform="translate(-1376.846 -645.987)" fill="#e96500"/><path d="M1663.386,735.352a4.841,4.841,0,0,1,1.836.356,3.433,3.433,0,0,1,1.447,1.091,2.978,2.978,0,0,1,.57,1.878,2.638,2.638,0,0,1-.587,1.737,3.61,3.61,0,0,1-1.488,1.067,5.023,5.023,0,0,1-1.861.356c-.2,0-.464-.011-.794-.033l5.16,4.631h-2.283l-4.763-4.631v4.631h-1.489V735.352Zm-2.762,1.406v3.556a8.766,8.766,0,0,0,1.191.232,9.994,9.994,0,0,0,1.274.083,3.122,3.122,0,0,0,1.943-.529,1.7,1.7,0,0,0,.686-1.422,1.6,1.6,0,0,0-.752-1.422,3.248,3.248,0,0,0-1.828-.5Z" transform="translate(-1457.506 -645.987)" fill="#e96500"/><path d="M1735.778,735.352l5.177,11.082h-1.786l-1.158-2.646h-5.194l-1.174,2.646h-1.786l5.177-11.082Zm-.347,2.514-2,4.515h3.969Z" transform="translate(-1519.632 -645.987)" fill="#e96500"/><path d="M1832.956,733.311a5.044,5.044,0,0,1,1.976.331,4.775,4.775,0,0,1,1.348.86v1.637q-.364-.264-.818-.579a5.3,5.3,0,0,0-1.059-.554,3.924,3.924,0,0,0-1.447-.24,4.361,4.361,0,0,0-2.216.562,4.107,4.107,0,0,0-1.538,1.547,4.4,4.4,0,0,0-.562,2.225,4.355,4.355,0,0,0,.562,2.216,4.182,4.182,0,0,0,1.538,1.547,4.311,4.311,0,0,0,2.216.57,5.1,5.1,0,0,0,2.175-.422,7.978,7.978,0,0,0,1.48-.868v1.488a5.125,5.125,0,0,1-1.513.885,6.226,6.226,0,0,1-4.458-.083,5.875,5.875,0,0,1-1.853-1.249,5.668,5.668,0,0,1-1.232-1.844,5.948,5.948,0,0,1,0-4.483,5.67,5.67,0,0,1,1.232-1.844,5.875,5.875,0,0,1,1.853-1.249,5.8,5.8,0,0,1,2.315-.455" transform="translate(-1605.073 -644.194)" fill="#e96500"/><path d="M1926.275,735.352v5.822l5.062-5.822h2.084l-4.648,5.111,5.144,5.971h-2.068l-4.152-4.78-1.423,1.555v3.225h-1.488V735.352Z" transform="translate(-1690.874 -645.987)" fill="#e96500"/><path d="M2011.1,809.937a1.152,1.152,0,0,1,.818,1.968,1.137,1.137,0,0,1-1.637,0,1.154,1.154,0,0,1,.819-1.968" transform="translate(-1765.677 -711.508)" fill="#e96500"/><path d="M2092.895,735.352l-3.887,11.082h-.844l-2.978-8.386-3.01,8.386h-.844l-3.721-11.082h1.62l2.6,8.237,2.927-8.237.96.017,2.844,8.22,2.712-8.237Z" transform="translate(-1825.126 -645.987)" fill="#3091d9"/><path d="M2222.7,745.028v1.406h-5.228v-1.406h1.869v-8.27h-1.869v-1.406h5.228v1.406h-1.87v8.27Z" transform="translate(-1947.991 -645.987)" fill="#3091d9"/><path d="M2286.436,735.352v1.406h-3.82v9.626h-1.489v-9.626h-3.821v-1.406Z" transform="translate(-2000.552 -645.987)" fill="#3091d9"/><path d="M2370.613,735.352v4.664h6.318v-4.664h1.489v11.082h-1.489v-5.012h-6.318v5.012h-1.489V735.352Z" transform="translate(-2081.212 -645.987)" fill="#3091d9"/><path d="M2508.424,735.352l-4.25,6.533v4.549h-1.6V742.1l-4.251-6.748h1.787l3.242,5.227,3.292-5.227Z" transform="translate(-2194.705 -645.987)" fill="#3091d9"/><path d="M2590.529,733.311a5.806,5.806,0,0,1,2.316.455,5.877,5.877,0,0,1,1.853,1.249,5.69,5.69,0,0,1,1.232,1.844,5.963,5.963,0,0,1,0,4.483,5.683,5.683,0,0,1-1.232,1.844,5.868,5.868,0,0,1-1.853,1.249,6.116,6.116,0,0,1-4.631,0,5.873,5.873,0,0,1-1.854-1.249,5.678,5.678,0,0,1-1.231-1.844,5.948,5.948,0,0,1,0-4.483,5.684,5.684,0,0,1,1.231-1.844,5.882,5.882,0,0,1,1.854-1.249,5.8,5.8,0,0,1,2.315-.455m0,1.456a4.354,4.354,0,0,0-2.216.562,4.1,4.1,0,0,0-1.539,1.547,4.4,4.4,0,0,0-.562,2.225,4.355,4.355,0,0,0,.562,2.216,4.17,4.17,0,0,0,1.539,1.547,4.589,4.589,0,0,0,4.432,0,4.187,4.187,0,0,0,1.538-1.547,4.355,4.355,0,0,0,.562-2.216,4.4,4.4,0,0,0-.562-2.225,4.111,4.111,0,0,0-1.538-1.547,4.36,4.36,0,0,0-2.217-.562" transform="translate(-2270.58 -644.194)" fill="#3091d9"/><path d="M2708.1,735.079v6.732a4.816,4.816,0,0,1-.6,2.473,4.078,4.078,0,0,1-1.629,1.58,5.239,5.239,0,0,1-4.656,0,4.07,4.07,0,0,1-1.638-1.58,4.82,4.82,0,0,1-.6-2.473v-6.732h1.489v6.682a3.462,3.462,0,0,0,.422,1.82,2.429,2.429,0,0,0,1.124,1,3.785,3.785,0,0,0,1.53.306,3.988,3.988,0,0,0,1.529-.323,2.442,2.442,0,0,0,1.125-.992,3.437,3.437,0,0,0,.421-1.811v-6.682Z" transform="translate(-2370.969 -645.747)" fill="#3091d9"/><path d="M2797.522,809.937a1.152,1.152,0,0,1,.818,1.968,1.138,1.138,0,0,1-1.637,0,1.154,1.154,0,0,1,.819-1.968" transform="translate(-2456.531 -711.508)" fill="#3091d9"/><rect width="114.194" height="114.194" transform="translate(0 0)" fill="#001f38"/><path d="M0,0H11.467V113.714H0Z" transform="translate(386.533)" fill="#3091d9"/><path d="M300.794,262.707h0l-.082,9.117a13.873,13.873,0,0,1-3.66,2,17.137,17.137,0,0,1-6.156.915,17.716,17.716,0,0,1-15.556-8.86,19.118,19.118,0,0,1,0-18.592,18.2,18.2,0,0,1,6.489-6.489,17.47,17.47,0,0,1,9.067-2.412,19.909,19.909,0,0,1,6.364.915,22.738,22.738,0,0,1,3.186,1.349V229.27c-.268-.113-.539-.224-.815-.33a25.507,25.507,0,0,0-9.067-1.456,30.283,30.283,0,0,0-11.314,2.121,29.234,29.234,0,0,0-9.4,5.99,27.973,27.973,0,0,0-6.405,9.192,31.117,31.117,0,0,0,0,23.625,27.957,27.957,0,0,0,6.405,9.192,29.229,29.229,0,0,0,9.4,5.99,30.282,30.282,0,0,0,11.314,2.121,27.982,27.982,0,0,0,12.1-2.537,29.507,29.507,0,0,0,8.859-6.2v-22.71H300.794Z" transform="translate(-229.381 -199.839)" fill="#fff"/><path d="M1407.316,309.573l17.668,38.223h-9.23l-2.888-7.078H1397.86l-2.888,7.078h-9.23l17.667-38.223Zm-1.925,12.854-4.756,11.608h9.513Z" transform="translate(-1217.338 -271.952)" fill="#001f38"/><path d="M1739.664,309.856v38.223h-2.831l-22.481-23.16V347.8h-7.871V309.573h2.831l22.481,23.5V309.856Z" transform="translate(-1499.098 -271.952)" fill="#001f38"/><path d="M2011.581,311.9v7.078h-12.118v30.691h-7.815V318.981H1979.53V311.9Z" transform="translate(-1738.965 -273.998)" fill="#001f38"/><path d="M2258.664,311.9a18.7,18.7,0,0,1,5.209.736,14.431,14.431,0,0,1,4.616,2.265,11.264,11.264,0,0,1,3.284,3.822,11.5,11.5,0,0,1,1.218,5.464,9.824,9.824,0,0,1-1.671,5.748,11.266,11.266,0,0,1-4.388,3.737,15.814,15.814,0,0,1-5.89,1.557l13.647,14.609h-10.363l-13.193-15.516v15.516h-7.872V311.9Zm-7.531,7.361v9.57a18.3,18.3,0,0,0,3.029.708,22.29,22.29,0,0,0,3.369.255,9.368,9.368,0,0,0,5.408-1.387,4.5,4.5,0,0,0,2.01-3.936,4.245,4.245,0,0,0-2.124-3.992,10.272,10.272,0,0,0-5.182-1.218Z" transform="translate(-1970.645 -273.999)" fill="#001f38"/><path d="M2528.64,327.305v6.4h-16.762v9.174h18.97v6.965h-26.841V311.9h26.841v6.8h-18.97v8.607Z" transform="translate(-2199.702 -273.998)" fill="#001f38"/><path d="M2762.526,311.9l-13.816,18.913,13.816,19.026h-9.91l-9.174-13.081-8.947,13.081h-9.626l13.761-18.856L2724.87,311.9h9.91l9.173,13.477,8.664-13.477Z" transform="translate(-2393.725 -273.998)" fill="#001f38"/><path d="M1155.38,328.749h0l-.056,6.206a9.433,9.433,0,0,1-2.492,1.359,11.663,11.663,0,0,1-4.19.623,12.061,12.061,0,0,1-10.589-6.031,13.015,13.015,0,0,1,0-12.656,12.392,12.392,0,0,1,4.417-4.417,11.891,11.891,0,0,1,6.172-1.642,13.548,13.548,0,0,1,4.332.623,15.483,15.483,0,0,1,2.169.918v-7.744c-.183-.077-.367-.153-.555-.224a17.365,17.365,0,0,0-6.172-.991,20.613,20.613,0,0,0-7.7,1.444,19.9,19.9,0,0,0-6.4,4.077,19.047,19.047,0,0,0-4.36,6.257,21.184,21.184,0,0,0,0,16.082,19.039,19.039,0,0,0,4.36,6.257,19.9,19.9,0,0,0,6.4,4.077,20.612,20.612,0,0,0,7.7,1.444,19.046,19.046,0,0,0,8.239-1.727,20.088,20.088,0,0,0,6.031-4.219V323.007h-7.3Z" transform="translate(-991.242 -267.735)" fill="#001f38"/><path d="M3066.185,320.2a1.347,1.347,0,0,1,.532.108,1.006,1.006,0,0,1,.418.331.926.926,0,0,1,.166.569.826.826,0,0,1-.171.527,1.044,1.044,0,0,1-.43.323,1.4,1.4,0,0,1-.539.108c-.058,0-.134,0-.231-.01l1.494,1.4h-.661l-1.377-1.4v1.4h-.431V320.2Zm-.8.426V321.7a2.423,2.423,0,0,0,.345.07,2.734,2.734,0,0,0,.368.025.873.873,0,0,0,.562-.16.524.524,0,0,0,.2-.431.491.491,0,0,0-.219-.431.9.9,0,0,0-.527-.15Z" transform="translate(-2692.482 -281.284)" fill="#001f38"/><path d="M3047.736,305.885a3.056,3.056,0,1,1-3.056,3.056,3.06,3.06,0,0,1,3.056-3.056m0-.608a3.664,3.664,0,1,0,3.664,3.664,3.664,3.664,0,0,0-3.664-3.664" transform="translate(-2674.136 -268.178)" fill="#001f38"/><path d="M0,0H50.412V11.385H0Z" transform="translate(31.732 89.259)" fill="#e96500"/></g></g></g></svg>