<svg xmlns="http://www.w3.org/2000/svg" width="37.965" height="35" viewBox="0 0 37.965 35"><path d="M170.913,97.446a1.216,1.216,0,0,1,.8.285l6.748,5.838a.708.708,0,0,0,.435.205c.217,0,.36-.2.36-.569V101.8a1.052,1.052,0,0,1,1.051-1.051h2.626a1.052,1.052,0,0,1,1.051,1.051v5.5a2.616,2.616,0,0,0,.8,1.739l3.278,2.836c.44.38.324.688-.256.688h-2.766a1,1,0,0,0-1.051.931V128.24a1.052,1.052,0,0,1-1.051,1.051H158.9a1.052,1.052,0,0,1-1.051-1.051V113.609a1.052,1.052,0,0,0-1.051-1.051h-2.766c-.58,0-.7-.308-.256-.688l16.346-14.14a1.211,1.211,0,0,1,.795-.285m0-1.577a2.791,2.791,0,0,0-1.827.669l-16.346,14.14a1.9,1.9,0,0,0,1.288,3.457h2.24v14.1a2.632,2.632,0,0,0,2.628,2.628H182.93a2.632,2.632,0,0,0,2.628-2.628v-14.1h2.24a1.9,1.9,0,0,0,1.287-3.458l-3.277-2.836a1.189,1.189,0,0,1-.25-.55v-5.5a2.632,2.632,0,0,0-2.628-2.628H180.3a2.633,2.633,0,0,0-2.483,1.765l-5.08-4.395a2.792,2.792,0,0,0-1.827-.669Z" transform="translate(-151.931 -95.868)" fill="#fff"/></svg>