<svg xmlns="http://www.w3.org/2000/svg" width="160" height="108" viewBox="0 0 160 108"><defs><style>.a{fill:#3091d9;opacity:0.2;}.b{fill:#e96500;}.c{fill:none;}</style></defs><g transform="translate(15536 -7953)"><circle class="a" cx="45" cy="45" r="45" transform="translate(-15501 7962.14)"/><g transform="translate(-18486.01 5895.923)"><path class="b" d="M194.976,134.53H93.658a1.766,1.766,0,0,0-1.778,1.764v8.314a1.711,1.711,0,0,0,1.778,1.7h9.776v35.55H93.658a1.711,1.711,0,0,0-1.778,1.7v8.314a1.766,1.766,0,0,0,1.778,1.764H194.976a1.766,1.766,0,0,0,1.778-1.764v-8.314a1.711,1.711,0,0,0-1.778-1.7H185.2v-35.55h9.776a1.711,1.711,0,0,0,1.778-1.7v-8.314a1.766,1.766,0,0,0-1.778-1.764ZM106.99,146.306h4.222v35.55H106.99Zm54.658,35.55v-35.55h12.22v35.55Zm-3.555,0h-4v-35.55h4Zm-7.555,0H138.1v-35.55h12.443Zm-16,0h-4v-35.55h4Zm-7.555,0h-12.22v-35.55h12.22Zm66.213,8.221H95.436v-4.666H193.2Zm-11.554-8.221h-4.222v-35.55h4.222ZM193.2,142.751H95.436v-4.666H193.2Z" transform="translate(2893.13 1947.135)"/><path class="b" d="M194.976,101.72H93.658a1.778,1.778,0,1,0,0,3.555H194.976a1.778,1.778,0,0,0,0-3.555Z" transform="translate(2893.13 1973.28)"/><path class="b" d="M194.976,440.78H93.658a1.778,1.778,0,0,0,0,3.555H194.976a1.778,1.778,0,0,0,0-3.555Z" transform="translate(2893.13 1703.098)"/></g><rect class="c" width="160" height="108" transform="translate(-15536 7953)"/></g></svg>