<svg xmlns="http://www.w3.org/2000/svg" width="160" height="108" viewBox="0 0 160 108"><defs><style>.a{fill:#3091d9;opacity:0.2;}.b{fill:#e96500;}.c{fill:none;}</style></defs><g transform="translate(16286 -7953)"><circle class="a" cx="45" cy="45" r="45" transform="translate(-16251 7962.14)"/><path class="b" d="M149.208,123.436a2.489,2.489,0,0,1-4.942.6l-.05-.5c-1.154-9.508-2.634-21.927,27.647-52.032h.025c1.656-1.681,3.362-3.512,4.064-5.62.652-1.932.477-4.315-1.355-7.476-.251-.276-.5-.552-.778-.8a5.159,5.159,0,0,0-3.638-1.53,7.033,7.033,0,0,0-4.265,1.731,17.269,17.269,0,0,0-1.455,1.355l-.05.05c-1.957,1.982-3.864,4.215-5.8,6.473-7.552,8.856-15.5,18.189-31.208,18.189-12.92,0-21.953-10.537-30.331-20.321-2.609-3.036-5.143-6-7.652-8.455l-.05-.05c-2.007-2.057-4.34-4.29-6.648-5.143-1.831-.678-3.889-.326-6.046,2.183a4.47,4.47,0,0,0-.979,3.864,12.6,12.6,0,0,0,3.563,5.394l.05.075a129.175,129.175,0,0,1,10.01,12.268c3.262,4.49,6.523,9.508,9.86,15.178,4.641,7.877,7.577,13.773,8.956,19.468,1.379,5.82,1.129,11.289-.678,18.163a2.476,2.476,0,1,1-4.791-1.255c1.581-6.046,1.831-10.813.627-15.755-1.2-5.118-3.989-10.637-8.38-18.113-3.262-5.519-6.448-10.386-9.609-14.777a129.185,129.185,0,0,0-9.584-11.766c-2.584-2.659-4.265-5.193-4.867-7.727A9.234,9.234,0,0,1,72.79,49l.075-.1c3.889-4.516,7.853-5.017,11.566-3.663,3.262,1.2,6.1,3.889,8.479,6.347,2.659,2.609,5.269,5.62,7.928,8.731,7.652,8.956,15.906,18.59,26.568,18.59,13.422,0,20.6-8.429,27.445-16.433,1.957-2.308,3.888-4.591,6-6.7a17.452,17.452,0,0,1,2.007-1.857,11.9,11.9,0,0,1,7.25-2.81,10,10,0,0,1,7.074,2.86,11.687,11.687,0,0,1,1.4,1.506l.125.151.05.125c2.81,4.666,2.986,8.479,1.906,11.716-1.054,3.111-3.212,5.469-5.269,7.552h-.025c-28.574,28.4-27.245,39.463-26.243,47.942l.075.477ZM128.736,28.88a23.084,23.084,0,1,1-16.282,6.749A23.045,23.045,0,0,1,128.736,28.88Zm12.8,10.286a18.077,18.077,0,0,0-25.59,25.539,18.077,18.077,0,1,0,25.59-25.539Z" transform="translate(-16321.603 7928.521)"/><rect class="c" width="160" height="108" transform="translate(-16286 7953)"/></g></svg>