<svg xmlns="http://www.w3.org/2000/svg" width="160" height="108" viewBox="0 0 160 108"><defs><style>.a{fill:#3091d9;opacity:0.2;}.b{fill:#e96500;}.c{fill:none;}</style></defs><g transform="translate(16036 -7953)"><circle class="a" cx="45" cy="45" r="45" transform="translate(-16001 7962.14)"/><g transform="translate(-18186.238 5928.744)"><path class="b" d="M191,106.128a1.895,1.895,0,0,0-2.613-.732l-13.18,7.65a1.894,1.894,0,0,0-.708,2.55l.37.673-7.281,2.479a7.674,7.674,0,0,0-3.238-1.817l-27.67-7.359a26.907,26.907,0,0,0-13.459-.092l-10.114,2.54-14.7-4.1a1.875,1.875,0,0,0-1.465.189,1.9,1.9,0,0,0-.882,1.184l-10,40.717a1.893,1.893,0,0,0,1.359,2.284l14.436,3.781,12.139,9.669a7.591,7.591,0,0,0,11.058,8.288l1.236-.673a7.526,7.526,0,0,0,.836,3.668l.207.4a7.623,7.623,0,0,0,10.476,3.159l.753-.42a7.605,7.605,0,0,0,5.493,7.465,7.562,7.562,0,0,0,5.821-.658l31.536-17.535A28.554,28.554,0,0,0,193.6,155.318l1.212-2.948a1.862,1.862,0,0,0,.842.536,1.957,1.957,0,0,0,.494.065,1.894,1.894,0,0,0,.977-.272l12.958-7.8a1.892,1.892,0,0,0,.686-2.528Zm-89.64,45.9L90.182,149.1l9.09-37.01,11.513,3.214Zm78.089,14.166-31.418,17.469a3.831,3.831,0,0,1-3.727-6.7l10.258-5.713a1.894,1.894,0,0,0-1.842-3.311l-16.757,9.333a3.829,3.829,0,0,1-5.266-1.583l-.207-.4a3.853,3.853,0,0,1,1.1-4.82l18.843-10.258.006,0a1.894,1.894,0,0,0-1.809-3.327l-18.368,9.952a7.716,7.716,0,0,0-.686.42l-6.338,3.451a3.834,3.834,0,0,1-5.207-1.55,3.837,3.837,0,0,1,1.554-5.192l25.443-13.72a1.894,1.894,0,0,0-1.777-3.344l-18.869,9.88a3.813,3.813,0,0,1-4.972-1.345,3.792,3.792,0,0,1,1.448-5.377l8.245-4.322a1.894,1.894,0,0,0-1.757-3.355L119.1,146.7a7.579,7.579,0,0,0-2.9,10.75,7.518,7.518,0,0,0,2.711,2.569l-1.128.609a7.517,7.517,0,0,0-2.052,1.657l-10.874-8.663,9.774-38.082,9.508-2.387a23.1,23.1,0,0,1,11.563.081l27.67,7.359a4,4,0,0,1,2.889,4.615,3.987,3.987,0,0,1-5.011,3.072l-16.037-4.589a1.869,1.869,0,0,0-1.609.274,1.907,1.907,0,0,0-.8,1.426,10.861,10.861,0,0,1-4.2,7.394c-3.557,2.552-8.98,2.891-16.13,1.014a1.893,1.893,0,1,0-.962,3.662,36.047,36.047,0,0,0,9.107,1.313,17.039,17.039,0,0,0,10.25-2.952,14.219,14.219,0,0,0,5.306-7.918l14.034,4.015a7.771,7.771,0,0,0,9.771-5.987,7.694,7.694,0,0,0-.277-3.906l7.013-2.389,15.7,28.587-2.325,5.652a24.82,24.82,0,0,1-10.65,12.315Zm17.414-17.754-18.155-33.044,9.9-5.746,17.97,32.945Z" transform="translate(2099.234 1931.859)"/></g><rect class="c" width="160" height="108" transform="translate(-16036 7953)"/></g></svg>