<svg xmlns="http://www.w3.org/2000/svg" width="160" height="108.28" viewBox="0 0 160 108.28"><defs><style>.a{fill:#3091d9;opacity:0.2;}.b{fill:#e96500;}.c{fill:none;}</style></defs><g transform="translate(15786 -7953)"><circle class="a" cx="45" cy="45" r="45" transform="translate(-15751 7962.14)"/><g transform="translate(-16813.912 5859)"><path class="b" d="M292.958,368.2V355.3c0-.013,0-.025,0-.037,0-.062,0-.124-.009-.185,0-.023,0-.046-.006-.069-.008-.073-.019-.147-.034-.219,0-.022-.009-.042-.015-.064-.013-.06-.028-.118-.046-.177-.01-.034-.022-.067-.033-.1s-.028-.082-.045-.122-.027-.067-.042-.1-.037-.081-.058-.12-.029-.058-.045-.086c-.029-.052-.06-.1-.093-.154-.009-.014-.017-.028-.027-.042q-.066-.1-.141-.189c-.011-.014-.023-.027-.035-.039-.039-.047-.081-.092-.123-.136l-.054-.053c-.038-.037-.077-.072-.117-.106-.022-.02-.045-.038-.068-.056l-.116-.088c-.026-.019-.053-.038-.08-.055l-.028-.02-18.1-11.522a2.625,2.625,0,0,0-2.82,0l-18.105,11.522c-.01.006-.019.013-.029.02-.027.018-.053.038-.08.055s-.08.057-.117.088l-.067.055c-.04.035-.081.071-.119.108l-.053.051c-.043.045-.084.09-.125.137-.01.013-.023.025-.034.038-.05.061-.1.125-.142.189-.009.013-.017.027-.025.04-.033.051-.065.1-.095.156-.016.027-.03.057-.044.085s-.04.081-.058.122-.029.065-.042.1-.031.082-.045.124-.023.065-.033.1c-.017.059-.032.118-.046.178,0,.021-.01.041-.014.063q-.021.108-.034.219c0,.023,0,.046-.006.069-.006.061-.008.123-.009.185,0,.012,0,.024,0,.037v12.936A6.484,6.484,0,0,0,254.2,380.61h36.131a6.485,6.485,0,0,0,2.63-12.413ZM254.2,375.358a1.234,1.234,0,0,1,0-2.468h36.131a1.234,1.234,0,1,1,0,2.468Zm2.546-17.436H287.7v9.717H256.747Zm24.567-5.251H263.137l9.088-5.784Z" transform="translate(827.023 1821.671)"/><path class="b" d="M270.893,80.665a6.181,6.181,0,0,0-5.968-4.336H247.24a1.021,1.021,0,0,1-.973-.707L240.8,58.8a6.275,6.275,0,0,0-11.935,0L223.4,75.623a1.021,1.021,0,0,1-.973.707H204.743a6.275,6.275,0,0,0-3.688,11.351l14.308,10.4a1.02,1.02,0,0,1,.371,1.144l-5.465,16.82a6.275,6.275,0,0,0,9.656,7.015l14.308-10.4a1.02,1.02,0,0,1,1.2,0l14.308,10.4a6.181,6.181,0,0,0,7.376,0,6.182,6.182,0,0,0,2.28-7.015l-5.465-16.82a1.022,1.022,0,0,1,.371-1.144l14.308-10.4a6.18,6.18,0,0,0,2.28-7.015Zm-5.366,2.766-14.308,10.4a6.258,6.258,0,0,0-2.28,7.015l5.465,16.82a1.023,1.023,0,0,1-1.574,1.144l-14.308-10.4a6.258,6.258,0,0,0-7.376,0l-14.308,10.4a1.023,1.023,0,0,1-1.574-1.144l5.465-16.82a6.257,6.257,0,0,0-2.28-7.015l-14.308-10.4a1.023,1.023,0,0,1,.6-1.851h17.685a6.259,6.259,0,0,0,5.968-4.335l5.465-16.82a1.024,1.024,0,0,1,1.947,0l5.465,16.82a6.259,6.259,0,0,0,5.968,4.335h17.685a1.023,1.023,0,0,1,.6,1.851Z" transform="translate(864.457 2039.532)"/></g><rect class="c" width="160" height="108" transform="translate(-15786 7953)"/></g></svg>