<svg xmlns="http://www.w3.org/2000/svg" width="65" height="35" viewBox="0 0 65 35">
  <g id="Group_1903" data-name="Group 1903" transform="translate(-4871.999 143)">
    <path id="Subtraction_2" data-name="Subtraction 2" d="M49.5,35a17.45,17.45,0,0,1-12.737-5.5h2.153a16,16,0,0,0,21.9-23.314,15.971,15.971,0,0,0-21.9-.687H36.763A17.5,17.5,0,1,1,49.5,35Z" transform="translate(4870 -143)" fill="#3091d9"/>
    <g id="indeed-logo" transform="translate(4872 -134)">
      <path id="Path_5537" data-name="Path 5537" d="M242.117,7.657h.255a.418.418,0,0,0,.25-.054.176.176,0,0,0,.066-.143.174.174,0,0,0-.032-.1.186.186,0,0,0-.089-.067.625.625,0,0,0-.211-.023h-.238Zm-.21.733V7.09h.447a1.113,1.113,0,0,1,.332.036.322.322,0,0,1,.163.126.331.331,0,0,1,.061.189.347.347,0,0,1-.1.248.4.4,0,0,1-.27.118.354.354,0,0,1,.111.069,1.511,1.511,0,0,1,.192.258L243,8.39h-.258l-.114-.205a1.1,1.1,0,0,0-.218-.3.264.264,0,0,0-.167-.046h-.123V8.39Zm.529-1.679a1.036,1.036,0,0,0-.5.131.944.944,0,0,0-.378.375,1.011,1.011,0,0,0,0,1.008.952.952,0,0,0,.375.373,1.005,1.005,0,0,0,1,0,.942.942,0,0,0,.374-.373,1.011,1.011,0,0,0,0-1.008.935.935,0,0,0-.378-.375,1.037,1.037,0,0,0-.5-.13m0-.2a1.241,1.241,0,0,1,.6.156,1.107,1.107,0,0,1,.452.447,1.216,1.216,0,0,1,0,1.209,1.131,1.131,0,0,1-.448.449,1.219,1.219,0,0,1-1.2,0,1.138,1.138,0,0,1-.448-.449,1.209,1.209,0,0,1,0-1.209,1.117,1.117,0,0,1,.452-.447,1.242,1.242,0,0,1,.6-.157" transform="translate(-185.765 -5.014)" fill="gray"/>
      <path id="Path_5538" data-name="Path 5538" d="M6.59,0a5.785,5.785,0,0,0-1.8.352A8.134,8.134,0,0,0,.277,5.792a9.8,9.8,0,0,0-.268,1.4c0,.015-.037.484.03.358a1.818,1.818,0,0,0,.134-.4,12.185,12.185,0,0,1,1.4-3.2c1.533-2.254,3.995-3.7,6.6-2.9a5.867,5.867,0,0,1,1.346.684c.082.06.684.536.55.1a2.244,2.244,0,0,0-.64-.863A4.072,4.072,0,0,0,6.59,0Zm19,2.255a.945.945,0,0,0-.8.365A1.663,1.663,0,0,0,24.5,3.686V7.079a4.674,4.674,0,0,0-1.331-1.05,3.285,3.285,0,0,0-.99-.3,4.981,4.981,0,0,0-.684-.044,3.5,3.5,0,0,0-2.767,1.2,4.939,4.939,0,0,0-1.049,3.355,6.674,6.674,0,0,0,.26,1.889,4.59,4.59,0,0,0,.781,1.517,3.649,3.649,0,0,0,1.219,1A3.411,3.411,0,0,0,21.469,15a3.763,3.763,0,0,0,.714-.067,2.8,2.8,0,0,0,.432-.1,3.671,3.671,0,0,0,.975-.506,6.075,6.075,0,0,0,.915-.863v.223a1.43,1.43,0,0,0,.3.975,1.07,1.07,0,0,0,1.555.015,1.43,1.43,0,0,0,.3-.99V3.567a1.491,1.491,0,0,0-.275-.974,1,1,0,0,0-.8-.335Zm28.073,0a.944.944,0,0,0-.8.365,1.71,1.71,0,0,0-.283,1.064V7.079a4.674,4.674,0,0,0-1.331-1.05,3.222,3.222,0,0,0-.99-.3,4.982,4.982,0,0,0-.684-.044,3.512,3.512,0,0,0-2.767,1.2,4.943,4.943,0,0,0-1.049,3.355,6.41,6.41,0,0,0,.268,1.889,4.564,4.564,0,0,0,.774,1.517,3.645,3.645,0,0,0,1.22,1A3.41,3.41,0,0,0,49.542,15a3.659,3.659,0,0,0,.714-.067,2.772,2.772,0,0,0,.431-.1,3.666,3.666,0,0,0,.974-.506,5.725,5.725,0,0,0,.915-.863v.223a1.428,1.428,0,0,0,.305.975,1.079,1.079,0,0,0,1.562.015,1.431,1.431,0,0,0,.3-.99V3.567a1.494,1.494,0,0,0-.282-.974,1,1,0,0,0-.8-.335ZM6,2.877A1.888,1.888,0,1,0,7.634,3.91,1.873,1.873,0,0,0,6,2.877Zm25.917,2.78a5.263,5.263,0,0,0-1.815.327,3.92,3.92,0,0,0-1.428.953,4.174,4.174,0,0,0-.886,1.495,5.75,5.75,0,0,0-.3,1.889,4.676,4.676,0,0,0,1.235,3.414,4.462,4.462,0,0,0,3.2,1.257c.082.008.156.008.238.008a5.249,5.249,0,0,0,1.711-.253,4.263,4.263,0,0,0,1.234-.633,2.91,2.91,0,0,0,.737-.8,1.478,1.478,0,0,0,.245-.721.7.7,0,0,0-.215-.544.862.862,0,0,0-.573-.193.776.776,0,0,0-.506.149q-.343.327-.7.64a6.331,6.331,0,0,1-.588.439,2.388,2.388,0,0,1-.662.3,2.635,2.635,0,0,1-.751.1,1.233,1.233,0,0,1-.171-.008,2.04,2.04,0,0,1-.952-.3,2.171,2.171,0,0,1-.811-.885,3.054,3.054,0,0,1-.32-1.383h4.493a3.237,3.237,0,0,0,1.4-.253,1.161,1.161,0,0,0,.491-1.123,3.863,3.863,0,0,0-.476-1.837A3.789,3.789,0,0,0,34.3,6.223,4.461,4.461,0,0,0,32,5.657Zm9.187,0a5.23,5.23,0,0,0-1.815.327,4.022,4.022,0,0,0-1.436.953,4.265,4.265,0,0,0-.877,1.495,5.745,5.745,0,0,0-.305,1.889A4.672,4.672,0,0,0,37.9,13.735a4.479,4.479,0,0,0,3.206,1.257,2.338,2.338,0,0,0,.238.008,5.278,5.278,0,0,0,1.711-.253,4.265,4.265,0,0,0,1.235-.633,3.025,3.025,0,0,0,.737-.8,1.482,1.482,0,0,0,.246-.721.682.682,0,0,0-.223-.544.834.834,0,0,0-.572-.193.767.767,0,0,0-.5.149c-.29.268-.52.484-.7.64a6.433,6.433,0,0,1-.6.439,2.337,2.337,0,0,1-.654.3,2.675,2.675,0,0,1-.751.1,1.233,1.233,0,0,1-.171-.008,2.043,2.043,0,0,1-.953-.3,2.191,2.191,0,0,1-.818-.885,3.154,3.154,0,0,1-.313-1.383h4.485a3.194,3.194,0,0,0,1.4-.253,1.15,1.15,0,0,0,.5-1.123,3.872,3.872,0,0,0-.483-1.837A3.739,3.739,0,0,0,43.48,6.223a4.438,4.438,0,0,0-2.306-.565ZM9.866,5.673A.978.978,0,0,0,9.085,6a1.4,1.4,0,0,0-.29.974V13.6a1.5,1.5,0,0,0,.32,1.034A1.034,1.034,0,0,0,9.932,15a1.092,1.092,0,0,0,.833-.349,1.5,1.5,0,0,0,.327-1.049V10.738a7.254,7.254,0,0,1,.163-1.919A2.117,2.117,0,0,1,12,7.807a1.889,1.889,0,0,1,1.116-.365,1.286,1.286,0,0,1,1.257.6,3.875,3.875,0,0,1,.313,1.741V13.6a1.5,1.5,0,0,0,.32,1.034,1.052,1.052,0,0,0,.833.365,1.039,1.039,0,0,0,.818-.358,1.514,1.514,0,0,0,.32-1.041V9.34A9.32,9.32,0,0,0,16.91,8.1a2.593,2.593,0,0,0-.3-.915,2.49,2.49,0,0,0-1.064-1.116,3.33,3.33,0,0,0-1.622-.394,3.6,3.6,0,0,0-1.659.372,4.126,4.126,0,0,0-1.324,1.175V6.937a1.535,1.535,0,0,0-.141-.692,1.016,1.016,0,0,0-.394-.432,1.04,1.04,0,0,0-.543-.141ZM31.913,7.257h.007a1.893,1.893,0,0,1,1.443.58A2.768,2.768,0,0,1,34,9.6H29.838a3,3,0,0,1,.67-1.755,1.825,1.825,0,0,1,1.406-.588Zm9.186,0h.008a1.892,1.892,0,0,1,1.442.58A2.769,2.769,0,0,1,43.182,9.6H39.024a2.9,2.9,0,0,1,.67-1.755A1.826,1.826,0,0,1,41.1,7.257Zm-18.945.134h.029a1.852,1.852,0,0,1,1.086.35,2.343,2.343,0,0,1,.811,1,3.892,3.892,0,0,1,.3,1.577,3.975,3.975,0,0,1-.3,1.628,2.16,2.16,0,0,1-.8.959,2.015,2.015,0,0,1-1.094.313h-.007a1.991,1.991,0,0,1-1.1-.327,2.2,2.2,0,0,1-.8-.982,3.924,3.924,0,0,1-.29-1.592,4.111,4.111,0,0,1,.268-1.547,2.3,2.3,0,0,1,.773-1.027,1.822,1.822,0,0,1,1.124-.357Zm28.079,0h.023a1.891,1.891,0,0,1,1.093.35,2.383,2.383,0,0,1,.8,1,3.775,3.775,0,0,1,.3,1.577,3.861,3.861,0,0,1-.3,1.628,2.2,2.2,0,0,1-.8.959,2.036,2.036,0,0,1-1.1.313h-.007a1.992,1.992,0,0,1-1.1-.327,2.253,2.253,0,0,1-.8-.982,3.928,3.928,0,0,1-.29-1.592,3.961,3.961,0,0,1,.275-1.547A2.287,2.287,0,0,1,49.1,7.748,1.843,1.843,0,0,1,50.234,7.391ZM7.277,7.465a3.958,3.958,0,0,1-2.038.558c-.156,0-.3-.007-.461-.022v5.475a1.64,1.64,0,0,0,.35,1.138A1.146,1.146,0,0,0,6.02,15a1.172,1.172,0,0,0,.907-.379,1.646,1.646,0,0,0,.35-1.146V7.466Z" transform="translate(0)" fill="#2164f3" fill-rule="evenodd"/>
    </g>
  </g>
</svg>
