<svg xmlns="http://www.w3.org/2000/svg" width="30.237" height="35" viewBox="0 0 30.237 35"><g transform="translate(-1610.763 -6448)"><path d="M49.5,35a17.45,17.45,0,0,1-12.737-5.5h2.153a16,16,0,0,0,21.9-23.314,15.971,15.971,0,0,0-21.9-.687H36.763A17.5,17.5,0,1,1,49.5,35Z" transform="translate(1574 6448)" fill="#3091d9"/><g transform="translate(1617.311 6458.568)"><path d="M904.843,494.251a1.32,1.32,0,0,1-1.428,1.323,1.326,1.326,0,1,1,1.428-1.323Zm-2.734,10.884v-8.515h2.647v8.515Z" transform="translate(-902.04 -492.928)" fill="#fff"/><path d="M933.855,522.1c0-1.062-.035-1.95-.07-2.716h2.3l.122,1.184h.052a3.058,3.058,0,0,1,2.63-1.376c1.741,0,3.047,1.167,3.047,3.674V527.9h-2.647v-4.719c0-1.1-.383-1.846-1.341-1.846a1.453,1.453,0,0,0-1.358.992,1.9,1.9,0,0,0-.087.662V527.9h-2.647Z" transform="translate(-929.555 -515.689)" fill="#fff"/></g></g></svg>