<svg xmlns="http://www.w3.org/2000/svg" width="20.285" height="20" viewBox="0 0 20.285 20"><path d="M906.633,495.1a2.162,2.162,0,0,1-2.34,2.168,2.173,2.173,0,1,1,2.34-2.168Zm-4.479,17.832V498.976h4.337v13.952Z" transform="translate(-902.04 -492.928)" fill="#0b2b42"/><path d="M933.9,523.953c0-1.74-.057-3.2-.114-4.451h3.766l.2,1.94h.085a5.01,5.01,0,0,1,4.308-2.254c2.853,0,4.993,1.912,4.993,6.02v8.245H942.8v-7.732c0-1.8-.628-3.024-2.2-3.024a2.381,2.381,0,0,0-2.225,1.626,3.12,3.12,0,0,0-.143,1.084v8.046H933.9Z" transform="translate(-926.854 -513.455)" fill="#0b2b42"/></svg>