<svg xmlns="http://www.w3.org/2000/svg" xmlns:xlink="http://www.w3.org/1999/xlink" width="52.756" height="15" viewBox="0 0 52.756 15"><defs><clipPath id="a"><rect width="52.756" height="15" fill="#fff"/></clipPath></defs><g clip-path="url(#a)"><path d="M13.331,15H1.5A1.5,1.5,0,0,1,0,13.5V1.5A1.5,1.5,0,0,1,1.5,0H13.331a1.5,1.5,0,0,1,1.494,1.5v12A1.5,1.5,0,0,1,13.331,15ZM9.036,6.922c.836,0,1.012.756,1.012,1.391V11.87h1.993V8.077c0-1.733-.858-2.767-2.3-2.767A2.292,2.292,0,0,0,7.763,6.344H7.724l-.09-.892H5.9c.026.6.051,1.259.051,2.047V11.87h2V8.17a1.457,1.457,0,0,1,.064-.5A1.1,1.1,0,0,1,9.036,6.922ZM2.765,5.453V11.87H4.757V5.453ZM3.773,2.672a1,1,0,1,0-.025,1.993.993.993,0,0,0,1.073-1A.979.979,0,0,0,3.773,2.672Z" transform="translate(37.929 -0.001)" fill="#fff" stroke="rgba(0,0,0,0)" stroke-miterlimit="10" stroke-width="1"/><path d="M0,35.079H1.994v7.165H5.511v1.68H0Z" transform="translate(0 -32.054)" fill="#fff"/><path d="M73.633,31.97a.994.994,0,0,1-1.076,1,1,1,0,1,1,1.076-1m-2.06,1.785h1.995v6.416H71.573Z" transform="translate(-65.353 -28.302)" fill="#fff"/><path d="M108.548,63.751c0-.8-.026-1.469-.052-2.047h1.732l.092.892h.039a2.3,2.3,0,0,1,1.981-1.037c1.312,0,2.3.879,2.3,2.769v3.792h-1.995V64.565c0-.827-.289-1.391-1.01-1.391a1.1,1.1,0,0,0-1.024.748,1.438,1.438,0,0,0-.065.5v3.7h-1.995Z" transform="translate(-99.141 -56.252)" fill="#fff"/><path d="M195.557,35.2h.026a8.648,8.648,0,0,1,.459-.774l1.3-1.929h2.4l-2.3,2.6,2.624,3.818h-2.454l-1.562-2.637-.5.63v2.008h-1.995V29.6h1.995Z" transform="translate(-176.873 -27.05)" fill="#fff"/><path d="M266.836,65.549c.052.827.879,1.22,1.811,1.22a5.288,5.288,0,0,0,1.772-.276l.262,1.352a6.066,6.066,0,0,1-2.322.407,3.079,3.079,0,0,1-3.425-3.267,3.214,3.214,0,0,1,3.241-3.425c2.073,0,2.861,1.614,2.861,3.2a4.74,4.74,0,0,1-.066.787Zm2.349-1.365a1.158,1.158,0,0,0-1.128-1.3,1.318,1.318,0,0,0-1.233,1.3Z" transform="translate(-242.09 -56.252)" fill="#fff"/><path d="M347.15,29.6V37c0,.722.026,1.483.053,1.916h-1.772l-.079-.932h-.039a2.241,2.241,0,0,1-2.008,1.076c-1.522,0-2.742-1.3-2.742-3.294-.013-2.165,1.339-3.425,2.874-3.425a1.971,1.971,0,0,1,1.693.722h.026V29.6Zm-1.995,5.616a1.791,1.791,0,0,0-.026-.368,1.2,1.2,0,0,0-1.168-.971c-.919,0-1.378.814-1.378,1.824,0,1.089.538,1.771,1.365,1.771a1.182,1.182,0,0,0,1.168-.958,2.59,2.59,0,0,0,.039-.459Z" transform="translate(-311.199 -27.05)" fill="#fff"/></g></svg>