<svg xmlns="http://www.w3.org/2000/svg" width="15.915" height="15" viewBox="0 0 15.915 15">
  <g id="Group_1655" data-name="Group 1655" transform="translate(-721 -2072)">
    <path id="Path_5529" data-name="Path 5529" d="M55.026,0H67.3a1.832,1.832,0,0,1,1.8,1.842V10.78a1.832,1.832,0,0,1-1.8,1.842h-6l-3.763,2.313a.5.5,0,0,1-.745-.47V12.622H55.025a1.84,1.84,0,0,1-1.842-1.842V1.842A1.84,1.84,0,0,1,55.025,0ZM67.3.98H55.026a.87.87,0,0,0-.862.862V10.78a.837.837,0,0,0,.862.823H57.26a.519.519,0,0,1,.51.51V13.6l3.1-1.882a.423.423,0,0,1,.274-.118h6.154a.8.8,0,0,0,.823-.823V1.842A.837.837,0,0,0,67.295.98Z" transform="translate(667.817 2072)" fill="#e96500"/>
    <path id="Path_5530" data-name="Path 5530" d="M267.208,129.985l-4.194,2.391a.5.5,0,0,1-.745-.431v-4.821a.5.5,0,0,1,.784-.392l4.155,2.391a.513.513,0,0,1,0,.862Zm-3.92,1.1,2.666-1.529-2.666-1.568Z" transform="translate(464.336 1948.758)" fill="#e96500"/>
  </g>
</svg>
