<svg xmlns="http://www.w3.org/2000/svg" width="40" height="40" viewBox="0 0 40 40"><defs><style>.a{fill:#fff;}.b{fill:#e96500;}</style></defs><g transform="translate(-786 -1451)"><circle class="a" cx="20" cy="20" r="20" transform="translate(786 1451)"/><path class="b" d="M15,0A15,15,0,1,1,0,15,15,15,0,0,1,15,0Z" transform="translate(791 1456)"/><g transform="translate(1301.241 2234.819)"><path class="a" d="M451.313,242.786c.538-1.612-1.04-4.176-2.049-5.586l-2.2,2.2,3.553,3.553h0a.419.419,0,0,0,.693-.164Z" transform="translate(-938.823 -1002.898)"/><path class="a" d="M229.45,61.7a.419.419,0,0,0-.164.693l3.553,3.553,2.2-2.2c-1.411-1.009-3.974-2.586-5.586-2.049Z" transform="translate(-728.739 -833.589)"/><path class="a" d="M336.527,125.158l2.96-2.96a.45.45,0,0,1,.592,0l2.368,2.368a.419.419,0,0,1,0,.592l-2.96,2.96a.45.45,0,0,1-.592,0l-2.368-2.368A.419.419,0,0,1,336.527,125.158Z" transform="translate(-832.131 -891.915)"/><path class="a" d="M131.853,255.739a1.256,1.256,0,1,0,1.776,1.776l6.809-6.809-1.776-1.776Z" transform="translate(-634.562 -1014.207)"/></g></g></svg>