<svg xmlns="http://www.w3.org/2000/svg" width="30.237" height="35" viewBox="0 0 30.237 35"><g transform="translate(-278.763 -304.5)"><path d="M49.5,35a17.45,17.45,0,0,1-12.737-5.5h2.153a16,16,0,0,0,21.9-23.314,15.971,15.971,0,0,0-21.9-.687H36.763A17.5,17.5,0,1,1,49.5,35Z" transform="translate(242 304.5)" fill="#e96500"/><g transform="translate(1277.862 291.81) rotate(90)"><path d="M36.2,985.886,32.392,981.6a.714.714,0,1,0-1.064.952l2.753,3.1H24.714a.714.714,0,1,0,0,1.428h9.367l-2.753,3.1a.731.731,0,0,0,.056,1.015.722.722,0,0,0,1.007-.063l3.809-4.286A.722.722,0,0,0,36.2,985.886Z" transform="translate(0 0)" fill="#fff"/></g></g></svg>