<svg xmlns="http://www.w3.org/2000/svg" width="75" height="51.801" viewBox="0 0 75 51.801"><circle cx="25" cy="25" r="25" transform="translate(0 0.9)" fill="#3091d9" opacity="0.2"/><g transform="translate(-2985.01 -2075)"><path d="M165.609,134.53H93.151a1.263,1.263,0,0,0-1.271,1.262v5.946a1.223,1.223,0,0,0,1.271,1.214h6.992v25.424H93.151a1.223,1.223,0,0,0-1.271,1.214v5.946a1.263,1.263,0,0,0,1.271,1.262h72.458a1.263,1.263,0,0,0,1.271-1.262V169.59a1.223,1.223,0,0,0-1.271-1.214h-6.992V142.951h6.992a1.223,1.223,0,0,0,1.271-1.214v-5.946a1.263,1.263,0,0,0-1.271-1.262Zm-62.923,8.422H105.7v25.424h-3.019Zm39.089,25.424V142.951h8.739v25.424Zm-2.542,0h-2.86V142.951h2.86Zm-5.4,0h-8.9V142.951h8.9Zm-11.441,0h-2.86V142.951h2.86Zm-5.4,0h-8.739V142.951h8.739Zm47.352,5.879H94.423v-3.337h69.915Zm-8.263-5.879h-3.019V142.951h3.019Zm8.263-27.966H94.423v-3.337h69.915Z" transform="translate(2893.13 1945.237)" fill="#e96500"/><path d="M165.609,101.72H93.151a1.271,1.271,0,1,0,0,2.542h72.458a1.271,1.271,0,0,0,0-2.542Z" transform="translate(2893.13 1973.28)" fill="#e96500"/><path d="M165.609,440.78H93.151a1.271,1.271,0,0,0,0,2.542h72.458a1.271,1.271,0,0,0,0-2.542Z" transform="translate(2893.13 1683.478)" fill="#e96500"/></g></svg>