<svg xmlns="http://www.w3.org/2000/svg" width="40" height="40" viewBox="0 0 40 40">
  <g id="Group_1285" data-name="Group 1285" transform="translate(-786 -1451)">
    <circle id="Ellipse_71" data-name="Ellipse 71" cx="20" cy="20" r="20" transform="translate(786 1451)" fill="#fff"/>
    <path id="Path_5484" data-name="Path 5484" d="M15,0A15,15,0,1,1,0,15,15,15,0,0,1,15,0Z" transform="translate(791 1456)" fill="#e96500"/>
    <path id="Path_5485" data-name="Path 5485" d="M81.945,29.2a2.46,2.46,0,0,0,1.929-.992c.33-.362.478-.508.823-.508s.493.146.825.508a2.369,2.369,0,0,0,3.857,0c.33-.36.478-.506.816-.506s.491.146.821.506a2.451,2.451,0,0,0,1.927.994,2.486,2.486,0,0,0,1.939-.994c.33-.36.478-.506.821-.506s.491.146.821.506a2.436,2.436,0,0,0,1.927.994h0a.75.75,0,0,0,0-1.5c-.343,0-.491-.146-.821-.506a2.825,2.825,0,0,0-1.215-.883l1.251-4.4a.75.75,0,0,0-.418-.891L94.7,19.878v-4.93a.75.75,0,0,0-.75-.75h-1.5v-2.25a.75.75,0,0,0-.75-.75h-3a.75.75,0,0,0-.75.75V14.2h-1.5a.75.75,0,0,0-.75.75v4.93L83.14,21.014a.75.75,0,0,0-.416.891l1.26,4.4a2.863,2.863,0,0,0-1.215.881c-.33.362-.478.508-.823.508a.75.75,0,1,0,0,1.5ZM94.83,26.367a3.034,3.034,0,0,0-1.061.825c-.33.36-.476.506-.819.506s-.491-.146-.821-.506h0a2.879,2.879,0,0,0-1.183-.872V19.851l5.1,2.267ZM89.445,12.7h1.5v1.5h-1.5Zm-2.25,3h6V19.21l-2.7-1.2a.734.734,0,0,0-.609,0L87.2,19.21Zm2.25,4.153v6.474a2.859,2.859,0,0,0-1.172.866c-.328.36-.478.506-.821.506s-.493-.146-.825-.508h0a3.013,3.013,0,0,0-1.069-.825l-1.213-4.247Z" transform="translate(715.801 1449.802)" fill="#fff"/>
  </g>
</svg>
