<svg xmlns="http://www.w3.org/2000/svg" width="75" height="66.412" viewBox="0 0 75 66.412"><circle cx="25" cy="25" r="25" transform="translate(0.001 8.206)" fill="#3091d9" opacity="0.2"/><g transform="translate(-3051.526 -2724)"><path d="M140.4,61.416a1.7,1.7,0,0,0-1.516,1.729v8.511H123.565c-.053,0-.106,0-.16,0a1.7,1.7,0,1,0,.16,3.4h1.7V88.384l-6.489,2.074a1.7,1.7,0,0,0-.8,2.686,29.593,29.593,0,0,1,6.437,18.4,23.606,23.606,0,0,0-2.633,1.143,9.09,9.09,0,0,1-10.053,0,14.724,14.724,0,0,0-6.888-1.888c-.053,0-.106,0-.16,0a1.7,1.7,0,0,0,.16,3.4,11.068,11.068,0,0,1,5.4,1.516,12.186,12.186,0,0,0,13.032,0,10.374,10.374,0,0,1,10.8,0,12.186,12.186,0,0,0,13.032,0,10.374,10.374,0,0,1,10.8,0,12.186,12.186,0,0,0,13.032,0,11.068,11.068,0,0,1,5.4-1.516,1.7,1.7,0,1,0,0-3.4,14.724,14.724,0,0,0-6.888,1.888,9.09,9.09,0,0,1-10.053,0,23.609,23.609,0,0,0-2.633-1.143,29.592,29.592,0,0,1,6.437-18.4,1.7,1.7,0,0,0-.8-2.686l-6.489-2.074V75.059h1.7a1.7,1.7,0,1,0,0-3.4H142.289V63.144a1.7,1.7,0,0,0-1.729-1.729c-.053,0-.106,0-.16,0ZM128.672,75.059H152.5V87.293L141.119,83.65a1.7,1.7,0,0,0-.692-.08,1.666,1.666,0,0,0-.372.08l-11.383,3.643Zm11.915,11.995,18.59,5.957a33.011,33.011,0,0,0-5.8,17.847c-.285-.02-.576-.053-.878-.053a14.724,14.724,0,0,0-6.888,1.888,9.09,9.09,0,0,1-10.053,0,14.724,14.724,0,0,0-6.888-1.888c-.3,0-.593.034-.878.053A33.016,33.016,0,0,0,122,93.011Zm-35.9,33.964a1.7,1.7,0,0,0,.16,3.4,11.061,11.061,0,0,1,5.4,1.516,12.189,12.189,0,0,0,13.032,0,10.37,10.37,0,0,1,10.8,0,12.189,12.189,0,0,0,13.032,0,10.37,10.37,0,0,1,10.8,0,12.189,12.189,0,0,0,13.032,0,11.062,11.062,0,0,1,5.4-1.516,1.7,1.7,0,1,0,0-3.4,14.731,14.731,0,0,0-6.888,1.888,9.09,9.09,0,0,1-10.053,0,13.512,13.512,0,0,0-13.777,0,9.09,9.09,0,0,1-10.053,0,13.511,13.511,0,0,0-13.777,0,9.09,9.09,0,0,1-10.053,0,14.731,14.731,0,0,0-6.888-1.888,1.43,1.43,0,0,0-.16,0Z" transform="translate(2948.469 2662.586)" fill="#e96500"/></g></svg>