<svg xmlns="http://www.w3.org/2000/svg" width="40" height="40" viewBox="0 0 40 40"><defs><style>.a{fill:#fff;}.b{fill:#e96500;}</style></defs><g transform="translate(-786 -1451)"><circle class="a" cx="20" cy="20" r="20" transform="translate(786 1451)"/><path class="b" d="M15,0A15,15,0,1,1,0,15,15,15,0,0,1,15,0Z" transform="translate(791 1456)"/><g transform="translate(-290.706 2453.649)"><path class="a" d="M228.238,132.09a5.605,5.605,0,0,0-5.918,5.558c0,3.353,2.626,5.827,3.228,8.428h5.379c.6-2.6,3.228-5.075,3.228-8.428a5.6,5.6,0,0,0-5.917-5.558Z" transform="translate(868.469 -1124.006)"/><path class="a" d="M291.97,454.718c0,.779.306,1.085,1.085,1.085h.111l.106.32a.756.756,0,0,0,.873.63h1.028a.756.756,0,0,0,.873-.63l.106-.32h.111c.779,0,1.085-.306,1.085-1.085V453.1H291.97Z" transform="translate(802.047 -1430.135)"/></g></g></svg>