<svg xmlns="http://www.w3.org/2000/svg" width="40" height="40" viewBox="0 0 40 40">
  <g id="Group_1285" data-name="Group 1285" transform="translate(-786 -1451)">
    <circle id="Ellipse_71" data-name="Ellipse 71" cx="20" cy="20" r="20" transform="translate(786 1451)" fill="#fff"/>
    <path id="Path_5484" data-name="Path 5484" d="M15,0A15,15,0,1,1,0,15,15,15,0,0,1,15,0Z" transform="translate(791 1456)" fill="#e96500"/>
    <path id="Path_5486" data-name="Path 5486" d="M148.165,30.4a.533.533,0,0,0,.533-.533V28.538a.534.534,0,0,0-.533-.533H135.582a.534.534,0,0,0-.533.533v1.326a.534.534,0,0,0,.533.533h2.792a2.08,2.08,0,0,1,2.08,2.08v7.055a2.08,2.08,0,0,1-2.08,2.08h-2.792a.534.534,0,0,0-.533.533v1.326a.534.534,0,0,0,.533.533h12.582a.533.533,0,0,0,.533-.533V42.145a.533.533,0,0,0-.533-.533h-2.792a2.08,2.08,0,0,1-2.08-2.08V32.476a2.08,2.08,0,0,1,2.08-2.08Z" transform="translate(664.126 1434.996)" fill="#fff"/>
  </g>
</svg>
