<svg xmlns="http://www.w3.org/2000/svg" width="553.031" height="537.696" viewBox="0 0 553.031 537.696"><path d="M12147.818,1146.859s-.007,0-.011,0l-1.624-17.684h.015l-5.842-63.811q-10.623,1.08-21.288,1.622v-17.81q9.845-.528,19.663-1.534L12137,1028.7c7.763-.2,15.281-2.153,22.923-3.09l2.776,19.111q15.94-2.368,31.689-5.842l-4.027-18.452,22.4-5.81,5.063,18.445q15.507-4.286,30.691-9.65l-6.345-18,21.746-7.924,7.142,17.282q14.867-6.162,29.278-13.375l-8.477-17c6.909-3.414,14.1-6.342,20.526-10.69l9.273,16.366q14-7.949,27.43-16.877l-10.327-15.545c6.585-4.024,12.438-9.143,18.741-13.656l11.355,15.3q12.917-9.6,25.153-20.087l-12.255-14.294,17.152-15.608L12411.949,923q11.665-11.109,22.532-23.022s0-.007.007-.007l-14.068-12.836c5.158-5.771,10.523-11.338,15.565-17.194l14.326,11.75q10.222-12.457,19.544-25.611l-15.418-10.933a141.237,141.237,0,0,0,12.8-19.266l16.053,10.154q8.615-13.609,16.26-27.8l-16.366-8.8,10-20.893,17.254,8.139q6.864-14.539,12.688-29.529l16.584,6.423q-6.045,15.57-13.191,30.688l57.945,27.327q8.112-17.166,15-34.888V786.7l-94.073-36.453,7.963-21.746,17.934,5.877q5.026-15.279,8.96-30.879l-18.621-4.668c1.705-7.519,4.352-14.837,5.405-22.479l18.511,3.608q3.125-15.818,5.155-31.84l-19.029-2.332a109.543,109.543,0,0,0,1.8-16.616h92.906l8.421.588c.015-.2.029-.393.043-.588h17.808q-.064.912-.132,1.825l18.568,1.3c-.486,10.123-.895,20.242-2.724,30.241l-18.762-2.3q-2.458,19.491-6.254,38.785l18.839,3.671c-1.5,10.038-4.675,19.752-6.99,29.628l-18.289-4.584q-4.794,19.015-10.916,37.668l18.248,5.976-10.443,28.617-17.74-6.874,0,0q-7.1,18.3-15.5,36.054l17.18,8.1-13.29,27.394-17.158-9.231q-9.3,17.271-19.795,33.852l16.123,10.2a223.864,223.864,0,0,1-16.824,25.322l-15.664-11.106q-11.336,15.992-23.775,31.164l15.094,12.378c-6.547,7.762-13.537,15.119-20.284,22.68l-14.051-12.818-.015.014q-13.2,14.481-27.407,28.014l13.216,13.875-22.518,20.446-12.516-14.6q-14.877,12.753-30.621,24.445l11.32,15.249c-8.213,5.933-16.056,12.437-24.632,17.8L12404.2,1056.2q-16.346,10.855-33.429,20.548l9.488,16.743c-8.5,5.57-17.846,9.636-26.95,14.107l-8.5-17.032q-17.546,8.778-35.7,16.3l7.393,17.888-28.571,10.524-6.3-17.881q-18.5,6.532-37.429,11.761l5.01,18.255-29.508,7.561-4.083-18.73q-19.169,4.223-38.6,7.093l2.692,18.526c-10.038,1.3-20.038,3.537-30.16,3.985Zm17.434-84.553,9.217,63.445q18.788-2.785,37.365-6.874l-13.663-62.631Q12181.823,1059.849,12165.252,1062.305Zm57.272-12.1,16.972,61.81q18.308-5.053,36.227-11.38l-21.3-60.45Q12238.656,1045.747,12222.524,1050.2Zm55.323-19,24.48,59.231q17.536-7.262,34.521-15.76l7.86,15.675-36.432-73.028h0Q12293.313,1024.806,12277.848,1031.2Zm52.568-25.671,31.6,55.757q16.522-9.37,32.358-19.893l-35.451-53.386Q12344.978,997.272,12330.416,1005.534Zm49.038-31.953,38.2,51.455q15.226-11.315,29.642-23.67l-41.706-48.65Q12392.892,963.6,12379.454,973.581Zm68.155-61.609q-11.268,12.356-23.392,23.906l44.2,46.4q13.742-13.1,26.541-27.137s0,0,.008,0l-47.34-43.179A.04.04,0,0,0,12447.609,911.971Zm16.443-19L12513.6,933.6q12.034-14.671,23.021-30.174l-52.265-37.066Q12474.678,880.008,12464.053,892.966Zm34.261-47.428,54.146,34.25q10.159-16.04,19.167-32.771l-56.423-30.357Q12507.272,831.391,12498.313,845.539Zm49.866-105.63,60.915,19.956q5.924-18.027,10.569-36.456l-62.18-15.591Q12553.4,724.027,12548.18,739.909Zm14.8-56.553,62.92,12.261q3.678-18.656,6.061-37.545l-63.625-7.794Q12566.236,666.905,12562.984,683.356Zm-443.916,447.778q13.578-.6,27.115-1.955l1.624,17.684q-14.341,1.433-28.739,2.046Z" transform="translate(-12118.568 -628.667)" fill="#3091d9" stroke="rgba(0,0,0,0)" stroke-miterlimit="10" stroke-width="1" opacity="0.1"/></svg>