<svg xmlns="http://www.w3.org/2000/svg" width="22.614" height="18.375" viewBox="0 0 22.614 18.375"><path d="M82.112,116.826a13.112,13.112,0,0,0,13.2-13.2c0-.2,0-.4-.014-.6a9.44,9.44,0,0,0,2.315-2.4,9.261,9.261,0,0,1-2.665.73,4.656,4.656,0,0,0,2.04-2.566,9.3,9.3,0,0,1-2.946,1.126,4.644,4.644,0,0,0-7.907,4.232A13.172,13.172,0,0,1,76.574,99.3a4.643,4.643,0,0,0,1.436,6.194,4.605,4.605,0,0,1-2.106-.581v.059a4.641,4.641,0,0,0,3.722,4.548,4.632,4.632,0,0,1-2.095.08,4.645,4.645,0,0,0,4.335,3.222,9.31,9.31,0,0,1-5.762,1.99,9.445,9.445,0,0,1-1.1-.067,13.135,13.135,0,0,0,7.112,2.081" transform="translate(-75 -98.45)" fill="#fff"/></svg>