<svg xmlns="http://www.w3.org/2000/svg" width="18.46" height="15" viewBox="0 0 18.46 15"><path d="M80.805,113.45a10.7,10.7,0,0,0,10.776-10.776c0-.164,0-.327-.011-.49a7.706,7.706,0,0,0,1.89-1.96,7.56,7.56,0,0,1-2.175.6,3.8,3.8,0,0,0,1.665-2.095,7.59,7.59,0,0,1-2.405.919,3.791,3.791,0,0,0-6.454,3.454,10.753,10.753,0,0,1-7.806-3.957,3.79,3.79,0,0,0,1.173,5.056,3.759,3.759,0,0,1-1.719-.474v.048a3.789,3.789,0,0,0,3.039,3.713,3.781,3.781,0,0,1-1.71.065,3.792,3.792,0,0,0,3.538,2.63,7.6,7.6,0,0,1-4.7,1.624,7.706,7.706,0,0,1-.9-.055,10.722,10.722,0,0,0,5.805,1.7" transform="translate(-75 -98.45)" fill="#fff"/></svg>