<svg xmlns="http://www.w3.org/2000/svg" width="40" height="40" viewBox="0 0 40 40"><defs><style>.a{fill:#fff;}.b{fill:#e96500;}</style></defs><g transform="translate(-357 201)"><circle class="a" cx="20" cy="20" r="20" transform="translate(357 -201)"/><path class="b" d="M15,0A15,15,0,1,1,0,15,15,15,0,0,1,15,0Z" transform="translate(362 -196)"/><g transform="translate(-1073.689 1022.5)"><path class="a" d="M171.889,72.8a3.851,3.851,0,1,0,3.851,3.851A3.867,3.867,0,0,0,171.889,72.8Zm0,2.027a1.824,1.824,0,1,1-1.824,1.824A1.809,1.809,0,0,1,171.889,74.828Zm0,6.081a6.609,6.609,0,0,0-6.689,6.512v.38h2.027v-.38a4.666,4.666,0,0,1,9.324,0v.38h2.027v-.38A6.608,6.608,0,0,0,171.889,80.909Z" transform="translate(1278.8 -1284.801)"/></g></g></svg>