<svg xmlns="http://www.w3.org/2000/svg" width="108.585" height="50" viewBox="0 0 108.585 50"><g transform="translate(-159.708 -1001)"><path d="M158.495,57.891V40.725c.138-6.51,9.9-6.289,9.911.1v8.683a4.949,4.949,0,0,1,6.534,2.649,4.961,4.961,0,0,1,7.3,4.262,4.968,4.968,0,0,1,6.919,4.554V76.2a1.4,1.4,0,0,1-.2.744c-.625,1.2-4.9,9-10.009,8.993H164.776a1.747,1.747,0,0,1-.417-.055c-.626-.15-10.253-2.527-10.253-10.155,0-4.877-1.653-10.695-4.833-14.465-2.244-2.645-2.429-6.38,1.865-6.675,3.448-.331,5.334,1.015,7.356,3.3Zm23.746,3.082V65.16a1.5,1.5,0,0,1-3-.008l0-8.64a1.96,1.96,0,0,0-3.916-.094V62.7a1.5,1.5,0,0,1-3,0V54.053a1.961,1.961,0,1,0-3.92.1l0,5.286a1.5,1.5,0,0,1-3,0V40.817a1.96,1.96,0,0,0-3.92.008q0,11.023,0,22.042a1.5,1.5,0,0,1-2.791.74c-.838-2.865-3.884-6.4-7.285-6.042-1.575.142-.417,1.11.142,1.764,3.629,4.262,5.557,10.868,5.55,16.408,0,4.912,6.612,6.881,7.86,7.207l13.981-.008c3.353.008,6.553-5.813,7.21-7.085V60.969a1.958,1.958,0,0,0-3.916,0Z" transform="translate(382.434 1086.937) rotate(180)" fill="#e96500"/><g transform="translate(249.722 1018.5)"><path d="M42.3,988.148l-5.714-6.428a1.071,1.071,0,1,0-1.6,1.429l4.129,4.643H25.071a1.071,1.071,0,1,0,0,2.143h14.05l-4.129,4.643a1.1,1.1,0,0,0,.085,1.523A1.083,1.083,0,0,0,36.588,996l5.714-6.429A1.082,1.082,0,0,0,42.3,988.148Z" transform="translate(-24 -981.361)" fill="#3091d9"/></g><g transform="translate(159.708 1018.5)"><path d="M24.269,988.148l5.714-6.429a1.071,1.071,0,1,1,1.6,1.429l-4.129,4.643H41.5a1.071,1.071,0,1,1,0,2.143H27.449l4.129,4.643a1.1,1.1,0,0,1-.085,1.523A1.083,1.083,0,0,1,29.983,996l-5.714-6.429A1.082,1.082,0,0,1,24.269,988.148Z" transform="translate(-24 -981.361)" fill="#3091d9"/></g></g></svg>