<svg xmlns="http://www.w3.org/2000/svg" xmlns:xlink="http://www.w3.org/1999/xlink" width="67.191" height="15" viewBox="0 0 67.191 15"><defs><clipPath id="a"><rect width="67.191" height="15" fill="#fff"/></clipPath></defs><g clip-path="url(#a)"><path d="M10.715,15c-.067,0-6.718-.005-8.374-.449A2.671,2.671,0,0,1,.449,12.659,27.934,27.934,0,0,1,0,7.5,27.935,27.935,0,0,1,.449,2.34,2.682,2.682,0,0,1,2.341.449C4,.005,10.647,0,10.715,0s6.718.005,8.37.449a2.682,2.682,0,0,1,1.9,1.892A27.934,27.934,0,0,1,21.43,7.5a27.934,27.934,0,0,1-.449,5.159,2.672,2.672,0,0,1-1.9,1.892C17.433,14.994,10.782,15,10.715,15ZM8.572,4.284h0v6.43L14.14,7.5,8.572,4.284Z" transform="translate(0 0)" fill="#fff" stroke="rgba(0,0,0,0)" stroke-miterlimit="10" stroke-width="1"/><path d="M170.861,33.931a2.334,2.334,0,0,1-.9-1.333,8.725,8.725,0,0,1-.268-2.406V28.828A7.91,7.91,0,0,1,170,26.391a2.445,2.445,0,0,1,.958-1.341,3.1,3.1,0,0,1,1.709-.421,2.913,2.913,0,0,1,1.67.429,2.458,2.458,0,0,1,.919,1.341,8.226,8.226,0,0,1,.291,2.429v1.364a8.36,8.36,0,0,1-.284,2.414,2.37,2.37,0,0,1-.919,1.333,3.769,3.769,0,0,1-3.479-.008m2.375-1.471a4.582,4.582,0,0,0,.176-1.5V28.031a4.53,4.53,0,0,0-.176-1.479.631.631,0,0,0-.621-.467.622.622,0,0,0-.605.467,4.521,4.521,0,0,0-.176,1.479v2.927a4.77,4.77,0,0,0,.168,1.5.616.616,0,0,0,.613.46.629.629,0,0,0,.621-.46" transform="translate(-139.758 -20.285)" fill="#fff"/><path d="M351.2,30.247v.475a12.494,12.494,0,0,0,.054,1.356,1.285,1.285,0,0,0,.222.659.632.632,0,0,0,.521.207.656.656,0,0,0,.651-.368,3.205,3.205,0,0,0,.192-1.226l1.823.107a2.879,2.879,0,0,1,.015.337,2.492,2.492,0,0,1-.713,1.946,2.9,2.9,0,0,1-2.015.644,2.4,2.4,0,0,1-2.191-.981,5.744,5.744,0,0,1-.628-3.034V28.73a5.68,5.68,0,0,1,.651-3.088,2.483,2.483,0,0,1,2.23-.973,2.946,2.946,0,0,1,1.67.4,2.139,2.139,0,0,1,.82,1.241,8.969,8.969,0,0,1,.238,2.329v1.609Zm.268-3.954a1.292,1.292,0,0,0-.215.651,12.693,12.693,0,0,0-.054,1.372v.674h1.548v-.674a11.413,11.413,0,0,0-.061-1.372,1.312,1.312,0,0,0-.222-.659.614.614,0,0,0-.5-.192.6.6,0,0,0-.5.2" transform="translate(-287.545 -20.318)" fill="#fff"/><path d="M135.908,14.725,133.5,6.036h2.1l.843,3.938q.322,1.456.475,2.483h.061q.107-.736.475-2.467l.874-3.954h2.1l-2.437,8.689v4.168h-2.084Z" transform="translate(-109.954 -4.971)" fill="#fff"/><path d="M214.825,25.672v9.394H213.17l-.184-1.149h-.046a2.163,2.163,0,0,1-2.023,1.3,1.589,1.589,0,0,1-1.379-.613,3.29,3.29,0,0,1-.444-1.916V25.672h2.115v6.9a2.1,2.1,0,0,0,.138.9.477.477,0,0,0,.46.268.937.937,0,0,0,.529-.169,1.043,1.043,0,0,0,.376-.429V25.672Z" transform="translate(-172.212 -21.144)" fill="#fff"/><path d="M276.321,25.672v9.394h-1.655l-.184-1.149h-.046a2.163,2.163,0,0,1-2.023,1.3,1.589,1.589,0,0,1-1.379-.613,3.29,3.29,0,0,1-.444-1.916V25.672H272.7v6.9a2.1,2.1,0,0,0,.138.9.477.477,0,0,0,.46.268.937.937,0,0,0,.529-.169,1.042,1.042,0,0,0,.376-.429V25.672Z" transform="translate(-222.861 -21.144)" fill="#fff"/><path d="M244.9,7.739h-2.1V18.895h-2.069V7.739h-2.1v-1.7H244.9Z" transform="translate(-196.54 -4.973)" fill="#fff"/><path d="M316.037,8.783a2.416,2.416,0,0,0-.621-1.287,1.667,1.667,0,0,0-1.18-.4,1.956,1.956,0,0,0-1.088.329,2.238,2.238,0,0,0-.782.866h-.015V3.343h-2.038V16.675h1.747l.214-.889h.046a1.794,1.794,0,0,0,.736.751,2.18,2.18,0,0,0,1.088.276,1.665,1.665,0,0,0,1.578-.988,7.114,7.114,0,0,0,.506-3.088V11.251a12.35,12.35,0,0,0-.192-2.468M314.1,12.615a11.887,11.887,0,0,1-.084,1.609,1.74,1.74,0,0,1-.283.827.655.655,0,0,1-.536.245.979.979,0,0,1-.483-.123.921.921,0,0,1-.36-.368V9.473a1.336,1.336,0,0,1,.368-.628.814.814,0,0,1,.567-.245.572.572,0,0,1,.5.253,1.947,1.947,0,0,1,.245.851,15.868,15.868,0,0,1,.069,1.7Z" transform="translate(-255.577 -2.753)" fill="#fff"/></g></svg>