<svg xmlns="http://www.w3.org/2000/svg" xmlns:xlink="http://www.w3.org/1999/xlink" width="23.586" height="16.51" viewBox="0 0 23.586 16.51"><defs><clipPath id="a"><rect width="23.586" height="16.51" fill="#fff"/></clipPath></defs><g clip-path="url(#a)"><path d="M23.093,2.578A2.954,2.954,0,0,0,21.008.493C19.169,0,11.793,0,11.793,0S4.418,0,2.578.493A2.954,2.954,0,0,0,.493,2.578,30.688,30.688,0,0,0,0,8.255a30.689,30.689,0,0,0,.493,5.677,2.954,2.954,0,0,0,2.085,2.085c1.839.493,9.215.493,9.215.493s7.376,0,9.215-.493a2.954,2.954,0,0,0,2.085-2.085,30.689,30.689,0,0,0,.493-5.677,30.688,30.688,0,0,0-.493-5.677M9.435,11.793V4.717l6.128,3.538Z" transform="translate(0 0)" fill="#fff"/></g></svg>