<svg xmlns="http://www.w3.org/2000/svg" xmlns:xlink="http://www.w3.org/1999/xlink" width="28.572" height="20" viewBox="0 0 28.572 20"><defs><clipPath id="a"><rect width="28.572" height="20" fill="#0b2b42"/></clipPath></defs><g transform="translate(0 0)" clip-path="url(#a)"><path d="M27.974,3.123A3.578,3.578,0,0,0,25.449.6C23.22,0,14.286,0,14.286,0S5.351,0,3.123.6A3.578,3.578,0,0,0,.6,3.123,37.174,37.174,0,0,0,0,10a37.176,37.176,0,0,0,.6,6.877A3.578,3.578,0,0,0,3.123,19.4c2.228.6,11.163.6,11.163.6s8.935,0,11.163-.6a3.578,3.578,0,0,0,2.526-2.526,37.176,37.176,0,0,0,.6-6.877,37.174,37.174,0,0,0-.6-6.877M11.429,14.286V5.714L18.851,10Z" transform="translate(0 0)" fill="#0b2b42"/></g></svg>