<svg xmlns="http://www.w3.org/2000/svg" width="40" height="40" viewBox="0 0 40 40">
  <g id="Group_1285" data-name="Group 1285" transform="translate(-786 -1451)">
    <circle id="Ellipse_71" data-name="Ellipse 71" cx="20" cy="20" r="20" transform="translate(786 1451)" fill="#fff"/>
    <path id="Path_5484" data-name="Path 5484" d="M15,0A15,15,0,1,1,0,15,15,15,0,0,1,15,0Z" transform="translate(791 1456)" fill="#e96500"/>
    <g id="Group_1600" data-name="Group 1600" transform="translate(11629.904 2302.5)">
      <path id="Path_5478" data-name="Path 5478" d="M133.11,73.377l-7.917-3.333h0a.392.392,0,0,0-.383,0l-7.917,3.333h0a.416.416,0,0,0-.225.367V84.577a.417.417,0,0,0,.417.417h1.667a.417.417,0,0,0,.417-.417v-8.75h11.666v8.75a.417.417,0,0,0,.417.417h1.667a.417.417,0,0,0,.417-.417V73.744a.416.416,0,0,0-.225-.367Z" transform="translate(-10948.906 -908.994)" fill="#fff"/>
      <path id="Path_5479" data-name="Path 5479" d="M245.419,396.67h2.5a.448.448,0,0,1,.417.417v2.5a.417.417,0,0,1-.417.417h-2.5a.448.448,0,0,1-.417-.417v-2.5A.417.417,0,0,1,245.419,396.67Z" transform="translate(-11072.656 -1224.003)" fill="#fff"/>
      <path id="Path_5480" data-name="Path 5480" d="M362.079,396.67h2.5a.448.448,0,0,1,.417.417v2.5a.417.417,0,0,1-.417.417h-2.5a.448.448,0,0,1-.417-.417v-2.5A.417.417,0,0,1,362.079,396.67Z" transform="translate(-11185.149 -1224.003)" fill="#fff"/>
      <path id="Path_5481" data-name="Path 5481" d="M303.749,280h2.5a.448.448,0,0,1,.417.417v2.5a.417.417,0,0,1-.417.417h-2.5a.448.448,0,0,1-.417-.417v-2.5A.417.417,0,0,1,303.749,280Z" transform="translate(-11128.902 -1111.5)" fill="#fff"/>
    </g>
  </g>
</svg>
