<svg xmlns="http://www.w3.org/2000/svg" width="40" height="40" viewBox="0 0 40 40"><defs><style>.a{fill:#fff;}.b{fill:#e96500;}</style></defs><g transform="translate(-786 -1451)"><circle class="a" cx="20" cy="20" r="20" transform="translate(786 1451)"/><path class="b" d="M15,0A15,15,0,1,1,0,15,15,15,0,0,1,15,0Z" transform="translate(791 1456)"/><path class="a" d="M183.878,7.671c-.335-.107-.662-.2-.985-.282V6.347a.533.533,0,0,0-.441-.527,17.6,17.6,0,0,0-5.724,0,.533.533,0,0,0-.443.527V7.388c-.323.082-.651.176-.985.282a2.369,2.369,0,0,0-1.595,2.374v8.5a2.221,2.221,0,0,0,1.828,1.989l-1.346,2.182a.815.815,0,1,0,1.443.757l.452-.671H183.1l.452.671a.815.815,0,0,0,1.443-.757l-1.348-2.182a2.221,2.221,0,0,0,1.821-1.989v-8.5a2.366,2.366,0,0,0-1.589-2.374Zm-5.917-.015h0a.243.243,0,0,1,.219-.232,9.693,9.693,0,0,1,2.821,0,.243.243,0,0,1,.219.232v.953a.249.249,0,0,1-.262.234h-2.735a.249.249,0,0,1-.262-.234Zm-2.283,9.578a1.122,1.122,0,1,1,.328.793A1.122,1.122,0,0,1,175.678,17.233Zm1.088,4.262.579-.922h4.487l.58.922Zm5.609-3.146h0a.707.707,0,1,1,.007,0Zm1.2-7.127-.675,2.9a.479.479,0,0,1-.467.374h-5.693a.478.478,0,0,1-.467-.374l-.684-2.9a.435.435,0,0,1,.426-.531h7.142a.435.435,0,0,1,.426.531Z" transform="translate(626.415 1456.246)"/></g></svg>