<svg xmlns="http://www.w3.org/2000/svg" width="80.096" height="35" viewBox="0 0 80.096 35"><g transform="translate(17013.096 -2863)"><path d="M49.5,35a17.45,17.45,0,0,1-12.737-5.5h2.153a16,16,0,0,0,21.9-23.314,15.971,15.971,0,0,0-21.9-.687H36.763A17.5,17.5,0,1,1,49.5,35Z" transform="translate(-17000 2863)" fill="#3091d9"/><path d="M10.715,15c-.067,0-6.72-.005-8.372-.448a2.684,2.684,0,0,1-1.9-1.894A28.071,28.071,0,0,1,0,7.5,28.058,28.058,0,0,1,.447,2.343,2.682,2.682,0,0,1,2.343.448C3.994.005,10.647,0,10.715,0s6.72.005,8.372.448a2.682,2.682,0,0,1,1.895,1.895A28,28,0,0,1,21.429,7.5a28.016,28.016,0,0,1-.448,5.158,2.684,2.684,0,0,1-1.895,1.894C17.434,15,10.782,15,10.715,15ZM8.573,4.286v6.429L14.139,7.5Z" transform="translate(-17012.596 2873)" fill="#fff" stroke="rgba(0,0,0,0)" stroke-miterlimit="10" stroke-width="1"/><path d="M170.861,33.931a2.334,2.334,0,0,1-.9-1.333,8.725,8.725,0,0,1-.268-2.406V28.828A7.909,7.909,0,0,1,170,26.391a2.445,2.445,0,0,1,.958-1.341,3.1,3.1,0,0,1,1.709-.421,2.913,2.913,0,0,1,1.67.429,2.459,2.459,0,0,1,.919,1.341,8.226,8.226,0,0,1,.291,2.429v1.364a8.359,8.359,0,0,1-.284,2.414,2.37,2.37,0,0,1-.919,1.333,3.769,3.769,0,0,1-3.479-.008m2.375-1.471a4.582,4.582,0,0,0,.176-1.5V28.031a4.53,4.53,0,0,0-.176-1.479.631.631,0,0,0-.621-.467.622.622,0,0,0-.605.467,4.521,4.521,0,0,0-.176,1.479v2.927a4.77,4.77,0,0,0,.168,1.5.616.616,0,0,0,.613.46.629.629,0,0,0,.621-.46" transform="translate(-17152.354 2852.716)" fill="#fff"/><path d="M351.2,30.247v.475a12.494,12.494,0,0,0,.054,1.356,1.285,1.285,0,0,0,.222.659.632.632,0,0,0,.521.207.656.656,0,0,0,.651-.368,3.205,3.205,0,0,0,.192-1.226l1.823.107a2.872,2.872,0,0,1,.015.337,2.492,2.492,0,0,1-.713,1.946,2.9,2.9,0,0,1-2.015.644,2.4,2.4,0,0,1-2.191-.981,5.744,5.744,0,0,1-.628-3.034V28.73a5.68,5.68,0,0,1,.651-3.088,2.483,2.483,0,0,1,2.23-.973,2.946,2.946,0,0,1,1.67.4,2.139,2.139,0,0,1,.82,1.241,8.968,8.968,0,0,1,.238,2.329v1.609Zm.268-3.954a1.292,1.292,0,0,0-.215.651,12.693,12.693,0,0,0-.054,1.372v.674h1.548v-.674a11.413,11.413,0,0,0-.061-1.372,1.312,1.312,0,0,0-.222-.659.614.614,0,0,0-.5-.192.6.6,0,0,0-.5.2" transform="translate(-17300.141 2852.683)" fill="#fff"/><path d="M135.908,14.725,133.5,6.036h2.1l.843,3.938q.322,1.456.475,2.483h.061q.107-.736.475-2.467l.874-3.954h2.1l-2.437,8.689v4.168h-2.084Z" transform="translate(-17122.549 2868.029)" fill="#fff"/><path d="M214.825,25.672v9.394H213.17l-.184-1.149h-.046a2.163,2.163,0,0,1-2.023,1.3,1.589,1.589,0,0,1-1.379-.613,3.29,3.29,0,0,1-.444-1.916V25.672h2.115v6.9a2.1,2.1,0,0,0,.138.9.477.477,0,0,0,.46.268.937.937,0,0,0,.529-.169,1.042,1.042,0,0,0,.376-.429V25.672Z" transform="translate(-17184.809 2851.857)" fill="#fff"/><path d="M276.321,25.672v9.394h-1.655l-.184-1.149h-.046a2.163,2.163,0,0,1-2.023,1.3,1.589,1.589,0,0,1-1.379-.613,3.29,3.29,0,0,1-.444-1.916V25.672H272.7v6.9a2.1,2.1,0,0,0,.138.9.477.477,0,0,0,.46.268.937.937,0,0,0,.529-.169,1.042,1.042,0,0,0,.376-.429V25.672Z" transform="translate(-17235.457 2851.857)" fill="#fff"/><path d="M244.9,7.739h-2.1V18.895h-2.069V7.739h-2.1v-1.7H244.9Z" transform="translate(-17209.135 2868.028)" fill="#fff"/><path d="M316.036,8.783a2.416,2.416,0,0,0-.621-1.287,1.667,1.667,0,0,0-1.18-.4,1.956,1.956,0,0,0-1.088.329,2.239,2.239,0,0,0-.782.866h-.015V3.343h-2.038V16.675h1.747l.214-.889h.046a1.794,1.794,0,0,0,.736.751,2.18,2.18,0,0,0,1.088.276,1.665,1.665,0,0,0,1.578-.988,7.113,7.113,0,0,0,.506-3.088V11.251a12.349,12.349,0,0,0-.192-2.468M314.1,12.615a11.893,11.893,0,0,1-.084,1.609,1.739,1.739,0,0,1-.283.827.655.655,0,0,1-.536.245.979.979,0,0,1-.483-.123.921.921,0,0,1-.36-.368V9.473a1.336,1.336,0,0,1,.368-.628.814.814,0,0,1,.567-.245.572.572,0,0,1,.5.253,1.946,1.946,0,0,1,.245.851,15.86,15.86,0,0,1,.069,1.7Z" transform="translate(-17268.172 2870.247)" fill="#fff"/><rect width="67.191" height="15" transform="translate(-17012.596 2873)" fill="none"/></g></svg>