<svg xmlns="http://www.w3.org/2000/svg" width="30.237" height="35" viewBox="0 0 30.237 35"><g transform="translate(-4660.763 143)"><g transform="translate(4669.5 -119.31) rotate(-90)"><path d="M12.2,5.476,8.392,9.762a.714.714,0,1,1-1.064-.952l2.753-3.1H.714a.714.714,0,1,1,0-1.428h9.367L7.328,1.19A.731.731,0,0,1,7.385.175.722.722,0,0,1,8.392.238L12.2,4.524A.722.722,0,0,1,12.2,5.476Z" transform="translate(0 0)" fill="#e96500"/></g><path d="M49.5,35a17.45,17.45,0,0,1-12.737-5.5h2.153a16,16,0,0,0,21.9-23.314,15.971,15.971,0,0,0-21.9-.687H36.763A17.5,17.5,0,1,1,49.5,35Z" transform="translate(4624 -143)" fill="#3091d9"/></g></svg>