<svg xmlns="http://www.w3.org/2000/svg" width="40" height="40" viewBox="0 0 40 40"><defs><style>.a{fill:#fff;}.b{fill:#e96500;}</style></defs><g transform="translate(-786 -1451)"><circle class="a" cx="20" cy="20" r="20" transform="translate(786 1451)"/><path class="b" d="M15,0A15,15,0,1,1,0,15,15,15,0,0,1,15,0Z" transform="translate(791 1456)"/><g transform="translate(1319.203 2459.796)"><path class="a" d="M188.593,49.772h-2.221a33.228,33.228,0,0,0,0,11.606h2.221a.356.356,0,0,1,0,.713h-2.346a4.275,4.275,0,0,0-.282,2.089.36.36,0,0,0,.353.306h11.621a.357.357,0,0,0,.353-.307,4.275,4.275,0,0,0-.282-2.089h-2.342a.356.356,0,0,1,0-.713h2.217a33.065,33.065,0,0,0,0-11.606h-2.217a.356.356,0,0,1,0-.713h2.342a4.275,4.275,0,0,0,.282-2.089.357.357,0,0,0-.353-.307H186.318a.36.36,0,0,0-.353.307,4.274,4.274,0,0,0,.282,2.089h2.346a.356.356,0,1,1,0,.713Zm7.535,7.55h-8a.356.356,0,0,1,0-.713h8a.356.356,0,1,1,0,.713Zm0-3.493a.356.356,0,1,1,0,.713h-8a.356.356,0,0,1,0-.713Z" transform="translate(-705.328 -1044.371)"/></g></g></svg>