<svg xmlns="http://www.w3.org/2000/svg" width="40" height="40" viewBox="0 0 40 40"><defs><style>.a,.c{fill:#fff;}.b{fill:#e96500;}.c{fill-rule:evenodd;}</style></defs><g transform="translate(-786 -1451)"><circle class="a" cx="20" cy="20" r="20" transform="translate(786 1451)"/><path class="b" d="M15,0A15,15,0,1,1,0,15,15,15,0,0,1,15,0Z" transform="translate(791 1456)"/><g transform="translate(1551.959 2348.734)"><path class="c" d="M227.041,32.671h0a5.462,5.462,0,0,1-1.549,3.528l-1.158,1.179a5.588,5.588,0,0,0,0,7.8,5.462,5.462,0,0,1,1.549-3.528l1.158-1.179a5.588,5.588,0,0,0,0-7.8h0Zm-2.707-4.68a5.462,5.462,0,0,1-1.549,3.528L221.627,32.7a5.588,5.588,0,0,0,0,7.8h0a5.462,5.462,0,0,1,1.549-3.528l1.158-1.179a5.588,5.588,0,0,0,0-7.8Z" transform="translate(-975.994 -913.16)"/><path class="c" d="M191.757,15.149a.28.28,0,0,1-.14-.037.245.245,0,0,1-.107-.313l3.01-6.706h-2.763a.273.273,0,0,1-.229-.12.238.238,0,0,1-.012-.245l4.03-7.56a.271.271,0,0,1,.24-.139h4.3a.272.272,0,0,1,.235.131.239.239,0,0,1-.008.256l-3.142,4.653h3.184a.27.27,0,0,1,.243.146.24.24,0,0,1-.038.269l-8.6,9.576a.277.277,0,0,1-.206.089" transform="translate(-937.651 -886.015)"/></g></g></svg>