<svg xmlns="http://www.w3.org/2000/svg" width="13.378" height="15" viewBox="0 0 13.378 15">
  <g id="Group_1654" data-name="Group 1654" transform="translate(-1184.669 -1381)">
    <path id="Path_5528" data-name="Path 5528" d="M171.889,72.8a3.851,3.851,0,1,0,3.851,3.851A3.867,3.867,0,0,0,171.889,72.8Zm0,2.027a1.824,1.824,0,1,1-1.824,1.824A1.809,1.809,0,0,1,171.889,74.828Zm0,6.081a6.609,6.609,0,0,0-6.689,6.512v.38h2.027v-.38a4.666,4.666,0,0,1,9.324,0v.38h2.027v-.38A6.608,6.608,0,0,0,171.889,80.909Z" transform="translate(1019.469 1308.199)" fill="#e96500"/>
  </g>
</svg>
