<svg xmlns="http://www.w3.org/2000/svg" width="40" height="40" viewBox="0 0 40 40"><defs><style>.a{fill:#fff;}.b{fill:#e96500;}</style></defs><g transform="translate(-357 301)"><circle class="a" cx="20" cy="20" r="20" transform="translate(357 -301)"/><path class="b" d="M15,0A15,15,0,1,1,0,15,15,15,0,0,1,15,0Z" transform="translate(362 -296)"/><g transform="translate(-148.958 307.5)"><path class="a" d="M55.026,0H67.3a1.832,1.832,0,0,1,1.8,1.842V10.78a1.832,1.832,0,0,1-1.8,1.842h-6l-3.763,2.313a.5.5,0,0,1-.745-.47V12.622H55.025a1.84,1.84,0,0,1-1.842-1.842V1.842A1.84,1.84,0,0,1,55.025,0ZM67.3.98H55.026a.87.87,0,0,0-.862.862V10.78a.837.837,0,0,0,.862.823H57.26a.519.519,0,0,1,.51.51V13.6l3.1-1.882a.423.423,0,0,1,.274-.118h6.154a.8.8,0,0,0,.823-.823V1.842A.837.837,0,0,0,67.295.98Z" transform="translate(464.817 -595)"/><path class="a" d="M267.208,129.985l-4.194,2.391a.5.5,0,0,1-.745-.431v-4.821a.5.5,0,0,1,.784-.392l4.155,2.391a.513.513,0,0,1,0,.862Zm-3.92,1.1,2.666-1.529-2.666-1.568Z" transform="translate(261.336 -718.242)"/></g></g></svg>