<svg id="Group_2129" data-name="Group 2129" xmlns="http://www.w3.org/2000/svg" xmlns:xlink="http://www.w3.org/1999/xlink" width="19.448" height="19.448" viewBox="0 0 19.448 19.448">
  <defs>
    <clipPath id="clip-path">
      <rect id="Rectangle_651" data-name="Rectangle 651" width="19.448" height="19.448" fill="#fff"/>
    </clipPath>
  </defs>
  <g id="Group_2127" data-name="Group 2127" clip-path="url(#clip-path)">
    <path id="Path_5590" data-name="Path 5590" d="M18.683,5.939a9.754,9.754,0,1,0,.764,3.785,9.69,9.69,0,0,0-.764-3.785M9.724,18.565a8.8,8.8,0,0,1-5.468-1.9.469.469,0,0,0,.033-.134,5.4,5.4,0,0,1,.4-1.6,5.464,5.464,0,0,1,10.063,0,5.4,5.4,0,0,1,.4,1.6.467.467,0,0,0,.033.134,8.8,8.8,0,0,1-5.468,1.9M8.474,10.2a3.226,3.226,0,1,1,1.25.252,3.2,3.2,0,0,1-1.25-.252m7.549,5.72a6.409,6.409,0,0,0-4.413-4.979,4.153,4.153,0,1,0-3.773,0,6.409,6.409,0,0,0-4.413,4.979,8.841,8.841,0,1,1,12.6,0" fill="#fff"/>
  </g>
</svg>
