<svg xmlns="http://www.w3.org/2000/svg" width="40" height="40" viewBox="0 0 40 40"><defs><style>.a{fill:#fff;}.b{fill:#e96500;}</style></defs><g transform="translate(-357 401)"><circle class="a" cx="20" cy="20" r="20" transform="translate(357 -401)"/><path class="b" d="M15,0A15,15,0,1,1,0,15,15,15,0,0,1,15,0Z" transform="translate(362 -396)"/><g transform="translate(247.5 -440.5)"><path class="a" d="M125.385,67.5h9.231a2.888,2.888,0,0,0,2.885-2.885V59.423a.577.577,0,0,0-.577-.577h-2.885V53.077a.577.577,0,0,0-.577-.577H123.077a.577.577,0,0,0-.577.577V64.615a2.888,2.888,0,0,0,2.885,2.885ZM136.346,60v4.615a1.731,1.731,0,0,1-1.731,1.731h-.577V60Zm-12.692-6.346h9.231V66.346h-7.5a1.731,1.731,0,0,1-1.731-1.731Z"/><path class="a" d="M193.077,127.115h5.769a.577.577,0,0,0,.577-.577v-3.462a.577.577,0,0,0-.577-.577h-5.769a.577.577,0,0,0-.577.577v3.462a.577.577,0,0,0,.577.577Zm.577-3.462h4.615v2.308h-4.615Z" transform="translate(-67.692 -67.692)"/><path class="a" d="M193.077,316.154h3.365a.577.577,0,1,0,0-1.154h-3.365a.577.577,0,1,0,0,1.154Z" transform="translate(-67.693 -253.846)"/><path class="a" d="M193.077,386.154h5.769a.577.577,0,1,0,0-1.154h-5.769a.577.577,0,1,0,0,1.154Z" transform="translate(-67.693 -321.538)"/></g></g></svg>