<svg xmlns="http://www.w3.org/2000/svg" width="15" height="15" viewBox="0 0 15 15">
  <g id="noun-news-4301179" transform="translate(-122.5 -52.5)">
    <path id="Path_5524" data-name="Path 5524" d="M125.385,67.5h9.231a2.888,2.888,0,0,0,2.885-2.885V59.423a.577.577,0,0,0-.577-.577h-2.885V53.077a.577.577,0,0,0-.577-.577H123.077a.577.577,0,0,0-.577.577V64.615a2.888,2.888,0,0,0,2.885,2.885ZM136.346,60v4.615a1.731,1.731,0,0,1-1.731,1.731h-.577V60Zm-12.692-6.346h9.231V66.346h-7.5a1.731,1.731,0,0,1-1.731-1.731Z" fill="#e96500"/>
    <path id="Path_5525" data-name="Path 5525" d="M193.077,127.115h5.769a.577.577,0,0,0,.577-.577v-3.462a.577.577,0,0,0-.577-.577h-5.769a.577.577,0,0,0-.577.577v3.462a.577.577,0,0,0,.577.577Zm.577-3.462h4.615v2.308h-4.615Z" transform="translate(-67.692 -67.692)" fill="#e96500"/>
    <path id="Path_5526" data-name="Path 5526" d="M193.077,316.154h3.365a.577.577,0,1,0,0-1.154h-3.365a.577.577,0,1,0,0,1.154Z" transform="translate(-67.693 -253.846)" fill="#e96500"/>
    <path id="Path_5527" data-name="Path 5527" d="M193.077,386.154h5.769a.577.577,0,1,0,0-1.154h-5.769a.577.577,0,1,0,0,1.154Z" transform="translate(-67.693 -321.538)" fill="#e96500"/>
  </g>
</svg>
