<svg xmlns="http://www.w3.org/2000/svg" width="15.008" height="15" viewBox="0 0 15.008 15">
  <path id="noun-megaphone-1085959" d="M85.009,6.307A3.061,3.061,0,0,0,82.758,3.38V1.054A.739.739,0,0,0,81.708.378C76.229,2.4,76.154,2.555,72.252,2.555A2.211,2.211,0,0,0,70,4.806v3a2.211,2.211,0,0,0,2.251,2.251v3.077A2.2,2.2,0,0,0,74.5,15.312a2.131,2.131,0,0,0,2.176-2.176V10.509a51.721,51.721,0,0,1,5.028,1.8.769.769,0,0,0,1.051-.675V9.308a3.223,3.223,0,0,0,2.251-3ZM71.5,7.807v-3a.709.709,0,0,1,.75-.75c1.276,0,1.726,0,2.7-.075a8.9,8.9,0,0,1,0,4.653c-.976-.075-1.426-.075-2.7-.075a.709.709,0,0,1-.75-.75Zm3,6a.693.693,0,0,1-.75-.675v-3c.525,0,.975.075,1.426.075v2.927a.673.673,0,0,1-.675.675Zm6.754-3.3a32.014,32.014,0,0,0-4.8-1.576,9.807,9.807,0,0,0,0-5.1,39.188,39.188,0,0,0,4.8-1.576Zm1.5-2.927V5.031a1.46,1.46,0,0,1,0,2.552Z" transform="translate(-70.001 -0.312)" fill="#e96500"/>
</svg>
