<svg xmlns="http://www.w3.org/2000/svg" width="40" height="40" viewBox="0 0 40 40"><defs><style>.a{fill:#fff;}.b{fill:#e96500;}</style></defs><g transform="translate(-786 -1451)"><circle class="a" cx="20" cy="20" r="20" transform="translate(786 1451)"/><path class="b" d="M15,0A15,15,0,1,1,0,15,15,15,0,0,1,15,0Z" transform="translate(791 1456)"/><g transform="translate(1367.493 2675.147)"><path class="a" d="M132.152,74.432v1.753a2.334,2.334,0,0,0-1.4.682,1.623,1.623,0,0,1-2.279,0,2.387,2.387,0,0,0-1.695-.7,2.421,2.421,0,0,0-1.695.7,1.623,1.623,0,0,1-2.279,0,2.387,2.387,0,0,0-1.695-.7,2.421,2.421,0,0,0-1.695.7,1.623,1.623,0,0,1-2.279,0,2.358,2.358,0,0,0-1.208-.643V74.491a1.679,1.679,0,0,1,.643.39,2.375,2.375,0,0,0,3.37,0,1.623,1.623,0,0,1,2.279,0,2.376,2.376,0,0,0,1.675.7,3.766,3.766,0,0,0,.468-.039,2.477,2.477,0,0,0,1.071-.506c.058-.039.1-.1.156-.136a1.6,1.6,0,0,1,2.182-.078c.039.019.058.058.1.078a2.049,2.049,0,0,0,.526.39,2.475,2.475,0,0,0,1.169.292,2.372,2.372,0,0,0,1.695-.7,1.951,1.951,0,0,1,.9-.448Zm-2.532,3.662a2.406,2.406,0,0,1-1.695-.7,1.623,1.623,0,0,0-2.279,0,2.375,2.375,0,0,1-3.37,0,1.623,1.623,0,0,0-2.279,0,2.375,2.375,0,0,1-3.37,0,1.679,1.679,0,0,0-.643-.39v2.4h16.169V76.965a1.537,1.537,0,0,0-.838.448,2.471,2.471,0,0,1-1.695.682ZM121.048,64.4h-1.169v5.844h1.169Zm-1.948.916-3.117.935v2.143l3.117.935Zm5.455,5.318v4.052a1.462,1.462,0,0,0,.545-.351A2.39,2.39,0,0,1,128.061,74V69.465a3.907,3.907,0,0,0-3.9-3.9h-2.338v3.507H123a1.563,1.563,0,0,1,1.558,1.558Z" transform="translate(-685.531 -1276.047)"/></g></g></svg>