<svg xmlns="http://www.w3.org/2000/svg" width="43.196" height="50" viewBox="0 0 43.196 50"><path d="M18.2,50A24.928,24.928,0,0,1,0,42.143H3.077a22.86,22.86,0,0,0,31.282-.981A22.857,22.857,0,0,0,18.2,2.143,22.689,22.689,0,0,0,3.077,7.857H0a25,25,0,0,1,35.874-.535A25,25,0,0,1,18.2,50Z" fill="#e96500"/><g transform="translate(9.354 17.857)"><path d="M41.43,987.825,35.989,981.7a1.02,1.02,0,1,0-1.52,1.361l3.932,4.422H25.02a1.02,1.02,0,1,0,0,2.041H38.4l-3.932,4.422a1.045,1.045,0,0,0,.081,1.451,1.032,1.032,0,0,0,1.439-.09l5.442-6.122A1.031,1.031,0,0,0,41.43,987.825Z" transform="translate(-24 -981.362)" fill="#0b2b42"/></g></svg>