<svg xmlns="http://www.w3.org/2000/svg" width="67" height="67" viewBox="0 0 67 67">
  <g id="Group_2060" data-name="Group 2060" transform="translate(-1789.057 -970.057)" opacity="0.849">
    <g id="Group_2059" data-name="Group 2059" transform="translate(1789 970)">
      <circle id="Ellipse_103" data-name="Ellipse 103" cx="33.5" cy="33.5" r="33.5" transform="translate(0.057 0.057)" fill="none"/>
      <g id="Group_2056" data-name="Group 2056" transform="translate(4.021 5.284)">
        <g id="Group_2057" data-name="Group 2057" transform="translate(0 0)">
          <g id="Group_2058" data-name="Group 2058">
            <path id="Path_5573" data-name="Path 5573" d="M32.464,59.027H26.03a5.318,5.318,0,0,0-.809-.273C13.065,56.69,5.083,49.779,1.2,38.176.648,36.54.391,34.807,0,33.119v-6.4a6.826,6.826,0,0,0,.281-.962,29.284,29.284,0,0,1,57.2-3.537c.412,1.48.682,3,1.017,4.5v6.4a3.329,3.329,0,0,0-.261.659C56.153,46.208,48.98,54.22,36.975,58.006c-1.465.462-3.005.687-4.511,1.021m-3.231-4.922A24.19,24.19,0,1,0,4.942,29.9a24.2,24.2,0,0,0,24.291,24.2" transform="translate(0 -0.754)" fill="#0b2b42"/>
            <path id="Path_5578" data-name="Path 5578" d="M67.484,84.014c-1.6,1.672-3.214,3.338-4.81,5.018a2.573,2.573,0,0,1-2.777.809,2.407,2.407,0,0,1-.966-4.009c3.257-3.34,6.573-6.625,9.9-9.894a2.382,2.382,0,0,1,3.293.073q4.929,4.867,9.8,9.8a2.291,2.291,0,0,1,.042,3.388,2.424,2.424,0,0,1-3.529.048c-1.456-1.36-2.835-2.8-4.252-4.2-.33-.326-.683-.627-1.268-1.161,0,1.831,0,3.365,0,4.9,0,2.716.029,5.433-.016,8.148a2.461,2.461,0,0,1-2.4,2.73c-1.487.037-2.514-1.009-2.534-2.75-.041-3.685-.015-7.371-.016-11.057q0-.791,0-1.581l-.462-.254" transform="translate(-41.19 -53.506)" fill="#0b2b42"/>
            <path id="Path_5579" data-name="Path 5579" d="M64.616,50.69c3.942,0,7.884-.007,11.825,0,1.8,0,2.8.882,2.809,2.411A2.49,2.49,0,0,1,76.462,55.6q-11.826.027-23.651,0c-1.731,0-2.8-.992-2.8-2.474,0-1.539.991-2.426,2.781-2.431,3.942-.011,7.883,0,11.825,0" transform="translate(-35.384 -36.084)" fill="#e96500"/>
          </g>
        </g>
      </g>
    </g>
  </g>
</svg>
